<svg width="24" height="25" viewBox="0 0 24 25" fill="none" xmlns="http://www.w3.org/2000/svg">
<g clip-path="url(#clip0_79_167)">
<path fill-rule="evenodd" clip-rule="evenodd" d="M1.84629 0.114258H8.30914C9.32743 0.114258 10.1537 0.940544 10.1537 1.96054V8.4234C10.1537 9.44169 9.32743 10.268 8.30743 10.268H1.84457C1.3552 10.2675 0.886033 10.0728 0.540158 9.7266C0.194283 9.38041 -2.10948e-07 8.91106 0 8.42169L0 1.95883C0 0.942258 0.826286 0.114258 1.84629 0.114258ZM15.6926 13.9605H22.1554C23.1737 13.9605 24 14.7868 24 15.8068V22.2697C24 23.288 23.1737 24.1143 22.1537 24.1143H15.6909C15.2015 24.1138 14.7323 23.9191 14.3864 23.5729C14.0406 23.2267 13.8463 22.7573 13.8463 22.268V15.8051C13.8463 14.7868 14.6726 13.9605 15.6926 13.9605ZM8.30743 13.9605H1.84457C0.828 13.9605 0 14.7868 0 15.8068V22.2697C0 23.2863 0.826286 24.1143 1.84629 24.1143H8.30914C9.32743 24.1143 10.1537 23.288 10.1537 22.268V15.8051C10.1537 14.7868 9.32743 13.9605 8.30743 13.9605ZM18.4474 0.114258C18.7884 0.114258 19.1154 0.249717 19.3566 0.490835C19.5977 0.731953 19.7331 1.05898 19.7331 1.39997V4.37083H22.7023C22.8711 4.37083 23.0383 4.40409 23.1943 4.4687C23.3503 4.53331 23.492 4.62802 23.6114 4.74741C23.7308 4.8668 23.8255 5.00853 23.8901 5.16452C23.9547 5.32051 23.988 5.4877 23.988 5.65654C23.988 5.82539 23.9547 5.99258 23.8901 6.14857C23.8255 6.30456 23.7308 6.44629 23.6114 6.56568C23.492 6.68507 23.3503 6.77978 23.1943 6.84439C23.0383 6.909 22.8711 6.94226 22.7023 6.94226H19.7331V9.9114C19.7331 10.2524 19.5977 10.5794 19.3566 10.8205C19.1154 11.0617 18.7884 11.1971 18.4474 11.1971C18.1064 11.1971 17.7794 11.0617 17.5383 10.8205C17.2972 10.5794 17.1617 10.2524 17.1617 9.9114V6.94226H14.1909C13.8499 6.94226 13.5228 6.8068 13.2817 6.56568C13.0406 6.32456 12.9051 5.99754 12.9051 5.65654C12.9051 5.31555 13.0406 4.98852 13.2817 4.74741C13.5228 4.50629 13.8499 4.37083 14.1909 4.37083H17.1617V1.39997C17.1617 1.05898 17.2972 0.731953 17.5383 0.490835C17.7794 0.249717 18.1064 0.114258 18.4474 0.114258Z" fill="#B0B0B0"/>
</g>
<defs>
<clipPath id="clip0_79_167">
<rect width="24" height="24" fill="white" transform="translate(0 0.114258)"/>
</clipPath>
</defs>
</svg>
