<svg width="40" height="39" viewBox="0 0 40 39" fill="none" xmlns="http://www.w3.org/2000/svg">
<path d="M20.975 3.575C20.6937 3.36404 20.3516 3.25 20 3.25C19.6484 3.25 19.3063 3.36404 19.025 3.575C18.348 4.09366 17.7237 4.67769 17.1611 5.31862C16.3113 6.27575 15.125 7.88938 15.125 9.75C15.125 11.0429 15.6386 12.2829 16.5529 13.1971C17.4671 14.1114 18.7071 14.625 20 14.625H10.25C8.95707 14.625 7.71709 15.1386 6.80285 16.0529C5.88861 16.9671 5.375 18.2071 5.375 19.5V22.75C5.375 24.7585 7.66788 25.9058 9.275 24.7L10.3589 23.8875C10.6402 23.6765 10.9823 23.5625 11.3339 23.5625C11.6855 23.5625 12.0276 23.6765 12.3089 23.8875L12.7411 24.2125C13.585 24.8454 14.6113 25.1875 15.6661 25.1875C16.7209 25.1875 17.7473 24.8454 18.5911 24.2125L19.025 23.8875C19.3063 23.6765 19.6484 23.5625 20 23.5625C20.3516 23.5625 20.6937 23.6765 20.975 23.8875L21.4089 24.2125C22.2527 24.8454 23.2791 25.1875 24.3339 25.1875C25.3887 25.1875 26.415 24.8454 27.2589 24.2125L27.6911 23.8875C27.9724 23.6765 28.3145 23.5625 28.6661 23.5625C29.0177 23.5625 29.3598 23.6765 29.6411 23.8875L30.725 24.7C32.3321 25.9058 34.625 24.7585 34.625 22.75V19.5C34.625 18.2071 34.1114 16.9671 33.1971 16.0529C32.2829 15.1386 31.0429 14.625 29.75 14.625H20C21.2929 14.625 22.5329 14.1114 23.4471 13.1971C24.3614 12.2829 24.875 11.0429 24.875 9.75C24.875 7.88938 23.6887 6.27575 22.8389 5.31862C22.2766 4.68488 21.6526 4.08363 20.975 3.575ZM7 28.2994V32.5C7 33.362 7.34241 34.1886 7.9519 34.7981C8.5614 35.4076 9.38805 35.75 10.25 35.75H29.75C30.612 35.75 31.4386 35.4076 32.0481 34.7981C32.6576 34.1886 33 33.362 33 32.5V28.2994C32.6218 28.436 32.2154 28.4755 31.818 28.4145C31.4206 28.3535 31.0448 28.1938 30.725 27.95L29.6411 27.1375C29.3598 26.9265 29.0177 26.8125 28.6661 26.8125C28.3145 26.8125 27.9724 26.9265 27.6911 27.1375L27.2589 27.4625C26.415 28.0954 25.3887 28.4375 24.3339 28.4375C23.2791 28.4375 22.2527 28.0954 21.4089 27.4625L20.975 27.1375C20.6937 26.9265 20.3516 26.8125 20 26.8125C19.6484 26.8125 19.3063 26.9265 19.025 27.1375L18.5911 27.4625C17.7473 28.0954 16.7209 28.4375 15.6661 28.4375C14.6113 28.4375 13.585 28.0954 12.7411 27.4625L12.3089 27.1375C12.0276 26.9265 11.6855 26.8125 11.3339 26.8125C10.9823 26.8125 10.6402 26.9265 10.3589 27.1375L9.275 27.95C8.95523 28.1938 8.57944 28.3535 8.18201 28.4145C7.78458 28.4755 7.37818 28.436 7 28.2994Z" fill="#81C784"/>
</svg>
