<svg width="40" height="39" viewBox="0 0 40 39" fill="none" xmlns="http://www.w3.org/2000/svg">
<path d="M13.2605 4.0625C13.2605 3.73927 13.1321 3.42927 12.9036 3.20071C12.675 2.97215 12.365 2.84375 12.0418 2.84375C11.7186 2.84375 11.4086 2.97215 11.18 3.20071C10.9514 3.42927 10.823 3.73927 10.823 4.0625V6.63C8.48304 6.81687 6.94904 7.27513 5.82129 8.4045C4.69192 9.53225 4.23367 11.0679 4.04517 13.4062H36.2884C36.0999 11.0662 35.6417 9.53225 34.5123 8.4045C33.3845 7.27513 31.8489 6.81687 29.5105 6.62838V4.0625C29.5105 3.73927 29.3821 3.42927 29.1536 3.20071C28.925 2.97215 28.615 2.84375 28.2918 2.84375C27.9686 2.84375 27.6586 2.97215 27.43 3.20071C27.2014 3.42927 27.073 3.73927 27.073 4.0625V6.52113C25.9924 6.5 24.7802 6.5 23.4168 6.5H16.9168C15.5534 6.5 14.3412 6.5 13.2605 6.52113V4.0625Z" fill="#81C784"/>
<path fill-rule="evenodd" clip-rule="evenodd" d="M3.91675 19.5C3.91675 18.1366 3.91675 16.9244 3.93787 15.8438H36.3956C36.4167 16.9244 36.4167 18.1366 36.4167 19.5V22.75C36.4167 28.8779 36.4167 31.9426 34.5122 33.8455C32.6077 35.7484 29.5446 35.75 23.4167 35.75H16.9167C10.7889 35.75 7.72412 35.75 5.82125 33.8455C3.91837 31.941 3.91675 28.8779 3.91675 22.75V19.5ZM28.2917 22.75C28.7227 22.75 29.1361 22.5788 29.4408 22.274C29.7455 21.9693 29.9167 21.556 29.9167 21.125C29.9167 20.694 29.7455 20.2807 29.4408 19.976C29.1361 19.6712 28.7227 19.5 28.2917 19.5C27.8608 19.5 27.4474 19.6712 27.1427 19.976C26.838 20.2807 26.6667 20.694 26.6667 21.125C26.6667 21.556 26.838 21.9693 27.1427 22.274C27.4474 22.5788 27.8608 22.75 28.2917 22.75ZM28.2917 29.25C28.7227 29.25 29.1361 29.0788 29.4408 28.774C29.7455 28.4693 29.9167 28.056 29.9167 27.625C29.9167 27.194 29.7455 26.7807 29.4408 26.476C29.1361 26.1712 28.7227 26 28.2917 26C27.8608 26 27.4474 26.1712 27.1427 26.476C26.838 26.7807 26.6667 27.194 26.6667 27.625C26.6667 28.056 26.838 28.4693 27.1427 28.774C27.4474 29.0788 27.8608 29.25 28.2917 29.25ZM21.7917 21.125C21.7917 21.556 21.6205 21.9693 21.3158 22.274C21.011 22.5788 20.5977 22.75 20.1667 22.75C19.7358 22.75 19.3224 22.5788 19.0177 22.274C18.713 21.9693 18.5417 21.556 18.5417 21.125C18.5417 20.694 18.713 20.2807 19.0177 19.976C19.3224 19.6712 19.7358 19.5 20.1667 19.5C20.5977 19.5 21.011 19.6712 21.3158 19.976C21.6205 20.2807 21.7917 20.694 21.7917 21.125ZM21.7917 27.625C21.7917 28.056 21.6205 28.4693 21.3158 28.774C21.011 29.0788 20.5977 29.25 20.1667 29.25C19.7358 29.25 19.3224 29.0788 19.0177 28.774C18.713 28.4693 18.5417 28.056 18.5417 27.625C18.5417 27.194 18.713 26.7807 19.0177 26.476C19.3224 26.1712 19.7358 26 20.1667 26C20.5977 26 21.011 26.1712 21.3158 26.476C21.6205 26.7807 21.7917 27.194 21.7917 27.625ZM12.0417 22.75C12.4727 22.75 12.886 22.5788 13.1908 22.274C13.4955 21.9693 13.6667 21.556 13.6667 21.125C13.6667 20.694 13.4955 20.2807 13.1908 19.976C12.886 19.6712 12.4727 19.5 12.0417 19.5C11.6108 19.5 11.1974 19.6712 10.8927 19.976C10.588 20.2807 10.4167 20.694 10.4167 21.125C10.4167 21.556 10.588 21.9693 10.8927 22.274C11.1974 22.5788 11.6108 22.75 12.0417 22.75ZM12.0417 29.25C12.4727 29.25 12.886 29.0788 13.1908 28.774C13.4955 28.4693 13.6667 28.056 13.6667 27.625C13.6667 27.194 13.4955 26.7807 13.1908 26.476C12.886 26.1712 12.4727 26 12.0417 26C11.6108 26 11.1974 26.1712 10.8927 26.476C10.588 26.7807 10.4167 27.194 10.4167 27.625C10.4167 28.056 10.588 28.4693 10.8927 28.774C11.1974 29.0788 11.6108 29.25 12.0417 29.25Z" fill="#81C784"/>
</svg>
