<svg width="40" height="39" viewBox="0 0 40 39" fill="none" xmlns="http://www.w3.org/2000/svg">
<path d="M31.2084 35.75H8.45837C7.16544 35.75 5.92547 35.2364 5.01123 34.3221C4.09699 33.4079 3.58337 32.1679 3.58337 30.875V4.875C3.58337 4.44402 3.75458 4.0307 4.05933 3.72595C4.36407 3.4212 4.7774 3.25 5.20837 3.25H27.9584C28.3894 3.25 28.8027 3.4212 29.1074 3.72595C29.4122 4.0307 29.5834 4.44402 29.5834 4.875V24.375H36.0834V30.875C36.0834 32.1679 35.5698 33.4079 34.6555 34.3221C33.7413 35.2364 32.5013 35.75 31.2084 35.75ZM29.5834 27.625V30.875C29.5834 31.306 29.7546 31.7193 30.0593 32.024C30.3641 32.3288 30.7774 32.5 31.2084 32.5C31.6394 32.5 32.0527 32.3288 32.3574 32.024C32.6622 31.7193 32.8334 31.306 32.8334 30.875V27.625H29.5834ZM10.0834 11.375V14.625H23.0834V11.375H10.0834ZM10.0834 17.875V21.125H23.0834V17.875H10.0834ZM10.0834 24.375V27.625H18.2084V24.375H10.0834Z" fill="#81C784"/>
</svg>
