<svg width="39" height="39" viewBox="0 0 39 39" fill="none" xmlns="http://www.w3.org/2000/svg">
<path d="M19.5 18.6875C18.4226 18.6875 17.3892 18.2595 16.6274 17.4976C15.8655 16.7358 15.4375 15.7024 15.4375 14.625C15.4375 13.5476 15.8655 12.5142 16.6274 11.7524C17.3892 10.9905 18.4226 10.5625 19.5 10.5625C20.5774 10.5625 21.6108 10.9905 22.3726 11.7524C23.1345 12.5142 23.5625 13.5476 23.5625 14.625C23.5625 15.1585 23.4574 15.6868 23.2533 16.1797C23.0491 16.6725 22.7499 17.1204 22.3726 17.4976C21.9954 17.8749 21.5475 18.1741 21.0547 18.3783C20.5618 18.5824 20.0335 18.6875 19.5 18.6875ZM19.5 3.25C16.4832 3.25 13.5899 4.44843 11.4567 6.58166C9.32343 8.71489 8.125 11.6082 8.125 14.625C8.125 23.1562 19.5 35.75 19.5 35.75C19.5 35.75 30.875 23.1562 30.875 14.625C30.875 11.6082 29.6766 8.71489 27.5433 6.58166C25.4101 4.44843 22.5168 3.25 19.5 3.25Z" fill="#81C784"/>
</svg>
