<svg width="39" height="39" viewBox="0 0 39 39" fill="none" xmlns="http://www.w3.org/2000/svg">
<path d="M35.3255 26.6725C35.0538 28.7368 34.0401 30.6317 32.4735 32.0031C30.9069 33.3746 28.8946 34.1289 26.8125 34.1252C14.7164 34.1252 4.87501 24.2838 4.87501 12.1877C4.87128 10.1056 5.62559 8.09332 6.99706 6.52673C8.36853 4.96014 10.2634 3.94635 12.3277 3.67471C12.8497 3.61097 13.3783 3.71777 13.8346 3.97915C14.291 4.24054 14.6505 4.6425 14.8596 5.12502L18.0771 12.308V12.3263C18.2372 12.6957 18.3033 13.0989 18.2696 13.5001C18.2358 13.9012 18.1032 14.2878 17.8836 14.6252C17.8562 14.6663 17.8273 14.7044 17.7968 14.7425L14.625 18.5023C15.7661 20.821 18.1914 23.225 20.5405 24.3691L24.2486 21.214C24.285 21.1834 24.3231 21.1549 24.3628 21.1287C24.7 20.9039 25.0878 20.7666 25.4913 20.7294C25.8949 20.6921 26.3013 20.7561 26.6739 20.9155L26.6937 20.9246L33.8706 24.1406C34.354 24.3489 34.7569 24.7082 35.0192 25.1646C35.2814 25.621 35.3889 26.15 35.3255 26.6725Z" fill="#81C784"/>
</svg>
