<svg width="45" height="47" viewBox="0 0 45 47" fill="none" xmlns="http://www.w3.org/2000/svg">
<g clip-path="url(#clip0_47_483)">
<path d="M22.5 0.734375C10.0706 0.734375 0 10.9238 0 23.5C0 36.0762 10.0706 46.2656 22.5 46.2656C34.9294 46.2656 45 36.0762 45 23.5C45 10.9238 34.9294 0.734375 22.5 0.734375ZM33.5504 16.3307L29.8579 33.9373C29.5857 35.1857 28.8508 35.4887 27.8256 34.9012L22.2006 30.7061L19.4879 33.3498C19.1885 33.6527 18.9345 33.9098 18.3538 33.9098L18.753 28.1174L29.1774 18.5889C29.6311 18.185 29.0776 17.9555 28.4788 18.3594L15.5958 26.566L10.0433 24.8127C8.83669 24.4271 8.80948 23.5918 10.2974 23.0043L31.9899 14.5406C32.997 14.1734 33.877 14.7885 33.5504 16.3307Z" fill="white"/>
</g>
<defs>
<clipPath id="clip0_47_483">
<rect width="45" height="47" fill="white"/>
</clipPath>
</defs>
</svg>
