<svg width="39" height="39" viewBox="0 0 39 39" fill="none" xmlns="http://www.w3.org/2000/svg">
<path d="M19.5 3.25C28.4749 3.25 35.75 10.5251 35.75 19.5C35.75 28.4749 28.4749 35.75 19.5 35.75C10.5251 35.75 3.25 28.4749 3.25 19.5C3.25 10.5251 10.5251 3.25 19.5 3.25ZM19.5 9.75C19.069 9.75 18.6557 9.92121 18.351 10.226C18.0462 10.5307 17.875 10.944 17.875 11.375V19.5C17.8751 19.9309 18.0464 20.3442 18.3511 20.6489L23.2261 25.5239C23.5326 25.8199 23.9431 25.9837 24.3692 25.98C24.7952 25.9763 25.2028 25.8054 25.5041 25.5041C25.8054 25.2028 25.9763 24.7952 25.98 24.3692C25.9837 23.9431 25.8199 23.5326 25.5239 23.2261L21.125 18.8273V11.375C21.125 10.944 20.9538 10.5307 20.649 10.226C20.3443 9.92121 19.931 9.75 19.5 9.75Z" fill="#81C784"/>
</svg>
