<svg width="39" height="39" viewBox="0 0 39 39" fill="none" xmlns="http://www.w3.org/2000/svg">
<g clip-path="url(#clip0_68_234)">
<path fill-rule="evenodd" clip-rule="evenodd" d="M14.0652 0.76873C10.2962 1.86665 6.94552 4.07506 4.45043 7.10584C1.95534 10.1366 0.431642 13.8491 0.078125 17.7588H8.99241C9.51204 11.8092 11.237 6.0276 14.0624 0.765945L14.0652 0.76873ZM8.99241 21.2409H0.078125C0.430907 25.1508 1.95395 28.8636 4.44855 31.8949C6.94315 34.9262 10.2935 37.1352 14.0624 38.2338C11.237 32.9721 9.51204 27.1905 8.99241 21.2409ZM18.5307 38.9776C15.1532 33.621 13.0825 27.5453 12.4857 21.2409H26.5118C25.9149 27.5453 23.8442 33.621 20.4668 38.9776C19.8218 39.0096 19.1757 39.0096 18.5307 38.9776ZM24.9378 38.231C28.7064 37.1326 32.0564 34.924 34.551 31.8933C37.0455 28.8625 38.5688 25.1503 38.9221 21.2409H30.0078C29.4882 27.1905 27.7632 32.9721 24.9378 38.2338V38.231ZM30.0078 17.7588H38.9221C38.5693 13.8489 37.0463 10.1361 34.5517 7.10483C32.0571 4.07354 28.7068 1.86451 24.9378 0.765945C27.7632 6.0276 29.4882 11.8092 30.0078 17.7588ZM18.5307 0.022159C19.1766 -0.0099905 19.8237 -0.0099905 20.4696 0.022159C23.846 5.37904 25.9158 11.4547 26.5118 17.7588H12.4885C13.093 11.4157 15.1683 5.33452 18.5307 0.022159Z" fill="#81C784"/>
</g>
<defs>
<clipPath id="clip0_68_234">
<rect width="39" height="39" fill="white"/>
</clipPath>
</defs>
</svg>
