<svg width="47" height="47" viewBox="0 0 47 47" fill="none" xmlns="http://www.w3.org/2000/svg">
<g clip-path="url(#clip0_47_485)">
<path d="M43.485 10.8685C36.4544 -0.000359285 22.1002 -3.23163 10.9684 3.52467C0.129519 10.281 -3.38579 24.9686 3.64483 35.8374L4.23072 36.7187L1.88718 45.5312L10.6755 43.1812L11.5543 43.7687C15.3625 45.825 19.4637 47 23.5649 47C27.9591 47 32.3532 45.825 36.1615 43.475C47.0004 36.4249 50.2227 22.0311 43.485 10.8685ZM37.3332 33.4874C36.1615 35.2499 34.6968 36.4249 32.6462 36.7187C31.4744 36.7187 30.0097 37.3062 24.1508 34.9562C19.1708 32.6061 15.0696 28.7874 12.1402 24.3811C10.3825 22.3248 9.50369 19.681 9.21074 17.0373C9.21074 14.6873 10.0896 12.631 11.5543 11.1622C12.1402 10.5747 12.7261 10.281 13.3119 10.281H14.7767C15.3625 10.281 15.9484 10.281 16.2414 11.456C16.8273 12.9247 18.292 16.4498 18.292 16.7435C18.5849 17.0373 18.5849 17.6248 18.292 17.9185C18.5849 18.506 18.292 19.0935 17.999 19.3873C17.7061 19.681 17.4131 20.2685 17.1202 20.5623C16.5343 20.8561 16.2414 21.4436 16.5343 22.0311C17.7061 23.7936 19.1708 25.5561 20.6355 27.0248C22.3932 28.4936 24.1508 29.6686 26.2014 30.5499C26.7873 30.8436 27.3732 30.8436 27.6661 30.2561C27.9591 29.6686 29.4238 28.1999 30.0097 27.6124C30.5956 27.0248 30.8885 27.0248 31.4744 27.3186L36.1615 29.6686C36.7474 29.9624 37.3333 30.2561 37.6262 30.5499C37.9191 31.4311 37.9191 32.6061 37.3332 33.4874Z" fill="white"/>
</g>
<defs>
<clipPath id="clip0_47_485">
<rect width="47" height="47" fill="white"/>
</clipPath>
</defs>
</svg>
