<svg width="47" height="47" viewBox="0 0 47 47" fill="none" xmlns="http://www.w3.org/2000/svg">
<g clip-path="url(#clip0_47_487)">
<path d="M27.424 23.0912L21.926 20.5258C21.4462 20.303 21.0521 20.5527 21.0521 21.0839V25.9161C21.0521 26.4473 21.4462 26.697 21.926 26.4742L27.4216 23.9088C27.9038 23.6836 27.9038 23.3164 27.424 23.0912ZM23.5 0C10.5211 0 0 10.5211 0 23.5C0 36.4789 10.5211 47 23.5 47C36.4789 47 47 36.4789 47 23.5C47 10.5211 36.4789 0 23.5 0ZM23.5 33.0469C11.4709 33.0469 11.2604 31.9624 11.2604 23.5C11.2604 15.0376 11.4709 13.9531 23.5 13.9531C35.5291 13.9531 35.7396 15.0376 35.7396 23.5C35.7396 31.9624 35.5291 33.0469 23.5 33.0469Z" fill="white"/>
</g>
<defs>
<clipPath id="clip0_47_487">
<rect width="47" height="47" fill="white"/>
</clipPath>
</defs>
</svg>
