<svg width="541" height="487" viewBox="0 0 541 487" fill="none" xmlns="http://www.w3.org/2000/svg">
<path d="M398.029 52.2544C389.509 47.6102 385.6 51.486 382.537 47.6102C379.475 43.7343 391.057 33.6662 367.848 23.5981C367.848 23.5981 366.3 1.91383 334.536 1.13415C302.772 0.354464 311.304 22.8297 302.784 28.2536C294.263 33.6775 291.936 25.1575 283.416 30.5814C274.896 36.0053 278.749 46.8079 271.777 48.3899C264.805 49.9718 255.505 41.4179 246.985 46.8418C238.465 52.2657 238.465 56.9099 234.555 56.9099C230.646 56.9099 222.928 53.8138 218.284 56.9099C213.639 60.006 208.216 63.8819 208.216 63.8819H404.233C404.233 63.8819 406.549 56.9099 398.029 52.2544Z" stroke="#263238" stroke-linecap="round" stroke-linejoin="round"/>
<path d="M282.105 49.0678C280.994 49.6943 279.838 50.2382 278.647 50.695" stroke="#263238" stroke-linecap="round" stroke-linejoin="round"/>
<path d="M324.027 12.9085C322.105 13.7663 320.416 15.0712 319.101 16.7146C317.786 18.3579 316.883 20.2919 316.468 22.3551C315.044 29.4514 311.733 34.1747 307.959 34.6493C304.185 35.1239 289.992 33.7001 287.619 38.9093C286.988 40.4319 286.544 42.0255 286.297 43.6552" stroke="#263238" stroke-linecap="round" stroke-linejoin="round"/>
<path d="M206.724 107.94C202.261 105.51 200.227 107.533 198.599 105.51C196.972 103.488 203.063 98.1994 190.882 92.9111C190.882 92.9111 190.068 81.5435 173.424 81.1367C156.779 80.7299 161.231 92.5043 156.768 95.397C152.304 98.2897 151.118 93.7698 146.598 96.6174C142.078 99.4649 144.168 105.149 140.507 105.962C136.846 106.776 131.976 102.301 127.513 105.149C123.049 107.996 122.993 110.426 121.015 110.426C119.038 110.426 114.925 108.799 112.484 110.426C110.043 112.053 107.207 114.076 107.207 114.076H209.956C209.956 114.076 211.176 110.381 206.724 107.94Z" stroke="#263238" stroke-linecap="round" stroke-linejoin="round"/>
<path d="M145.943 106.279C145.355 106.599 144.747 106.882 144.123 107.126" stroke="#263238" stroke-linecap="round" stroke-linejoin="round"/>
<path d="M167.921 87.3063C166.913 87.755 166.027 88.4385 165.337 89.2995C164.647 90.1605 164.173 91.1741 163.954 92.2556C163.209 95.9732 161.48 98.4592 159.434 98.7078C157.389 98.9564 150.022 98.2106 148.779 100.968C148.451 101.767 148.216 102.601 148.078 103.454" stroke="#263238" stroke-linecap="round" stroke-linejoin="round"/>
<path d="M339.598 192.937C339.598 192.937 392.854 198.214 419.827 231.22C419.827 231.22 448.347 192.982 499.569 193.762C512.082 178.664 520.048 160.322 522.54 140.873C525.033 121.423 521.95 101.665 513.649 83.9002C505.349 66.1349 492.173 51.093 475.655 40.5256C459.137 29.9582 439.958 24.3001 420.349 24.21C400.741 24.12 381.51 29.6018 364.896 40.0171C348.282 50.4324 334.968 65.3528 326.505 83.0411C318.042 100.729 314.777 120.458 317.091 139.929C319.405 159.401 327.203 177.815 339.576 193.027L339.598 192.937Z" fill="#81C784"/>
<path opacity="0.5" d="M339.598 192.937C339.598 192.937 392.854 198.214 419.827 231.22C419.827 231.22 448.347 192.982 499.569 193.762C512.082 178.664 520.048 160.322 522.54 140.873C525.033 121.423 521.95 101.665 513.649 83.9002C505.349 66.1349 492.173 51.093 475.655 40.5256C459.137 29.9582 439.958 24.3001 420.349 24.21C400.741 24.12 381.51 29.6018 364.896 40.0171C348.282 50.4324 334.968 65.3528 326.505 83.0411C318.042 100.729 314.777 120.458 317.091 139.929C319.405 159.401 327.203 177.815 339.576 193.027L339.598 192.937Z" fill="white"/>
<path d="M418.087 31.508L416.279 438.639H425.273L418.087 31.508Z" fill="#263238"/>
<path d="M420.776 221.164C420.776 221.164 438.754 188.801 471.071 178.914C471.071 178.914 436.912 187.004 419.838 214.87L420.776 221.164Z" fill="#263238"/>
<path d="M420.776 129.477C420.776 129.477 438.754 97.1259 471.071 87.2386C471.071 87.2386 436.912 95.3292 419.838 123.183L420.776 129.477Z" fill="#263238"/>
<path d="M420.776 175.32C420.776 175.32 438.754 142.958 471.071 133.07C471.071 133.07 436.912 141.161 419.838 169.026L420.776 175.32Z" fill="#263238"/>
<path d="M418.109 152.845C418.109 152.845 400.764 120.494 369.52 110.607C369.52 110.607 402.482 118.697 418.957 146.562L418.109 152.845Z" fill="#263238"/>
<path d="M418.109 197.784C418.109 197.784 400.764 165.433 369.52 155.546C369.52 155.546 402.482 163.636 418.957 191.502L418.109 197.784Z" fill="#263238"/>
<path d="M172.938 235.141C172.938 235.141 217.007 239.515 239.392 266.849C239.392 266.849 263.008 235.209 305.428 235.831C315.794 223.326 322.395 208.135 324.462 192.024C326.529 175.913 323.977 159.547 317.103 144.831C310.228 130.115 299.315 117.654 285.633 108.9C271.952 100.146 256.065 95.4586 239.822 95.3838C223.58 95.309 207.65 99.8499 193.889 108.478C180.127 117.105 169.1 129.465 162.09 144.117C155.081 158.769 152.378 175.111 154.296 191.24C156.215 207.369 162.675 222.621 172.926 235.221L172.938 235.141Z" fill="#81C784"/>
<path opacity="0.3" d="M172.938 235.141C172.938 235.141 217.007 239.515 239.392 266.849C239.392 266.849 263.008 235.209 305.428 235.831C315.794 223.326 322.395 208.135 324.462 192.024C326.529 175.913 323.977 159.547 317.103 144.831C310.228 130.115 299.315 117.654 285.633 108.9C271.952 100.146 256.065 95.4586 239.822 95.3838C223.58 95.309 207.65 99.8499 193.889 108.478C180.127 117.105 169.1 129.465 162.09 144.117C155.081 158.769 152.378 175.111 154.296 191.24C156.215 207.369 162.675 222.621 172.926 235.221L172.938 235.141Z" fill="white"/>
<path d="M237.934 101.442L236.454 438.639H243.889L237.934 101.442Z" fill="#263238"/>
<path d="M240.172 258.521C240.172 258.521 255.053 231.718 281.856 223.491C281.856 223.491 253.607 230.192 239.426 253.266L240.172 258.521Z" fill="#263238"/>
<path d="M240.172 182.586C240.172 182.586 255.053 155.783 281.856 147.557C281.856 147.557 253.607 154.258 239.426 177.343L240.172 182.586Z" fill="#263238"/>
<path d="M240.172 220.553C240.172 220.553 255.053 193.75 281.856 185.524C281.856 185.524 253.607 192.225 239.426 215.31L240.172 220.553Z" fill="#263238"/>
<path d="M237.968 201.943C237.968 201.943 223.595 175.14 197.741 166.913C197.741 166.913 225.03 173.614 238.68 196.7L237.968 201.943Z" fill="#263238"/>
<path d="M237.968 239.164C237.968 239.164 223.595 212.361 197.741 204.135C197.741 204.135 225.03 210.836 238.68 233.921L237.968 239.164Z" fill="#263238"/>
<path d="M276.862 438.255C276.703 434.718 277.167 428.006 280.975 417.916C286.941 402.096 297.393 433.735 297.393 433.735C297.393 433.735 297.393 429.972 308.591 417.916C319.789 405.859 329.485 426.955 329.485 426.955C329.485 426.955 324.264 376.491 336.954 380.253C349.644 384.016 348.141 426.955 348.141 426.955C348.141 426.955 357.101 395.316 369.045 395.316C380.989 395.316 383.972 417.916 383.972 417.916C383.972 417.916 386.955 377.993 398.899 377.236C410.843 376.479 424.267 410.39 424.267 410.39C424.267 410.39 420.538 365.191 432.482 362.931C444.426 360.671 448.901 379.496 448.901 379.496C448.901 379.496 459.342 316.975 479.501 324.512C499.66 332.048 482.484 401.35 482.484 401.35C482.484 401.35 502.631 353.134 519.05 364.434C533.977 374.705 514.982 428.549 511.411 438.255H276.862Z" fill="#81C784"/>
<path d="M517.773 438.153C517.773 438.153 526.519 411.136 522.033 406.616C517.547 402.096 498.191 421.69 498.191 421.69C498.191 421.69 512.372 373.473 489.976 367.451C467.579 361.428 463.862 414.153 463.862 414.153C463.862 414.153 447.443 390.05 443.703 399.09C441.45 404.6 440.187 410.464 439.974 416.413C439.974 416.413 431.77 350.874 413.103 353.891C394.436 356.908 411.612 421.69 411.612 421.69C411.612 421.69 401.171 399.09 389.227 401.35C377.283 403.61 372.763 417.916 372.763 417.916C372.763 417.916 367.542 405.113 363.802 405.113C360.062 405.113 355.599 427.712 355.599 427.712C355.599 427.712 351.079 393.056 342.909 394.57C334.739 396.084 317.53 425.453 317.53 425.453C317.53 425.453 320.524 408.876 311.563 408.13C302.603 407.384 297.382 433.735 297.382 433.735C297.382 433.735 285.438 408.876 277.98 413.396C270.522 417.916 274.082 438.911 274.082 438.911" stroke="#263238" stroke-linecap="round" stroke-linejoin="round"/>
<path d="M477.479 437.781L483.976 405.87" stroke="#263238" stroke-linecap="round" stroke-linejoin="round"/>
<path d="M430.991 438.255L427.251 417.17" stroke="#263238" stroke-linecap="round" stroke-linejoin="round"/>
<path d="M336.604 438.153L341.429 420.933" stroke="#263238" stroke-linecap="round" stroke-linejoin="round"/>
<path d="M394.413 439.012L386.21 423.95" stroke="#263238" stroke-linecap="round" stroke-linejoin="round"/>
<path d="M478.755 425.453L472.778 413.396" stroke="#263238" stroke-linecap="round" stroke-linejoin="round"/>
<path d="M430.991 431.475L436.211 420.933" stroke="#263238" stroke-linecap="round" stroke-linejoin="round"/>
<path d="M390.685 430.73L394.414 423.95" stroke="#263238" stroke-linecap="round" stroke-linejoin="round"/>
<path d="M338.107 431.758L335.462 422.435" stroke="#263238" stroke-linecap="round" stroke-linejoin="round"/>
<path d="M242.815 438.425C242.94 435.679 242.589 430.515 239.798 422.605C235.425 410.322 227.753 434.888 227.753 434.888C227.753 434.888 227.753 431.961 219.549 422.605C211.346 413.249 204.227 429.622 204.227 429.622C204.227 429.622 208.057 390.446 198.746 393.372C189.435 396.299 190.543 429.622 190.543 429.622C190.543 429.622 184.057 405.102 175.243 405.102C166.429 405.102 164.293 422.639 164.293 422.639C164.293 422.639 162.112 391.644 153.355 391.067C144.598 390.491 134.744 416.786 134.744 416.786C134.744 416.786 137.479 381.756 128.722 379.948C119.964 378.14 116.676 392.819 116.676 392.819C116.676 392.819 109.015 344.286 94.2345 350.128C79.4544 355.97 92.0424 409.78 92.0424 409.78C92.0424 409.78 77.2623 372.355 65.228 381.123C54.2785 389.101 68.2111 430.843 70.8779 438.425H242.815Z" fill="#81C784"/>
<path d="M66.1659 438.346C66.1659 438.346 59.7589 417.373 63.0359 413.87C66.3128 410.367 80.5505 425.566 80.5505 425.566C80.5505 425.566 70.1547 388.141 86.5733 383.463C102.992 378.784 105.783 419.712 105.783 419.712C105.783 419.712 117.829 401 120.563 408.017C122.219 412.315 123.143 416.86 123.298 421.464C123.298 421.464 129.32 370.615 143.004 372.931C156.688 375.248 144.134 425.566 144.134 425.566C144.134 425.566 151.796 408.017 160.553 409.746C169.31 411.475 172.599 422.605 172.599 422.605C172.599 422.605 176.429 412.661 179.164 412.661C181.898 412.661 185.187 430.21 185.187 430.21C185.187 430.21 188.475 403.305 194.498 404.48C200.52 405.655 213.108 428.447 213.108 428.447C213.108 428.447 210.916 415.588 217.481 415C224.047 414.413 227.877 434.888 227.877 434.888C227.877 434.888 236.635 415.588 242.115 419.068C247.595 422.548 244.895 438.911 244.895 438.911" stroke="#263238" stroke-linecap="round" stroke-linejoin="round"/>
<path d="M95.7148 438.052L90.9463 413.283" stroke="#263238" stroke-linecap="round" stroke-linejoin="round"/>
<path d="M129.818 438.425L132.552 422.051" stroke="#263238" stroke-linecap="round" stroke-linejoin="round"/>
<path d="M199.04 438.346L195.492 424.978" stroke="#263238" stroke-linecap="round" stroke-linejoin="round"/>
<path d="M156.632 439.012L162.655 427.317" stroke="#263238" stroke-linecap="round" stroke-linejoin="round"/>
<path d="M94.7883 428.481L99.1614 419.125" stroke="#263238" stroke-linecap="round" stroke-linejoin="round"/>
<path d="M129.817 433.159L125.987 424.978" stroke="#263238" stroke-linecap="round" stroke-linejoin="round"/>
<path d="M159.367 432.583L156.632 427.317" stroke="#263238" stroke-linecap="round" stroke-linejoin="round"/>
<path d="M197.933 433.374L199.876 426.142" stroke="#263238" stroke-linecap="round" stroke-linejoin="round"/>
<path d="M1 438.639H540" stroke="#263238" stroke-linecap="round" stroke-linejoin="round"/>
<path d="M412.629 344.648L407.114 352.93L361.802 372.626C361.802 372.626 355.497 373.812 355.497 375.779C355.497 377.745 354.31 383.27 355.497 384.061C356.683 384.852 364.537 382.084 364.537 382.084C364.537 382.084 362.175 384.841 364.537 385.632C366.898 386.423 369.26 382.875 369.26 382.875C371.574 381.417 373.81 379.841 375.961 378.152C377.071 376.693 377.997 375.103 378.718 373.417L420.527 362.784L429.194 349.778C429.194 349.778 411.453 347.8 412.629 344.648Z" fill="#B5B5B5" stroke="#263238" stroke-linecap="round" stroke-linejoin="round"/>
<path d="M415.781 326.071L410.651 342.908L424.064 350.896L429.477 337.766L415.781 326.071Z" fill="white" stroke="#263238" stroke-linecap="round" stroke-linejoin="round"/>
<path d="M411.182 337.484L427.454 347.19L424.595 352.32L409.194 344.331C409.3 341.923 409.982 339.575 411.182 337.484Z" fill="white" stroke="#263238" stroke-linecap="round" stroke-linejoin="round"/>
<path d="M378.978 426.481C378.978 426.481 367.565 432.187 364.424 434.752C361.282 437.317 360.717 437.012 361.565 439.035H398.097L397.238 425.904L378.978 426.481Z" fill="white" stroke="#263238" stroke-linecap="round" stroke-linejoin="round"/>
<path d="M397.962 437.069H361.565C361.068 437.6 361.124 438.029 361.565 439.069H398.097L397.962 437.069Z" fill="white" stroke="#263238" stroke-linecap="round" stroke-linejoin="round"/>
<path d="M428.053 358.603C428.053 358.603 414.075 352.897 402.662 351.755C391.249 350.614 367.565 351.179 366.424 356.275C365.282 361.371 383.26 417.294 383.26 417.294C383.26 417.294 380.119 419.294 379.87 420.684C379.622 422.074 379.023 426.334 379.023 426.334L397.283 429.181C397.283 429.181 397.848 423.475 397.848 418.062C397.848 412.65 391.577 379.248 391.577 379.248L428.38 390.954L414.685 420.051C414.685 420.051 410.414 428.616 415.261 432.899C420.109 437.182 428.098 436.289 428.098 436.289L493.162 437.148L492.032 426.582C492.032 426.582 482.619 425.159 480.902 425.159C479.184 425.159 446.37 416.887 446.37 416.887C446.37 416.887 472.63 389.485 475.478 384.92C477.172 382.393 478.326 379.542 478.867 376.548C479.407 373.553 479.323 370.479 478.619 367.519C476.902 360.671 475.76 359.236 475.76 359.236C475.76 359.236 455.737 368.852 445.466 366.592C439.174 365.153 433.247 362.434 428.053 358.603Z" fill="#263238" stroke="#263238" stroke-linecap="round" stroke-linejoin="round"/>
<path d="M381.543 270.996C381.543 270.996 383.543 277.561 383.543 278.42C383.543 279.278 382.108 283.55 383.261 284.974C384.413 286.397 387.781 286.691 387.781 286.691C387.781 286.691 392.911 292.68 395.193 294.963C397.476 297.245 400.041 298.104 402.9 296.68C405.758 295.256 408.324 291.539 408.324 291.539L413.747 296.963L426.301 282.408L421.782 276.702C421.782 276.702 422.912 270.137 418.64 261.583C414.369 253.029 399.521 250.735 389.814 252.453C380.108 254.17 377.837 259.865 377.837 261.007C377.837 262.148 381.543 270.996 381.543 270.996Z" fill="white" stroke="#263238" stroke-linecap="round" stroke-linejoin="round"/>
<path d="M386.685 245.029C386.685 245.029 380.684 240.509 376.696 242.464C372.707 244.419 374.436 246.17 373.837 249.594C373.238 253.018 363.283 253.3 363.283 259.007C363.283 264.713 370.413 266.713 371.837 266.996C373.26 267.278 372.13 273.561 376.357 273.561C380.583 273.561 381.498 270.996 381.498 270.996C381.498 270.996 378.357 261.865 381.78 260.442C385.204 259.018 392.911 256.159 391.77 261.572C390.628 266.984 394.628 268.702 396.911 268.137C399.193 267.572 402.041 267.843 402.561 268.984C403.081 270.126 405.951 272.126 405.951 269.278C405.951 266.431 407.375 263.854 409.94 263.854C412.505 263.854 414.459 268.137 414.222 271.561C414.03 273.623 413.245 275.585 411.962 277.211L421.669 276.634C421.669 276.634 424.234 263.798 421.951 254.668C419.669 245.537 408.923 240.464 402.369 239.605C395.815 238.746 387.532 242.464 386.685 245.029Z" fill="#263238" stroke="#263238" stroke-linecap="round" stroke-linejoin="round"/>
<path d="M389.136 276.092C389.848 277.222 390.018 278.352 389.532 278.634C389.046 278.917 388.051 278.352 387.351 277.267C386.65 276.182 386.458 275.007 386.955 274.725C387.453 274.442 388.424 275.064 389.136 276.092Z" fill="#263238"/>
<path d="M392.843 288.906C394.206 288.635 395.442 287.92 396.358 286.874C397.273 285.828 397.817 284.508 397.905 283.12" stroke="#263238" stroke-linecap="round" stroke-linejoin="round"/>
<path d="M384.153 273.708C384.153 273.708 384.628 271.052 387.769 272.261" stroke="#263238" stroke-linecap="round" stroke-linejoin="round"/>
<path d="M414.357 301.81C414.357 301.81 412.097 320.647 414.64 326.353C417.182 332.06 426.346 354.885 426.346 354.885C426.346 354.885 424.346 368.852 430.053 372.581C435.759 376.31 457.443 376.863 465.726 371.722C474.009 366.581 477.421 362.592 477.421 358.885C477.421 355.179 471.998 338.907 463.444 322.647C457.18 310.738 448.533 300.246 438.042 291.821C432.053 286.974 429.77 284.691 428.629 284.691C427.488 284.691 413.792 296.398 414.357 301.81Z" fill="white" stroke="#263238" stroke-linecap="round" stroke-linejoin="round"/>
<path d="M426.347 280.985L410.934 298.386L414.075 307.81L431.477 285.267L426.347 280.985Z" fill="white" stroke="#263238" stroke-linecap="round" stroke-linejoin="round"/>
<path d="M426.629 344.614C426.629 344.614 395.238 362.592 391.25 364.027C387.261 365.462 374.413 365.451 370.695 365.157C370.239 365.076 369.771 365.096 369.324 365.216C368.877 365.336 368.461 365.553 368.107 365.852C367.754 366.151 367.47 366.524 367.277 366.945C367.083 367.366 366.985 367.824 366.989 368.287L366.424 379.135C366.424 379.135 369.554 379.993 370.944 379.135C372.334 378.276 373.792 375.135 373.792 375.135C373.792 375.135 378.933 375.711 380.639 374.57C381.759 373.808 382.81 372.949 383.781 372.005C389.053 371.567 394.294 370.812 399.476 369.745C405.182 368.31 431.432 359.756 435.432 358.897C439.432 358.038 440.856 355.755 441.138 354.377C441.421 352.998 426.629 344.614 426.629 344.614Z" fill="white" stroke="#263238" stroke-linecap="round" stroke-linejoin="round"/>
<path d="M390.843 364.14C386.481 365.439 374.3 365.439 370.695 365.168C370.239 365.087 369.771 365.107 369.324 365.227C368.877 365.347 368.461 365.564 368.107 365.863C367.754 366.162 367.47 366.535 367.277 366.956C367.083 367.377 366.985 367.835 366.989 368.298L366.424 379.146C366.424 379.146 369.554 380.005 370.944 379.146C372.334 378.287 373.792 375.146 373.792 375.146C373.792 375.146 378.933 375.722 380.639 374.581C381.759 373.819 382.81 372.961 383.781 372.016C383.781 372.016 388.572 371.598 393.419 370.886L390.843 364.14Z" fill="#81C784" stroke="#263238" stroke-linecap="round" stroke-linejoin="round"/>
<path d="M428.912 302.104C428.912 302.104 424.064 307.517 424.629 311.517C425.194 315.517 426.629 344.614 426.629 344.614L442.89 351.179L447.409 328.071C447.409 328.071 451.127 322.071 450.551 316.364" fill="white"/>
<path d="M428.912 302.104C428.912 302.104 424.064 307.517 424.629 311.517C425.194 315.517 426.629 344.614 426.629 344.614L442.89 351.179L447.409 328.071C447.409 328.071 451.127 322.071 450.551 316.364" stroke="#263238" stroke-linecap="round" stroke-linejoin="round"/>
<path d="M425.205 346.049L441.748 356.027C441.748 356.027 444.008 356.027 444.324 352.32C444.641 348.614 446.313 348.038 444.889 346.049C443.466 344.06 428.335 337.766 426.912 337.766C425.488 337.766 424.064 341.19 425.205 346.049Z" fill="white" stroke="#263238" stroke-linecap="round" stroke-linejoin="round"/>
<path d="M491.976 426.797C491.976 426.797 500.53 419.385 501.965 419.667C503.4 419.95 514.801 430.797 514.801 430.797C514.801 430.797 525.355 436.504 525.355 437.362C525.355 438.221 523.649 438.492 523.649 438.492L493.139 437.362L491.976 426.797Z" fill="white" stroke="#263238" stroke-linecap="round" stroke-linejoin="round"/>
<path d="M525.31 437.363C525.31 436.504 514.756 430.797 514.756 430.797C514.756 430.797 503.343 419.95 501.92 419.667C501.411 419.565 499.987 420.447 498.383 421.622L512.191 431.362L522.248 438.447L523.604 438.504C523.604 438.504 525.31 438.21 525.31 437.363Z" fill="white" stroke="#263238" stroke-linecap="round" stroke-linejoin="round"/>
<path d="M428.335 391.135L425.488 379.146" stroke="#999999" stroke-linecap="round" stroke-linejoin="round"/>
<path d="M329.055 343.631C325.665 341.71 320.682 339.111 320.682 339.111C320.682 339.111 313.97 322.161 308.704 314.251C303.439 306.341 300.32 305.381 294.568 304.906C288.817 304.432 271.585 308.974 270.839 310.172C270.839 310.172 254.793 317.596 250.725 322.873C246.657 328.15 248.081 369.089 248.081 369.089C248.081 369.089 230.86 380.751 226.318 393.711C223.425 401.926 226.792 415.497 242.363 419.577C247.558 420.967 253.011 421.087 258.262 419.927C262.307 423.339 266.787 426.201 271.585 428.436C287.63 436.097 298.162 437.532 307.981 438.018C317.801 438.504 327.858 435.385 329.778 433.498C331.699 431.611 335.53 424.153 325.711 413.384C317.247 404.085 291.709 393.734 284.817 391.056C285.502 387.034 285.88 382.966 285.947 378.886C285.947 378.886 300.795 361.936 301.766 358.049C302.738 354.162 305.156 338.41 305.156 338.41C305.156 338.41 313.303 353.269 315.699 355.416C318.094 357.563 331.982 355.902 333.417 355.902C334.852 355.902 335.575 349.676 335.575 349.676C333.754 347.311 331.551 345.268 329.055 343.631Z" fill="white" stroke="#263238" stroke-linecap="round" stroke-linejoin="round"/>
<path d="M325.711 413.328C317.247 404.028 291.709 393.678 284.817 390.999C285.031 389.745 285.212 388.525 285.348 387.372C278.904 388.796 272.214 388.66 265.833 386.977C247.629 382.186 243.798 372.366 243.798 372.366H243.663C238.228 376.773 229.38 384.943 226.318 393.678C223.425 401.892 226.792 415.463 242.363 419.543C247.558 420.933 253.011 421.053 258.262 419.893C262.307 423.305 266.787 426.167 271.585 428.402C287.63 436.063 298.162 437.498 307.981 437.984C317.801 438.47 327.857 435.351 329.778 433.464C331.699 431.577 335.53 424.097 325.711 413.328Z" fill="#696969" stroke="#263238" stroke-linecap="round" stroke-linejoin="round"/>
<path d="M235.889 395.361C235.889 395.361 244.51 384.818 255.776 389.135C295.133 404.22 305.111 420.989 307.755 427.69C310.399 434.391 309.428 437.995 307.281 439.43C305.134 440.865 282.613 435.6 271.833 431.769C261.053 427.938 246.68 429.848 234.465 419.554C222.25 409.26 224.171 399.214 228.001 390.57" fill="#696969"/>
<path d="M235.889 395.361C235.889 395.361 244.51 384.818 255.776 389.135C295.133 404.22 305.111 420.989 307.755 427.69C310.399 434.391 309.428 437.995 307.281 439.43C305.134 440.865 282.613 435.6 271.833 431.769C261.053 427.938 246.68 429.848 234.465 419.554C222.25 409.26 224.171 399.214 228.001 390.57" stroke="#263238" stroke-linecap="round" stroke-linejoin="round"/>
<path d="M335.53 349.642C333.718 347.301 331.53 345.278 329.056 343.653C325.666 341.732 320.682 339.133 320.682 339.133C320.682 339.133 318.75 334.252 316.162 328.5C313.258 330.918 308.501 335.563 306.671 341.201C309.157 345.608 313.925 353.857 315.71 355.416C318.095 357.575 331.993 355.902 333.429 355.902C334.864 355.902 335.53 349.642 335.53 349.642Z" fill="white" stroke="#263238" stroke-linecap="round" stroke-linejoin="round"/>
<path d="M305.111 338.354L304.874 325.427" stroke="#263238" stroke-linecap="round" stroke-linejoin="round"/>
<path d="M343.304 370.875C340.614 371.839 338.031 373.081 335.598 374.581C333.338 376.287 333.033 377.722 333.033 380.287C333.033 382.852 327.892 386.276 330.468 386.276C333.044 386.276 334.988 385.417 337.316 381.146C339.643 376.875 342.446 375.609 342.446 375.609C342.623 377.675 343.002 379.719 343.576 381.711C344.373 383.412 344.479 385.357 343.869 387.135C343.293 389.395 346.129 388.852 347 382.615C347.46 378.634 346.872 374.603 345.293 370.92L343.304 370.875Z" fill="white" stroke="#263238" stroke-linecap="round" stroke-linejoin="round"/>
<path d="M342.74 364.004C342.74 364.004 343.587 368.818 343.305 369.914C343.022 371.01 339.022 374.072 337.598 376.694C337.029 377.761 336.685 378.933 336.588 380.138C336.491 381.343 336.642 382.556 337.033 383.7C337.598 385.451 339.293 391.135 340.163 389.61C341.033 388.084 341.293 386.321 341.293 383.044C341.293 379.767 340.728 376.909 342.423 375.598L344.141 374.287C344.969 376.199 345.638 378.175 346.141 380.197C347.271 384.355 345.282 387.858 345.847 388.514C346.412 389.169 348.706 388.728 348.988 386.977C349.271 385.225 350.412 383.259 350.412 379.756C350.394 377.62 349.754 375.535 348.57 373.756C348.037 372.281 347.606 370.771 347.282 369.236C346.774 366.592 345.022 361.597 342.74 364.004Z" fill="white" stroke="#263238" stroke-linecap="round" stroke-linejoin="round"/>
<path d="M351.576 356.32C352.816 358.415 353.947 360.573 354.966 362.784C355.678 364.705 356.164 366.863 354.966 367.304C353.768 367.745 352.808 364.434 352.085 362.999C351.361 361.564 348.943 355.36 351.576 356.32Z" fill="#81C784" stroke="#263238" stroke-linecap="round" stroke-linejoin="round"/>
<path d="M351.576 356.32C350.141 353.213 341.994 348.411 339.835 347.224C338.332 346.377 333.53 346.252 330.795 346.241C330.14 346.139 329.473 346.139 328.818 346.241C328.818 346.241 324.987 349.111 325.225 352.23C325.313 353.119 325.694 353.954 326.308 354.604C326.921 355.254 327.732 355.683 328.615 355.823H329.745C329.561 356.986 329.764 358.176 330.321 359.213C332.231 362.163 333.395 365.533 333.711 369.033C333.711 372.151 337.304 370.954 337.779 368.558C338.253 366.163 337.067 361.857 337.067 360.897C337.067 359.936 338.977 357.303 338.977 357.303C338.977 357.303 344.254 362.806 344.965 364.004C345.677 365.202 345.926 371.428 347.847 371.914C349.768 372.4 349.757 368.524 349.757 368.524C350.153 368.557 350.553 368.507 350.93 368.378C351.306 368.248 351.652 368.042 351.945 367.773C352.238 367.503 352.472 367.176 352.632 366.811C352.792 366.446 352.875 366.052 352.875 365.654C353.272 362.483 352.823 359.263 351.576 356.32Z" fill="#81C784" stroke="#263238" stroke-linecap="round" stroke-linejoin="round"/>
<path d="M346.31 357.044C346.31 357.044 349.892 359.191 349.892 361.349C349.892 363.507 349.655 368.535 349.655 368.535" stroke="#263238" stroke-linecap="round" stroke-linejoin="round"/>
<path d="M308.467 433.261C308.467 436.651 310.377 437.091 302.953 441.645C295.529 446.199 284.274 443.08 273.257 440.685C262.24 438.289 249.064 436.368 244.036 436.368C239.007 436.368 226.996 438.233 222.476 438.233C217.956 438.233 210.509 437.758 211.47 435.362C212.43 432.967 224.634 429.125 225.595 428.176C226.555 427.227 226.318 425.294 228.713 421.701C229.255 420.716 230.132 419.957 231.185 419.563C232.239 419.169 233.398 419.166 234.454 419.554C238.684 423.43 243.94 426.007 249.595 426.978C258.635 428.413 275.212 429.125 281.687 429.125C288.161 429.125 296.297 432.006 297.009 432.006" fill="#696969"/>
<path d="M308.467 433.261C308.467 436.651 310.377 437.091 302.953 441.645C295.529 446.199 284.274 443.08 273.257 440.685C262.24 438.289 249.064 436.368 244.036 436.368C239.007 436.368 226.996 438.233 222.476 438.233C217.956 438.233 210.509 437.758 211.47 435.362C212.43 432.967 224.634 429.125 225.595 428.176C226.555 427.227 226.318 425.294 228.713 421.701C229.255 420.716 230.132 419.957 231.185 419.563C232.239 419.169 233.398 419.166 234.454 419.554C238.684 423.43 243.94 426.007 249.595 426.978C258.635 428.413 275.212 429.125 281.687 429.125C288.161 429.125 296.297 432.006 297.009 432.006" stroke="#263238" stroke-linecap="round" stroke-linejoin="round"/>
<path d="M249.595 426.978C243.957 425.999 238.717 423.422 234.499 419.554C233.443 419.166 232.284 419.169 231.231 419.563C230.178 419.957 229.3 420.716 228.759 421.701C226.363 425.294 226.6 427.215 225.64 428.176C224.679 429.136 212.464 432.967 211.515 435.362C210.566 437.758 217.956 438.233 222.476 438.233C226.996 438.233 239.007 436.312 244.036 436.312C246.648 436.384 249.255 436.599 251.844 436.956C251.844 436.741 251.754 436.526 251.697 436.312C250.997 433.328 253.008 429.43 254.127 427.577C252.466 427.396 250.917 427.193 249.595 426.978Z" fill="white" stroke="#263238" stroke-linecap="round" stroke-linejoin="round"/>
<path d="M234.454 419.554C233.398 419.166 232.239 419.169 231.185 419.563C230.132 419.957 229.255 420.716 228.713 421.701C226.318 425.294 226.555 427.215 225.595 428.176C224.634 429.136 212.419 432.967 211.47 435.362C211.119 436.21 211.843 436.809 213.108 437.238C215.922 434.221 224.86 431.713 227.357 429.893C229.855 428.074 227.99 427.453 230.623 423.859C231.279 423.02 232.095 422.32 233.024 421.8C233.954 421.28 234.977 420.951 236.036 420.831C234.996 420.085 234.454 419.554 234.454 419.554Z" stroke="#263238" stroke-linecap="round" stroke-linejoin="round"/>
<path d="M256.488 318.003C256.488 318.003 246.669 321.833 244.759 329.732C242.849 337.631 246.431 386.739 246.431 387.937C246.431 389.135 252.895 390.333 262.963 391.327C273.031 392.322 291.698 392.525 291.698 392.525C291.698 392.525 299.846 396.107 301.518 396.107C303.19 396.107 306.784 393.96 306.784 393.96C306.784 393.96 306.309 396.107 308.219 395.632C310.128 395.158 316.603 389.881 316.603 388.932C316.603 387.982 312.298 383.417 309.665 382.943C307.032 382.468 295.292 387.011 294.094 387.011C292.896 387.011 272.059 382.491 268.229 380.784C265.183 379.549 262.061 378.507 258.884 377.666L260.567 336.241" fill="white"/>
<path d="M256.488 318.003C256.488 318.003 246.669 321.833 244.759 329.732C242.849 337.631 246.431 386.739 246.431 387.937C246.431 389.135 252.895 390.333 262.963 391.327C273.031 392.322 291.698 392.525 291.698 392.525C291.698 392.525 299.846 396.107 301.518 396.107C303.19 396.107 306.784 393.96 306.784 393.96C306.784 393.96 306.309 396.107 308.219 395.632C310.128 395.158 316.603 389.881 316.603 388.932C316.603 387.982 312.298 383.417 309.665 382.943C307.032 382.468 295.292 387.011 294.094 387.011C292.896 387.011 272.059 382.491 268.229 380.784C265.183 379.549 262.061 378.507 258.884 377.666L260.567 336.241" stroke="#263238" stroke-linecap="round" stroke-linejoin="round"/>
<path d="M309.665 382.909C307.021 382.423 295.292 386.977 294.094 386.977C292.896 386.977 272.059 382.457 268.229 380.751C265.183 379.515 262.061 378.473 258.884 377.632L259.799 354.931L244.556 354.343C245.2 370.038 246.431 387.237 246.431 387.937C246.431 389.135 252.895 390.333 262.963 391.327C273.031 392.322 291.698 392.525 291.698 392.525C291.698 392.525 299.846 396.107 301.518 396.107C303.19 396.107 306.784 393.96 306.784 393.96C306.784 393.96 306.309 396.107 308.219 395.632C310.128 395.158 316.603 389.881 316.603 388.932C316.603 387.982 312.298 383.383 309.665 382.909Z" fill="white" stroke="#263238" stroke-linecap="round" stroke-linejoin="round"/>
<path d="M316.603 388.898C316.603 387.937 312.298 383.383 309.665 382.909C307.032 382.434 295.292 386.977 294.094 386.977C293.721 386.977 291.438 386.536 288.354 385.847C287.224 386.977 286.15 388.92 286.512 392.355L291.698 392.457C291.698 392.457 299.846 396.039 301.518 396.039C303.19 396.039 306.784 393.892 306.784 393.892C306.784 393.892 306.309 396.039 308.219 395.565C310.128 395.09 316.603 389.847 316.603 388.898Z" fill="#81C784" stroke="#263238" stroke-linecap="round" stroke-linejoin="round"/>
<path d="M264.398 271.052C264.398 271.052 255.29 263.877 251.697 266.272C248.104 268.668 233.018 287.821 231.583 293.087C230.148 298.353 238.047 299.562 235.177 303.867C232.307 308.172 226.792 309.856 228.951 315.167C231.109 320.478 239.731 320.918 241.64 322.116C243.55 323.314 246.669 327.868 253.618 325.947C260.567 324.026 259.121 315.167 264.398 313.969C269.675 312.771 269.189 305.596 266.794 299.844C264.398 294.092 262.963 286.194 265.833 282.601C268.703 279.007 264.398 271.052 264.398 271.052Z" fill="#263238" stroke="#263238" stroke-linecap="round" stroke-linejoin="round"/>
<path d="M269.709 266.125C269.709 266.125 262.364 266.544 258.895 275.719C255.426 284.894 258.895 298.567 259.912 300.816C260.929 303.065 266.24 305.336 269.506 303.46C272.771 301.584 277.257 294.488 280.512 292.646C283.766 290.804 290.308 283.064 290.308 283.064L294.998 288.974C294.998 288.974 298.06 288.567 299.28 282.657C300.501 276.747 296.026 270.419 288.681 266.747C281.336 263.075 273.381 263.278 269.709 266.125Z" fill="#263238" stroke="#263238" stroke-linecap="round" stroke-linejoin="round"/>
<path d="M268.703 307.46C268.703 307.46 268.941 314.647 270.624 317.766C272.308 320.884 276.613 334.715 282.116 335.246C287.619 335.777 287.382 315.845 287.382 315.845C287.382 315.845 280.918 316.082 277.088 312.014C273.257 307.946 269.189 305.573 268.703 307.46Z" stroke="#263238" stroke-linecap="round" stroke-linejoin="round"/>
<path d="M291.122 277.143C291.122 277.143 282.557 287.143 275.822 291.426C269.087 295.708 266.036 296.319 266.036 296.319C266.036 296.319 268.681 295.912 266.85 297.754C265.019 299.595 264.59 300.014 263.584 298.364C262.579 296.714 258.488 295.098 257.663 299.177C257.313 300.88 257.574 302.652 258.4 304.181C259.227 305.711 260.567 306.9 262.183 307.539C263.924 308.272 265.857 308.415 267.686 307.946C267.686 307.946 268.296 314.884 276.455 318.963C284.613 323.043 292.173 317.336 294.41 313.054C296.648 308.771 295.845 289.392 295.427 286.126C295.009 282.86 291.122 277.143 291.122 277.143Z" fill="white" stroke="#263238" stroke-linecap="round" stroke-linejoin="round"/>
<path d="M289.065 296.443C289.065 296.443 288.58 300.273 289.303 300.511C290.026 300.748 292.693 301.709 291.698 303.155C290.704 304.601 289.303 305.55 287.63 304.827" stroke="#263238" stroke-linecap="round" stroke-linejoin="round"/>
<path d="M278.286 308.183C278.286 308.183 280.207 311.291 287.631 309.618" stroke="#263238" stroke-linecap="round" stroke-linejoin="round"/>
<path d="M282.602 298.002C282.602 299.132 282.06 300.036 281.404 300.036C280.749 300.036 280.207 299.121 280.207 298.002C280.207 296.884 280.738 295.968 281.404 295.968C282.071 295.968 282.602 296.872 282.602 298.002Z" fill="#263238"/>
<path d="M292.896 296.804C292.896 297.934 292.365 298.838 291.698 298.838C291.032 298.838 290.5 297.923 290.5 296.804C290.5 295.686 291.032 294.77 291.698 294.77C292.365 294.77 292.896 295.674 292.896 296.804Z" fill="#263238"/>
<path d="M277.845 294.273C278.498 293.47 279.349 292.85 280.313 292.474C281.278 292.098 282.323 291.978 283.348 292.126" stroke="#263238" stroke-linecap="round" stroke-linejoin="round"/>
<path d="M289.303 291.889C289.303 291.889 290.738 288.782 293.823 290.94" stroke="#263238" stroke-linecap="round" stroke-linejoin="round"/>
<path d="M368.989 376.005C368.989 376.005 345.87 383.429 339.61 385.711C333.349 387.994 312.784 388.276 311.36 390.559C309.936 392.841 299.699 405.746 297.699 413.158C295.699 420.571 298.354 440.651 300.264 441.905C307.936 446.979 328.118 445.419 336.66 445.092C352.288 444.515 367.418 450.154 376.21 434.244C379.057 429.102 374.944 411.102 374.379 405.113C373.814 399.124 371.803 389.135 371.52 387.7C371.238 386.265 373.272 377.146 368.989 376.005Z" fill="white" stroke="#263238" stroke-linecap="round" stroke-linejoin="round"/>
<path d="M340.073 405.011C352.299 400.695 362.729 388.062 365.972 385.937C369.215 383.813 370.989 379.157 370.989 379.157C365.867 382.608 360.308 385.36 354.457 387.338" stroke="#263238" stroke-linecap="round" stroke-linejoin="round"/>
<path d="M370.65 381.214C368.338 388.352 364.252 394.787 358.774 399.915" stroke="#263238" stroke-linecap="round" stroke-linejoin="round"/>
<path d="M315.97 391.282C315.97 391.282 319.564 393.079 331.79 393.079" stroke="#263238" stroke-linecap="round" stroke-linejoin="round"/>
<path d="M314.524 391.644C314.524 391.644 317.405 404.232 333.598 409.271" stroke="#263238" stroke-linecap="round" stroke-linejoin="round"/>
<path d="M311.654 395.971C314.109 400.302 317.41 404.095 321.36 407.124" stroke="#263238" stroke-linecap="round" stroke-linejoin="round"/>
<path d="M84.5506 335.823C84.5506 335.823 90.935 354.027 90.935 361.371C90.935 368.716 96.0425 408.955 96.6753 413.43C97.0993 416.209 97.9653 418.902 99.2404 421.407C103.602 425.438 108.556 428.777 113.93 431.306C123.185 435.826 122.868 434.504 121.275 436.413C119.682 438.323 104.981 438.673 98.2799 438.018C91.5791 437.362 84.867 439.611 84.5506 436.741C84.2342 433.871 84.2229 422.368 84.2229 417.26C84.2229 412.153 70.8101 386.932 69.2168 378.931C67.6236 370.931 68.2563 358.501 68.2563 358.501L60.2787 339.292L84.5506 335.823Z" fill="white" stroke="#263238" stroke-linecap="round" stroke-linejoin="round"/>
<path d="M97.0482 424.605V429.125L84.302 426.673C84.302 430.989 84.415 435.204 84.5958 436.843C84.9122 439.713 91.613 437.475 98.325 438.12C105.037 438.764 119.716 438.436 121.32 436.515C122.925 434.594 123.23 435.882 113.975 431.407C108.604 428.874 103.651 425.536 99.2855 421.509C99.2855 421.509 97.0482 421.724 97.0482 424.605Z" fill="#263238" stroke="#263238" stroke-linecap="round" stroke-linejoin="round"/>
<path d="M58.3577 337.744C58.3577 337.744 59.2843 357.755 56.0977 365.846C40.1311 406.717 39.4983 422.051 39.4983 422.051C39.4983 422.051 55.4875 434.176 59.0018 435.521C62.516 436.865 64.4257 437.43 62.1883 439.024C59.951 440.617 39.8373 440.3 36.3231 440.3C32.8089 440.3 24.1871 437.747 23.2379 436.153C22.2887 434.56 25.4979 421.78 25.4979 421.78C25.4979 421.78 27.1025 389.847 27.1025 382.502C27.1025 375.157 35.0801 360.795 35.0801 358.23C35.0801 355.665 33.4868 336.523 33.4868 336.523C33.4868 336.523 52.6174 341.258 58.3577 337.744Z" fill="white" stroke="#263238" stroke-linecap="round" stroke-linejoin="round"/>
<path d="M62.1883 438.967C64.4483 437.374 62.516 436.707 59.0018 435.464C55.4875 434.221 39.5209 422.051 39.5209 422.051C39.5209 422.051 37.9276 422.684 37.9276 425.238C37.9996 426.582 37.6649 427.917 36.9672 429.068C36.9672 429.068 31.8597 428.119 25.7917 426.808C25.2832 426.707 24.8199 426.605 24.3679 426.492C23.543 430.3 22.6729 435.136 23.2379 436.074C24.1871 437.668 32.8088 440.221 36.3231 440.221C39.8373 440.221 59.9622 440.572 62.1883 438.967Z" fill="#263238" stroke="#263238" stroke-linecap="round" stroke-linejoin="round"/>
<path d="M84.867 241.616L96.6753 258.86L145.536 251.843V261.097C145.536 261.097 97.0482 274.51 95.082 272.917C93.1159 271.323 76.8781 263.651 76.8781 263.651L84.867 241.616Z" fill="#B5B5B5" stroke="#263238" stroke-linecap="round" stroke-linejoin="round"/>
<path d="M41.1142 218.949C41.1142 218.949 37.6 239.39 37.6 247.684V277.064C37.6 277.064 27.4302 293.358 25.7917 307.72C24.1532 322.082 23.8707 338.06 23.8707 338.06C23.8707 338.06 39.2045 344.772 51.6569 343.812C59.0664 343.246 66.4285 342.174 73.6915 340.602L91.2514 336.455L78.1549 277.064C78.1549 277.064 84.5506 260.114 85.4998 259.187C86.4489 258.261 90.0197 246.758 88.6976 238.102C87.3755 229.446 82.6296 211.604 72.731 206.813C62.8324 202.022 45.5889 207.773 41.1142 218.949Z" fill="#5E5E5E" stroke="#263238" stroke-linecap="round" stroke-linejoin="round"/>
<path d="M55.6683 277.324C54.976 282.532 52.7855 287.427 49.363 291.414C43.7131 297.934 39.0576 299.189 39.0576 299.189C39.0576 299.189 36.3231 325.732 37.374 336.082" stroke="#263238" stroke-linecap="round" stroke-linejoin="round"/>
<path d="M58.629 278.205C58.0618 283.101 56.4842 287.826 53.9961 292.081C49.9959 298.601 41.5663 300.918 41.5663 300.918" stroke="#263238" stroke-linecap="round" stroke-linejoin="round"/>
<path d="M78.4826 216.712C76.8103 211.005 71.9627 207.242 69.5897 205.694C62.2109 203.875 52.4931 206.451 46.2556 211.932C46.1426 212.61 46.0636 213.22 45.9054 213.841C45.589 215.118 40.7979 242.893 40.7979 242.893C40.7979 242.893 41.9278 243.119 43.6906 243.436C41.9278 252.419 43.9053 267.402 43.9053 267.402C43.9053 267.402 53.3406 270.442 60.6403 270.137C67.9399 269.832 76.46 265.617 76.46 265.617C76.46 263.052 78.5956 250.181 79.6013 244.26H80.0759C80.0759 244.26 80.7087 224.373 78.4826 216.712Z" fill="white" stroke="#263238" stroke-linecap="round" stroke-linejoin="round"/>
<path d="M65.2054 241.243C65.2054 241.243 53.9056 252.543 48.1653 254.317L65.2054 241.243Z" fill="white"/>
<path d="M65.2054 241.243C65.2054 241.243 53.9056 252.543 48.1653 254.317" stroke="#263238" stroke-linecap="round" stroke-linejoin="round"/>
<path d="M65.2054 247.018C65.2054 247.018 58.8098 252.803 53.6458 257.063L65.2054 247.018Z" fill="white"/>
<path d="M65.2054 247.018C65.2054 247.018 58.8098 252.803 53.6458 257.063" stroke="#263238" stroke-linecap="round" stroke-linejoin="round"/>
<path d="M89.8163 329.947C84.1653 332.962 77.8594 334.542 71.4541 334.546C71.4541 334.546 61.8719 338.704 46.8658 338.06C38.8601 337.626 31.0652 335.335 24.0967 331.37C23.9272 335.438 23.8707 338.06 23.8707 338.06C23.8707 338.06 39.2045 344.772 51.6569 343.812C59.0664 343.246 66.4285 342.174 73.6915 340.602L91.2514 336.455L89.8163 329.947Z" fill="white" stroke="#263238" stroke-linecap="round" stroke-linejoin="round"/>
<path d="M71.7706 341.258L72.4147 306.443" stroke="#263238" stroke-linecap="round" stroke-linejoin="round"/>
<path d="M103.387 174.563V182.857C103.387 182.857 107.534 186.055 104.981 188.293C103.954 189.327 102.767 190.189 101.466 190.846C101.466 190.846 99.8731 198.191 96.3588 201.705C92.8446 205.22 90.9349 204.575 85.8274 201.061C80.7199 197.547 77.5221 195.321 77.5221 195.321C77.5221 195.321 80.7086 179.671 82.946 174.563C85.1833 169.456 92.2118 168.812 95.7261 169.444C99.2403 170.077 103.387 174.563 103.387 174.563Z" fill="white" stroke="#263238" stroke-linecap="round" stroke-linejoin="round"/>
<path d="M99.8957 182.236C99.8957 183.196 99.4663 183.976 98.9465 183.976C98.4267 183.976 97.9973 183.196 97.9973 182.236C97.9973 181.275 98.4154 180.484 98.9465 180.484C99.4776 180.484 99.8957 181.275 99.8957 182.236Z" fill="#263238"/>
<path d="M96.8787 178.111C96.8787 178.111 98.6301 175.264 101.003 177.637" stroke="#263238" stroke-linecap="round" stroke-linejoin="round"/>
<path d="M94.5059 191.445C95.5555 192.513 96.9756 193.136 98.4721 193.185" stroke="#263238" stroke-linecap="round" stroke-linejoin="round"/>
<path d="M89.1383 171.874C89.1383 171.874 82.4263 187.965 82.7653 195.683C83.1043 203.4 91.8051 225.537 88.1327 232.915C84.4602 240.294 76.7086 245.684 71.0587 236.938C65.4088 228.192 63.3409 225.537 59.6572 230.893C55.9735 236.249 51.6117 245.989 43.2273 245.989C34.8429 245.989 24.7295 234.927 29.7579 223.186C34.7864 211.446 46.1991 206.417 53.2389 195.016C58.4076 186.914 62.0461 177.933 63.9737 168.518L89.7937 169.524L89.1383 171.874Z" fill="#263238" stroke="#263238" stroke-linecap="round" stroke-linejoin="round"/>
<path d="M63.2956 173.546H103.545C103.545 173.546 103.545 156.438 100.156 153.76C96.7656 151.082 70.3128 151.749 67.2958 153.76C64.2787 155.772 62.0188 171.535 63.2956 173.546Z" fill="#81C784" stroke="#263238" stroke-linecap="round" stroke-linejoin="round"/>
<path d="M90.6863 173.366C90.6863 173.366 100.076 177.049 108.461 177.049C116.845 177.049 121.207 173.366 121.207 173.366H90.6863Z" fill="#81C784" stroke="#263238" stroke-linecap="round" stroke-linejoin="round"/>
<path d="M156.711 250.204C156.711 250.204 160.225 249.571 160.225 252.125C160.225 254.679 156.078 254.385 152.564 253.085C149.05 251.786 153.841 250.882 156.711 250.204Z" fill="#B5B5B5" stroke="#263238" stroke-linecap="round" stroke-linejoin="round"/>
<path d="M157.355 253.436C157.355 253.436 160.869 252.792 160.869 255.357C160.869 257.922 156.711 257.617 153.208 256.306C149.705 254.995 154.485 254.08 157.355 253.436Z" fill="#B5B5B5" stroke="#263238" stroke-linecap="round" stroke-linejoin="round"/>
<path d="M157.999 256.634C157.999 256.634 161.502 255.99 161.502 258.543C161.502 261.097 157.355 260.803 153.841 259.504C150.327 258.204 155.118 257.266 157.999 256.634Z" fill="#B5B5B5" stroke="#263238" stroke-linecap="round" stroke-linejoin="round"/>
<path d="M157.367 259.899C157.367 259.899 160.881 259.255 160.881 261.809C160.881 264.363 156.722 264.069 153.22 262.769C149.717 261.47 154.496 260.532 157.367 259.899Z" fill="#B5B5B5" stroke="#263238" stroke-linecap="round" stroke-linejoin="round"/>
<path d="M142.021 253.436C142.021 253.436 122.224 296.861 122.224 299.765C122.224 302.669 122.224 310.296 124.145 314.771C126.066 319.246 137.558 327.54 142.665 328.5C147.773 329.461 169.491 324.353 172.045 323.709C174.599 323.065 181.311 305.189 180.983 301.675C180.655 298.16 172.361 284.725 171.084 282.521C169.808 280.318 159.276 265.911 157.999 263.312C156.722 260.713 152.88 254.057 152.88 254.057L142.021 253.436Z" fill="white" stroke="#263238" stroke-linecap="round" stroke-linejoin="round"/>
<path d="M145.535 261.097L142.982 279.945" stroke="#263238" stroke-linecap="round" stroke-linejoin="round"/>
<path d="M150.01 258.86V283.776" stroke="#263238" stroke-linecap="round" stroke-linejoin="round"/>
<path d="M153.208 256.306L162.146 284.409" stroke="#263238" stroke-linecap="round" stroke-linejoin="round"/>
<path d="M90.2683 255.99C90.2683 255.99 74.6294 216.44 70.471 214.474C66.3127 212.508 53.8942 212.915 55.1711 227.605C56.448 242.294 81.0363 272.951 84.2229 273.267C87.4094 273.583 137.558 256.984 137.558 256.984C137.558 256.984 154.508 259.244 155.762 257.3C157.016 255.357 157.355 248.362 157.355 248.362C157.355 248.362 159.615 243.571 157.355 241.978C155.095 240.385 144.925 241.334 143.309 241.334C141.694 241.334 134.044 248.995 134.044 248.995L90.2683 255.99Z" fill="white" stroke="#263238" stroke-linecap="round" stroke-linejoin="round"/>
<path d="M155.807 257.266C157.084 255.357 157.401 248.328 157.401 248.328C157.401 248.328 159.66 243.537 157.401 241.944C155.141 240.351 144.971 241.3 143.355 241.3C141.739 241.3 134.089 248.961 134.089 248.961L125.784 250.294L127.196 260.363C133.332 258.363 137.603 256.973 137.603 256.973C137.603 256.973 154.485 259.244 155.807 257.266Z" fill="#81C784" stroke="#263238" stroke-linecap="round" stroke-linejoin="round"/>
<path d="M161.502 237.469L179.706 247.051L176.192 253.436L161.502 237.469Z" fill="white" stroke="#263238" stroke-linecap="round" stroke-linejoin="round"/>
<path d="M146.496 240.667L149.05 233.955C149.05 233.955 150.971 232.995 157.999 234.915C165.028 236.836 178.746 256.306 178.746 256.306C178.746 256.306 168.847 263.334 167.254 263.651C165.661 263.967 159.909 246.701 159.276 245.13C158.77 243.993 158.124 242.923 157.355 241.944L146.496 240.667Z" fill="white" stroke="#263238" stroke-linecap="round" stroke-linejoin="round"/>
<path d="M157.355 241.944L151.705 238.271" stroke="#263238" stroke-linecap="round" stroke-linejoin="round"/>
<path d="M195.029 312.489H114.484V438.707H195.029V312.489Z" fill="#81C784" stroke="#263238" stroke-linecap="round" stroke-linejoin="round"/>
<path d="M194.837 355.292H114.676C114.107 355.292 113.561 355.066 113.158 354.663C112.755 354.261 112.529 353.715 112.529 353.145C112.529 352.576 112.755 352.03 113.158 351.627C113.561 351.224 114.107 350.998 114.676 350.998H194.837C195.406 350.998 195.952 351.224 196.355 351.627C196.757 352.03 196.984 352.576 196.984 353.145C196.984 353.715 196.757 354.261 196.355 354.663C195.952 355.066 195.406 355.292 194.837 355.292Z" fill="#81C784" stroke="#263238" stroke-linecap="round" stroke-linejoin="round"/>
<path d="M194.837 314.387H114.676C114.107 314.387 113.561 314.161 113.158 313.758C112.755 313.355 112.529 312.809 112.529 312.24C112.529 311.671 112.755 311.124 113.158 310.722C113.561 310.319 114.107 310.093 114.676 310.093H194.837C195.406 310.093 195.952 310.319 196.355 310.722C196.757 311.124 196.984 311.671 196.984 312.24C196.984 312.809 196.757 313.355 196.355 313.758C195.952 314.161 195.406 314.387 194.837 314.387Z" fill="#81C784" stroke="#263238" stroke-linecap="round" stroke-linejoin="round"/>
<path d="M194.837 398.051H114.676C114.107 398.051 113.561 397.824 113.158 397.422C112.755 397.019 112.529 396.473 112.529 395.904C112.529 395.334 112.755 394.788 113.158 394.385C113.561 393.983 114.107 393.757 114.676 393.757H194.837C195.406 393.757 195.952 393.983 196.355 394.385C196.757 394.788 196.984 395.334 196.984 395.904C196.984 396.473 196.757 397.019 196.355 397.422C195.952 397.824 195.406 398.051 194.837 398.051Z" fill="#81C784" stroke="#263238" stroke-linecap="round" stroke-linejoin="round"/>
</svg>
