<svg width="86" height="86" viewBox="0 0 86 86" fill="none" xmlns="http://www.w3.org/2000/svg">
<path fill-rule="evenodd" clip-rule="evenodd" d="M51.7246 85.1144C71.2898 81.0822 86 63.759 86 43C86 19.2518 66.7482 0 43 0C19.2518 0 0 19.2518 0 43C0 62.7547 13.3214 79.398 31.471 84.4369V77.3241L31.4566 77.3167V73.0885L31.4928 73.1054V73.0765C26.4674 70.7087 22.9882 65.5987 22.9882 59.6793V30.5173C22.9882 28.6811 24.4862 27.1952 26.3345 27.1952C28.1828 27.1952 29.6324 28.6811 29.6324 30.5173V42.9118C29.9828 44.1319 31.9277 43.999 31.9277 42.489C31.9277 42.4286 31.9277 42.3923 31.9398 42.3682V25.057C31.9398 23.2208 33.4378 21.7349 35.2861 21.7349C37.1343 21.7349 38.584 23.2208 38.584 25.057V42.646C38.7169 43.9749 40.5289 44.0232 40.7826 42.791V22.653C40.7826 20.8047 42.2806 19.3188 44.1289 19.3188C45.9772 19.3188 47.4268 20.8168 47.4268 22.653V42.7306C47.7771 44.0232 49.8066 43.8903 49.8066 42.3199V25.4919C49.8066 23.6557 51.3046 22.1577 53.1529 22.1577C55.0012 22.1577 56.4508 23.6557 56.4508 25.4919V53.8566C56.9214 53.3457 57.3358 52.9994 57.8024 52.6096L57.8024 52.6096C58.1743 52.2988 58.5793 51.9604 59.0723 51.4888C65.0521 45.7386 67.9634 47.3574 69.2802 48.5292C70.5969 49.701 70.2829 51.7667 68.9903 53.0593C63.4314 57.8698 60.0483 65.0075 58.2801 68.738L58.2798 68.7388L58.2789 68.7407C58.0494 69.2248 57.8472 69.6514 57.671 70.008C57.5985 70.1651 57.526 70.3101 57.4414 70.455C57.2844 70.7691 57.1515 70.9865 57.0428 71.1074C57.0187 71.1556 56.9825 71.2039 56.9463 71.2522L56.9461 71.2523C56.9341 71.2765 56.922 71.3006 56.8978 71.3248C55.6846 72.9696 53.8405 74.1188 51.7246 74.4242V85.1144Z" fill="#81C784"/>
<path d="M41.5199 69.0873L40.0233 67.7248C34.7077 62.9047 31.1984 59.7153 31.1984 55.8241C31.1984 52.6347 33.6962 50.1472 36.8752 50.1472C38.6712 50.1472 40.3949 50.9833 41.5199 52.2941C42.645 50.9833 44.3687 50.1472 46.1646 50.1472C49.3437 50.1472 51.8415 52.6347 51.8415 55.8241C51.8415 59.7153 48.3322 62.9047 43.0165 67.7248L41.5199 69.0873Z" fill="#F07070"/>
</svg>
