<svg width="600" height="972" viewBox="0 0 600 972" fill="none" xmlns="http://www.w3.org/2000/svg">
<rect width="600" height="972" rx="20" fill="#81C784" fill-opacity="0.18"/>
<path d="M483.729 221.5H260.826C245.437 221.5 232.962 233.975 232.962 249.365V719.95C232.962 735.34 245.437 747.815 260.826 747.815H483.729C499.118 747.815 511.593 735.34 511.593 719.95V249.365C511.593 233.975 499.118 221.5 483.729 221.5Z" fill="#263238"/>
<path d="M499.202 279.294H245.338V690.021H499.202V279.294Z" fill="white" stroke="#263238" stroke-width="1.33739" stroke-miterlimit="10"/>
<path d="M411.187 445.609C432.676 424.12 432.676 389.279 411.187 367.79C389.698 346.301 354.857 346.301 333.368 367.79C311.878 389.279 311.878 424.12 333.368 445.609C354.857 467.099 389.698 467.099 411.187 445.609Z" fill="#92E3A9"/>
<path d="M444.52 664.193H300.049C299.724 664.194 299.401 664.132 299.101 664.009C298.8 663.886 298.526 663.704 298.295 663.475C298.065 663.246 297.882 662.973 297.757 662.673C297.632 662.373 297.568 662.051 297.568 661.726C297.566 661.4 297.629 661.076 297.753 660.774C297.877 660.472 298.06 660.198 298.29 659.967C298.521 659.737 298.795 659.554 299.097 659.43C299.399 659.306 299.723 659.243 300.049 659.245H444.52C444.845 659.245 445.167 659.309 445.467 659.434C445.768 659.559 446.04 659.742 446.27 659.972C446.499 660.203 446.68 660.477 446.803 660.778C446.926 661.078 446.989 661.401 446.987 661.726C446.987 662.38 446.727 663.008 446.264 663.47C445.802 663.933 445.174 664.193 444.52 664.193Z" fill="#92E3A9"/>
<path d="M449.224 492.66H295.331C292.155 492.66 289.58 495.234 289.58 498.411V516.552C289.58 519.728 292.155 522.303 295.331 522.303H449.224C452.4 522.303 454.975 519.728 454.975 516.552V498.411C454.975 495.234 452.4 492.66 449.224 492.66Z" fill="#92E3A9"/>
<path d="M449.224 548.102H295.331C292.155 548.102 289.58 550.677 289.58 553.853V571.994C289.58 575.17 292.155 577.745 295.331 577.745H449.224C452.4 577.745 454.975 575.17 454.975 571.994V553.853C454.975 550.677 452.4 548.102 449.224 548.102Z" fill="#92E3A9"/>
<path d="M399.676 434.148L383.485 424.827V417.126C385.829 414.289 387.527 410.976 388.461 407.417C389.018 407.615 389.605 407.717 390.196 407.718C392.204 407.718 393.48 401.494 393.696 397.048C396.033 392.101 392.849 389.204 392.849 389.204C392.849 389.204 394.169 387.884 395.044 382.593C395.918 377.301 391.96 379.509 388.877 374.662C385.794 369.815 383.585 364.537 373.46 364.537C370.671 364.445 367.918 365.195 365.56 366.689C363.201 368.182 361.347 370.351 360.238 372.912C357.718 372.921 355.206 373.215 352.752 373.787C349.654 374.662 348.78 384.801 351.418 388.773C352.6 390.944 353.23 393.372 353.254 395.844C352.551 394.983 351.82 394.754 351.418 396.704C350.543 401.107 354.071 407.273 354.071 407.273L355.893 406.757C356.81 410.561 358.581 414.107 361.07 417.126V424.827L344.879 434.148C342.988 435.24 341.417 436.81 340.325 438.7C339.233 440.591 338.657 442.735 338.655 444.919V450.253C348.284 457.692 360.109 461.728 372.277 461.728C384.446 461.728 396.27 457.692 405.9 450.253V444.919C405.901 442.735 405.326 440.589 404.233 438.698C403.141 436.807 401.569 435.238 399.676 434.148Z" fill="#263238"/>
<path d="M310.532 570.374C310.161 570.368 309.806 570.219 309.543 569.958C309.402 569.832 309.289 569.677 309.212 569.504C309.136 569.331 309.097 569.143 309.098 568.954C309.103 568.695 309.177 568.443 309.313 568.223L311.895 564.092L306.861 564.25C306.671 564.262 306.481 564.234 306.303 564.167C306.125 564.1 305.963 563.997 305.828 563.863C305.595 563.6 305.465 563.261 305.465 562.909C305.465 562.558 305.595 562.218 305.828 561.956C305.961 561.817 306.121 561.709 306.3 561.64C306.478 561.57 306.67 561.541 306.861 561.554L311.823 561.74L309.27 557.625C309.131 557.401 309.057 557.143 309.055 556.879C309.054 556.69 309.093 556.502 309.169 556.329C309.246 556.156 309.359 556.001 309.5 555.875C309.763 555.613 310.118 555.464 310.489 555.459C310.734 555.461 310.972 555.532 311.178 555.664C311.384 555.796 311.548 555.983 311.651 556.205L314.103 560.636L316.527 556.234C316.642 555.999 316.819 555.8 317.039 555.658C317.259 555.517 317.513 555.438 317.774 555.43C317.956 555.431 318.135 555.47 318.3 555.544C318.466 555.618 318.614 555.726 318.735 555.861C318.998 556.134 319.143 556.5 319.137 556.879C319.136 557.125 319.072 557.367 318.95 557.582L316.355 561.74L321.388 561.554C321.579 561.541 321.771 561.57 321.949 561.64C322.128 561.709 322.289 561.817 322.421 561.956C322.665 562.209 322.799 562.55 322.794 562.902C322.793 563.258 322.66 563.6 322.421 563.863C322.286 563.997 322.124 564.1 321.946 564.167C321.768 564.234 321.578 564.262 321.388 564.25L316.326 564.092L318.85 568.18C318.991 568.408 319.066 568.671 319.065 568.94C319.065 569.32 318.914 569.685 318.645 569.954C318.376 570.223 318.011 570.374 317.631 570.374C317.385 570.371 317.146 570.295 316.942 570.158C316.738 570.02 316.579 569.826 316.484 569.599L314.089 565.297L311.708 569.599C311.603 569.824 311.437 570.016 311.229 570.152C311.022 570.289 310.781 570.366 310.532 570.374Z" fill="#263238"/>
<path d="M333.793 570.374C333.422 570.368 333.067 570.219 332.804 569.958C332.662 569.832 332.55 569.677 332.473 569.504C332.397 569.331 332.358 569.143 332.359 568.954C332.363 568.695 332.438 568.443 332.574 568.223L335.155 564.092L330.136 564.25C329.945 564.259 329.753 564.229 329.573 564.163C329.394 564.096 329.229 563.994 329.089 563.863C328.899 563.667 328.772 563.417 328.725 563.148C328.678 562.879 328.714 562.601 328.827 562.352C328.94 562.103 329.125 561.894 329.358 561.751C329.592 561.609 329.863 561.54 330.136 561.554L335.084 561.74L332.531 557.625C332.392 557.401 332.318 557.143 332.316 556.879C332.315 556.69 332.354 556.502 332.43 556.329C332.507 556.156 332.619 556.001 332.761 555.875C333.024 555.614 333.379 555.464 333.75 555.459C333.994 555.461 334.233 555.532 334.439 555.664C334.645 555.796 334.809 555.983 334.912 556.205L337.364 560.636L339.788 556.234C339.903 555.999 340.08 555.8 340.3 555.658C340.519 555.517 340.774 555.438 341.035 555.43C341.217 555.43 341.396 555.468 341.562 555.542C341.728 555.616 341.876 555.725 341.996 555.861C342.129 555.995 342.234 556.154 342.306 556.328C342.377 556.503 342.413 556.69 342.412 556.879C342.407 557.127 342.338 557.369 342.211 557.582L339.616 561.74L344.664 561.583C344.852 561.57 345.042 561.599 345.218 561.669C345.394 561.738 345.552 561.846 345.682 561.984C345.926 562.238 346.06 562.578 346.055 562.931C346.054 563.286 345.921 563.629 345.682 563.892C345.549 564.025 345.39 564.128 345.215 564.195C345.039 564.262 344.851 564.291 344.664 564.279L339.587 564.121L342.111 568.208C342.252 568.436 342.327 568.7 342.326 568.968C342.326 569.349 342.175 569.713 341.906 569.982C341.637 570.251 341.272 570.402 340.892 570.402C340.646 570.399 340.406 570.324 340.203 570.187C339.999 570.049 339.84 569.855 339.745 569.628L337.35 565.326L334.969 569.628C334.859 569.848 334.692 570.033 334.485 570.164C334.278 570.296 334.038 570.368 333.793 570.374Z" fill="#263238"/>
<path d="M357.068 570.374C356.692 570.372 356.332 570.223 356.065 569.958C355.924 569.832 355.811 569.677 355.734 569.504C355.658 569.331 355.619 569.143 355.62 568.954C355.624 568.695 355.699 568.443 355.835 568.223L358.417 564.092L353.397 564.25C353.127 564.261 352.86 564.191 352.629 564.049C352.399 563.908 352.216 563.7 352.103 563.454C351.991 563.208 351.955 562.934 351.999 562.667C352.043 562.4 352.165 562.153 352.35 561.956C352.486 561.817 352.649 561.71 352.83 561.641C353.011 561.572 353.204 561.542 353.397 561.554L358.345 561.74L355.792 557.625C355.653 557.401 355.579 557.143 355.577 556.879C355.582 556.691 355.623 556.505 355.699 556.333C355.776 556.16 355.885 556.005 356.022 555.875C356.289 555.61 356.649 555.461 357.025 555.459C357.267 555.463 357.503 555.536 357.706 555.667C357.909 555.799 358.071 555.986 358.173 556.205L360.625 560.636L363.049 556.234C363.164 555.999 363.341 555.8 363.561 555.658C363.781 555.517 364.035 555.438 364.296 555.43C364.478 555.43 364.658 555.468 364.823 555.542C364.989 555.616 365.137 555.725 365.257 555.861C365.39 555.995 365.495 556.154 365.567 556.328C365.638 556.503 365.674 556.69 365.673 556.879C365.668 557.127 365.599 557.369 365.472 557.582L362.877 561.74L367.925 561.554C368.11 561.535 368.298 561.557 368.474 561.617C368.651 561.677 368.813 561.774 368.948 561.902C369.084 562.029 369.191 562.185 369.262 562.357C369.333 562.53 369.366 562.716 369.359 562.902C369.362 563.256 369.234 563.598 369 563.863C368.865 563.997 368.703 564.1 368.525 564.167C368.347 564.234 368.157 564.262 367.968 564.25L362.905 564.092L365.415 568.18C365.556 568.408 365.631 568.671 365.63 568.94C365.626 569.128 365.584 569.314 365.508 569.486C365.431 569.658 365.322 569.814 365.186 569.944C365.061 570.078 364.91 570.185 364.742 570.259C364.575 570.333 364.394 570.372 364.21 570.374C363.966 570.37 363.729 570.294 363.528 570.156C363.326 570.019 363.17 569.825 363.077 569.599L360.668 565.297L358.287 569.599C358.18 569.832 358.008 570.029 357.792 570.166C357.576 570.303 357.325 570.375 357.068 570.374Z" fill="#263238"/>
<path d="M380.329 570.374C379.953 570.372 379.593 570.223 379.325 569.958C379.055 569.693 378.901 569.332 378.895 568.954C378.891 568.696 378.96 568.442 379.096 568.223L381.677 564.092L376.658 564.25C376.466 564.259 376.275 564.229 376.095 564.163C375.916 564.096 375.751 563.994 375.611 563.863C375.377 563.6 375.248 563.261 375.248 562.909C375.248 562.558 375.377 562.218 375.611 561.956C375.75 561.822 375.914 561.717 376.094 561.648C376.274 561.579 376.465 561.547 376.658 561.554L381.62 561.74L379.082 557.625C378.943 557.401 378.868 557.143 378.867 556.879C378.871 556.691 378.913 556.505 378.989 556.333C379.065 556.16 379.175 556.005 379.311 555.875C379.578 555.61 379.939 555.461 380.315 555.459C380.559 555.461 380.798 555.532 381.004 555.664C381.209 555.796 381.373 555.983 381.477 556.205L383.915 560.636L386.338 556.234C386.453 555.999 386.63 555.8 386.85 555.658C387.07 555.517 387.324 555.438 387.586 555.43C387.767 555.43 387.947 555.468 388.113 555.542C388.278 555.616 388.426 555.725 388.547 555.861C388.68 555.995 388.785 556.154 388.856 556.328C388.927 556.503 388.964 556.69 388.963 556.879C388.957 557.127 388.888 557.369 388.762 557.582L386.166 561.74L391.214 561.554C391.4 561.535 391.587 561.557 391.764 561.617C391.94 561.677 392.102 561.774 392.238 561.902C392.374 562.029 392.481 562.185 392.552 562.357C392.622 562.53 392.655 562.716 392.648 562.902C392.651 563.256 392.524 563.598 392.29 563.863C392.155 563.997 391.993 564.1 391.815 564.167C391.637 564.234 391.447 564.262 391.257 564.25L386.195 564.092L388.704 568.18C388.846 568.408 388.92 568.671 388.92 568.94C388.921 569.129 388.882 569.316 388.805 569.489C388.729 569.663 388.616 569.817 388.475 569.944C388.35 570.078 388.199 570.185 388.032 570.259C387.864 570.333 387.683 570.372 387.5 570.374C387.256 570.37 387.019 570.294 386.817 570.156C386.616 570.019 386.459 569.825 386.367 569.599L383.958 565.297L381.577 569.599C381.468 569.836 381.291 570.036 381.069 570.174C380.848 570.311 380.59 570.381 380.329 570.374Z" fill="#263238"/>
<path d="M403.591 570.374C403.215 570.372 402.854 570.223 402.587 569.958C402.365 569.733 402.223 569.441 402.185 569.127C402.146 568.813 402.212 568.495 402.372 568.223L404.939 564.092L399.92 564.25C399.728 564.259 399.537 564.229 399.357 564.163C399.177 564.096 399.013 563.994 398.873 563.863C398.639 563.6 398.51 563.261 398.51 562.909C398.51 562.558 398.639 562.218 398.873 561.956C399.011 561.822 399.176 561.717 399.355 561.648C399.535 561.579 399.727 561.547 399.92 561.554L404.882 561.74L402.329 557.625C402.19 557.401 402.116 557.143 402.114 556.879C402.119 556.501 402.274 556.14 402.544 555.875C402.811 555.61 403.172 555.461 403.548 555.459C403.792 555.461 404.031 555.532 404.237 555.664C404.442 555.796 404.606 555.983 404.71 556.205L407.148 560.636L409.571 556.234C409.686 555.999 409.863 555.8 410.083 555.658C410.303 555.517 410.557 555.438 410.819 555.43C411.003 555.429 411.184 555.467 411.352 555.541C411.52 555.616 411.671 555.724 411.794 555.861C412.057 556.134 412.202 556.5 412.196 556.879C412.19 557.127 412.121 557.369 411.995 557.582L409.399 561.74L414.447 561.554C414.633 561.535 414.82 561.557 414.997 561.617C415.173 561.677 415.335 561.774 415.471 561.902C415.607 562.029 415.714 562.185 415.785 562.357C415.855 562.53 415.888 562.716 415.881 562.902C415.884 563.256 415.757 563.598 415.523 563.863C415.388 563.997 415.226 564.1 415.048 564.167C414.87 564.234 414.68 564.262 414.49 564.25L409.428 564.092L411.937 568.18C412.079 568.408 412.153 568.671 412.153 568.94C412.154 569.129 412.115 569.316 412.038 569.489C411.962 569.663 411.849 569.817 411.708 569.944C411.583 570.078 411.432 570.185 411.265 570.259C411.097 570.333 410.916 570.372 410.733 570.374C410.489 570.37 410.252 570.294 410.05 570.156C409.849 570.019 409.692 569.825 409.6 569.599L407.191 565.297L404.81 569.599C404.703 569.832 404.531 570.029 404.314 570.166C404.098 570.303 403.847 570.375 403.591 570.374Z" fill="#263238"/>
<path d="M426.852 570.374C426.48 570.368 426.126 570.219 425.862 569.958C425.721 569.832 425.608 569.677 425.532 569.504C425.455 569.331 425.416 569.143 425.418 568.954C425.422 568.695 425.496 568.443 425.633 568.223L428.2 564.092L423.18 564.25C422.996 564.264 422.81 564.239 422.636 564.178C422.461 564.116 422.301 564.019 422.166 563.892C422.031 563.765 421.924 563.612 421.852 563.441C421.78 563.271 421.744 563.087 421.746 562.902C421.745 562.727 421.779 562.553 421.845 562.39C421.912 562.228 422.01 562.08 422.133 561.956C422.266 561.817 422.427 561.709 422.605 561.64C422.783 561.57 422.975 561.541 423.166 561.554L428.128 561.74L425.575 557.625C425.436 557.401 425.362 557.143 425.36 556.879C425.366 556.501 425.52 556.14 425.79 555.875C426.058 555.61 426.418 555.461 426.794 555.459C427.039 555.461 427.278 555.532 427.483 555.664C427.689 555.796 427.853 555.983 427.956 556.205L430.394 560.636L432.832 556.234C432.946 556.001 433.12 555.803 433.338 555.662C433.555 555.52 433.806 555.44 434.065 555.43C434.249 555.429 434.431 555.467 434.599 555.541C434.767 555.616 434.917 555.724 435.04 555.861C435.304 556.134 435.448 556.5 435.442 556.879C435.441 557.125 435.377 557.367 435.255 557.582L432.66 561.74L437.693 561.554C437.884 561.541 438.076 561.57 438.254 561.64C438.433 561.709 438.594 561.817 438.726 561.956C438.97 562.209 439.104 562.55 439.099 562.902C439.098 563.258 438.965 563.6 438.726 563.863C438.591 563.997 438.429 564.1 438.251 564.167C438.073 564.234 437.883 564.262 437.693 564.25L432.631 564.092L435.141 568.18C435.282 568.408 435.357 568.671 435.356 568.94C435.35 569.318 435.196 569.679 434.926 569.944C434.664 570.21 434.309 570.365 433.936 570.374C433.692 570.37 433.455 570.294 433.254 570.156C433.052 570.019 432.896 569.825 432.803 569.599L430.394 565.297L428.013 569.599C427.91 569.823 427.747 570.014 427.542 570.151C427.337 570.287 427.098 570.365 426.852 570.374Z" fill="#263238"/>
<g style="mix-blend-mode:multiply">
<path d="M499.202 279.839H245.338V295.743H499.202V279.839Z" fill="#92E3A9"/>
</g>
<path d="M399.877 250.541H344.664C343.668 250.541 342.712 250.145 342.007 249.44C341.303 248.735 340.907 247.78 340.907 246.783C340.907 245.787 341.303 244.831 342.007 244.126C342.712 243.422 343.668 243.026 344.664 243.026H399.877C400.873 243.026 401.829 243.422 402.534 244.126C403.238 244.831 403.634 245.787 403.634 246.783C403.634 247.78 403.238 248.735 402.534 249.44C401.829 250.145 400.873 250.541 399.877 250.541Z" fill="#92E3A9" stroke="#263238" stroke-width="1.33739" stroke-linecap="round" stroke-linejoin="round"/>
<path d="M387.328 713.224C387.331 710.245 386.45 707.332 384.796 704.853C383.143 702.375 380.791 700.442 378.039 699.301C375.287 698.159 372.258 697.86 369.336 698.441C366.413 699.021 363.729 700.456 361.622 702.562C359.516 704.669 358.081 707.354 357.501 710.276C356.92 713.198 357.219 716.227 358.361 718.979C359.502 721.731 361.435 724.083 363.913 725.736C366.392 727.39 369.305 728.271 372.284 728.268C376.273 728.264 380.097 726.678 382.918 723.858C385.738 721.037 387.324 717.213 387.328 713.224Z" fill="#92E3A9"/>
<path d="M379.914 705.595H364.655V720.854H379.914V705.595Z" fill="#92E3A9" stroke="#263238" stroke-width="1.33739" stroke-linecap="round" stroke-linejoin="round"/>
<path d="M177.85 439.44L130.625 424.024L126.423 412.924L116.829 412.623L99.4189 409.324L101.513 412.924L123.426 428.828L128.832 431.524L178.223 457.324L177.85 439.44Z" fill="white" stroke="#263238" stroke-width="1.00396" stroke-miterlimit="10"/>
<path d="M126.423 412.924L121.92 410.228L112.928 413.526L114.42 415.319L126.423 412.924Z" fill="white" stroke="#263238" stroke-width="1.00396" stroke-linejoin="round"/>
<path d="M177.85 439.44L130.625 424.024L126.423 412.924L116.829 412.623L99.4189 409.324L101.513 412.924L123.426 428.828L128.832 431.524L178.223 457.324L177.85 439.44Z" fill="white"/>
<mask id="mask0_49_1725" style="mask-type:luminance" maskUnits="userSpaceOnUse" x="99" y="409" width="80" height="49">
<path d="M177.85 439.44L130.625 424.024L126.423 412.924L116.829 412.623L99.4189 409.324L101.513 412.924L123.426 428.828L128.832 431.524L178.223 457.324L177.85 439.44Z" fill="white"/>
</mask>
<g mask="url(#mask0_49_1725)">
<path opacity="0.5" d="M177.85 439.44L130.625 424.024L126.423 412.924L116.829 412.623L99.4189 409.324L101.513 412.924L123.426 428.828L128.832 431.524L178.223 457.324L177.85 439.44Z" fill="#92E3A9" stroke="#263238" stroke-width="1.00396" stroke-miterlimit="10"/>
</g>
<path d="M177.85 439.44L130.625 424.024L126.423 412.924L116.829 412.623L99.4189 409.324L101.513 412.924L123.426 428.828L128.832 431.524L178.223 457.324L177.85 439.44Z" stroke="#263238" stroke-width="1.00396" stroke-miterlimit="10"/>
<path d="M126.423 412.924L121.92 410.228L112.928 413.526L114.42 415.319L126.423 412.924Z" fill="white"/>
<mask id="mask1_49_1725" style="mask-type:luminance" maskUnits="userSpaceOnUse" x="112" y="410" width="15" height="6">
<path d="M126.423 412.924L121.92 410.228L112.928 413.526L114.42 415.319L126.423 412.924Z" fill="white"/>
</mask>
<g mask="url(#mask1_49_1725)">
<path opacity="0.5" d="M126.423 412.924L121.92 410.228L112.928 413.526L114.42 415.319L126.423 412.924Z" fill="#92E3A9" stroke="#263238" stroke-width="1.00396" stroke-linejoin="round"/>
</g>
<path d="M126.423 412.924L121.92 410.228L112.928 413.526L114.42 415.319L126.423 412.924Z" stroke="#263238" stroke-width="1.00396" stroke-linejoin="round"/>
<path d="M187.874 339.383C187.874 339.383 187.143 345.837 188.964 349.981C190.785 354.126 200.896 368.166 200.896 368.166L182.023 383.295C182.023 383.295 174.193 367.52 172.701 364.967C171.21 362.415 169.417 351.43 174.279 343.556C179.14 335.683 186.139 333.561 187.874 339.383Z" fill="white"/>
<mask id="mask2_49_1725" style="mask-type:luminance" maskUnits="userSpaceOnUse" x="171" y="336" width="30" height="48">
<path d="M187.874 339.383C187.874 339.383 187.143 345.837 188.964 349.981C190.785 354.126 200.896 368.166 200.896 368.166L182.023 383.295C182.023 383.295 174.193 367.52 172.701 364.967C171.21 362.415 169.417 351.43 174.279 343.556C179.14 335.683 186.139 333.561 187.874 339.383Z" fill="white"/>
</mask>
<g mask="url(#mask2_49_1725)">
<g style="mix-blend-mode:multiply" opacity="0.5">
<path d="M178.18 360.12L186.368 377.1L182.009 383.31L173.777 368.61L178.18 360.12Z" fill="#92E3A9"/>
</g>
</g>
<path d="M187.874 339.383C187.874 339.383 187.143 345.837 188.964 349.981C190.785 354.126 200.896 368.166 200.896 368.166L182.023 383.295C182.023 383.295 174.193 367.52 172.701 364.967C171.21 362.415 169.417 351.43 174.279 343.556C179.14 335.683 186.139 333.561 187.874 339.383Z" stroke="#263238" stroke-width="1.00396" stroke-miterlimit="10"/>
<path d="M193.725 327.566C192.564 320.396 184.346 305.811 171.31 306.37C162.849 306.743 158.891 308.449 155.22 310.529C152.227 312.292 149.438 314.379 146.902 316.753C140.535 324.397 138.297 326.49 139.531 332.342C139.429 334.675 139.795 337.006 140.606 339.197C142.557 344.402 143.89 347.801 145.583 350.282C145.066 352.706 143.718 359.102 143.647 360.565C143.575 362.027 147.949 361.009 150.157 360.45C154.259 369.628 161.774 375.996 164.111 376.727C168.184 378.003 174.623 371.306 178.036 366.115C181.449 360.923 178.868 355.086 178.882 352.763C178.897 350.44 186.555 345.335 189.394 343.714C192.234 342.093 194.873 334.722 193.725 327.566Z" fill="white"/>
<mask id="mask3_49_1725" style="mask-type:luminance" maskUnits="userSpaceOnUse" x="139" y="306" width="55" height="71">
<path d="M193.725 327.566C192.564 320.396 184.346 305.811 171.31 306.37C162.849 306.743 158.891 308.449 155.22 310.529C152.227 312.292 149.438 314.379 146.902 316.753C140.535 324.397 138.297 326.49 139.531 332.342C139.429 334.675 139.795 337.006 140.606 339.197C142.557 344.402 143.89 347.801 145.583 350.282C145.066 352.706 143.718 359.102 143.647 360.565C143.575 362.027 147.949 361.009 150.157 360.45C154.259 369.628 161.774 375.996 164.111 376.727C168.184 378.003 174.623 371.306 178.036 366.115C181.449 360.923 178.868 355.086 178.882 352.763C178.897 350.44 186.555 345.335 189.394 343.714C192.234 342.093 194.873 334.722 193.725 327.566Z" fill="white"/>
</mask>
<g mask="url(#mask3_49_1725)">
<g style="mix-blend-mode:multiply" opacity="0.5">
<path d="M139.588 332.342C139.486 334.675 139.852 337.006 140.663 339.197C142.614 344.402 143.947 347.801 145.639 350.282C145.123 352.706 143.775 359.102 143.703 360.565C143.632 362.028 148.006 361.009 150.214 360.45C154.316 369.628 161.83 375.996 164.168 376.727C168.241 378.003 174.68 371.306 178.093 366.115C178.946 364.819 179.499 363.349 179.714 361.812C179.527 361.138 179.398 360.723 179.398 360.723C179.398 360.723 177.477 368.108 173.662 367.147C169.847 366.186 164.01 358.543 160.755 355.904C157.5 353.265 158.833 349.795 158.188 345.865C157.543 341.936 147.905 338.48 147.26 336.228C146.615 333.977 148.866 324.655 148.866 324.655C148.866 324.655 152.523 319.779 151.734 321.787C151.177 323.528 150.975 325.363 151.14 327.183C151.305 329.004 151.834 330.772 152.695 332.385C153.3 333.657 154.259 334.727 155.457 335.468C156.655 336.208 158.042 336.587 159.45 336.558L162.949 319.22L155.563 313.11L146.959 316.696C140.534 324.397 138.34 326.491 139.588 332.342Z" fill="#92E3A9"/>
</g>
</g>
<path d="M193.725 327.566C192.564 320.396 184.346 305.811 171.31 306.37C162.849 306.743 158.891 308.449 155.22 310.529C152.227 312.292 149.438 314.379 146.902 316.753C140.535 324.397 138.297 326.49 139.531 332.342C139.429 334.675 139.795 337.006 140.606 339.197C142.557 344.402 143.89 347.801 145.583 350.282C145.066 352.706 143.718 359.102 143.647 360.565C143.575 362.027 147.949 361.009 150.157 360.45C154.259 369.628 161.774 375.996 164.111 376.727C168.184 378.003 174.623 371.306 178.036 366.115C181.449 360.923 178.868 355.086 178.882 352.763C178.897 350.44 186.555 345.335 189.394 343.714C192.234 342.093 194.873 334.722 193.725 327.566Z" stroke="#263238" stroke-miterlimit="10"/>
<path d="M147.361 345.951L148.795 350.053C148.795 350.053 151.879 351.071 155.636 346.97" stroke="#263238" stroke-miterlimit="10" stroke-linecap="round"/>
<path d="M157.959 365.111C157.959 365.111 161.373 364.767 162.749 359.977" stroke="#263238" stroke-miterlimit="10" stroke-linecap="round"/>
<path d="M144.966 342.524C144.966 342.524 145.984 339.44 152.136 339.44" stroke="#263238" stroke-miterlimit="10" stroke-linecap="round"/>
<path d="M176.502 300.662C172.032 300.02 167.523 299.675 163.007 299.63C163.007 299.63 149.498 291.843 136.519 300.146C123.541 308.45 129.779 322.991 129.779 326.62C129.779 330.248 125.62 330.262 128.216 334.937C130.812 339.613 139.588 337.031 139.588 337.031C139.681 335.268 140.147 333.544 140.955 331.974C141.764 330.405 142.896 329.024 144.278 327.925C148.953 324.296 152.682 323.508 154.231 324.554C154.231 324.554 153.198 332.342 154.747 335.454C154.747 335.454 159.938 338.049 161.501 338.049C163.065 338.049 160.483 340.244 165.66 342.194C166.604 342.533 167.612 342.648 168.608 342.531C169.603 342.414 170.558 342.068 171.397 341.52C172.157 338.365 173.82 333.618 176.918 334.722C181.464 336.343 185.609 347.529 179.456 351.343C186.856 352.692 195.819 339.598 196.35 327.666C196.881 315.735 184.189 302.01 176.502 300.662Z" fill="#263238"/>
<path d="M154.46 319.435C154.46 319.435 158.275 317.384 162.95 321.772C167.625 326.161 176.717 332.026 188.764 328.799" stroke="white" stroke-width="0.5" stroke-linecap="round" stroke-linejoin="round"/>
<path d="M153.93 315.921C153.93 315.921 156.554 311.82 160.942 311.82C165.331 311.82 175.585 317.972 183.773 317.972" stroke="white" stroke-width="0.5" stroke-linecap="round" stroke-linejoin="round"/>
<path d="M150.946 323.823C150.946 323.823 145.97 317.685 141.294 322.661C136.619 327.638 139.588 332.342 139.588 332.342" stroke="white" stroke-width="0.5" stroke-linecap="round" stroke-linejoin="round"/>
<path d="M131.055 327.925C133.906 325.353 135.679 321.797 136.017 317.972C136.605 311.533 145.396 305.969 150.946 311.246" stroke="white" stroke-width="0.5" stroke-linecap="round" stroke-linejoin="round"/>
<path d="M140.119 304.506C140.119 304.506 148.91 296.016 156.224 306.843" stroke="white" stroke-width="0.5" stroke-linecap="round" stroke-linejoin="round"/>
<path d="M211.666 721.929C211.666 721.929 217.072 730.333 216.47 735.74L215.882 741.146C215.882 741.146 196.048 746.582 191.846 746.582C187.645 746.582 165.402 744.474 165.402 744.474L164.441 740.659C164.373 740.377 164.405 740.081 164.531 739.82C164.656 739.559 164.867 739.348 165.129 739.225L184.963 729.975L191.215 723.134L211.666 721.929Z" fill="white" stroke="#263238" stroke-width="1.00396" stroke-miterlimit="10"/>
<path d="M194.859 742.351C200.237 742.767 210.447 739.483 216.37 737.389L215.954 741.146C215.954 741.146 196.049 746.582 191.847 746.582C187.645 746.582 165.402 744.474 165.402 744.474L164.714 741.749C168.27 741.763 187.746 741.806 194.859 742.351Z" fill="#92E3A9" stroke="#263238" stroke-width="1.00396" stroke-miterlimit="10"/>
<path d="M184.992 729.975L156.123 742.537C156.123 742.537 153.656 748.718 156.123 749.952C158.59 751.185 212.369 749.952 212.369 749.952C212.369 749.952 216.083 740.186 210.217 733.632C204.352 727.078 184.992 729.975 184.992 729.975Z" fill="white" stroke="#263238" stroke-width="1.00396" stroke-miterlimit="10"/>
<path d="M212.369 749.952C212.369 749.952 158.59 751.185 156.123 749.952C154.933 749.35 154.89 747.614 155.163 745.965H213.315C213.125 747.321 212.808 748.656 212.369 749.952Z" fill="#92E3A9" stroke="#263238" stroke-width="1.00396" stroke-miterlimit="10"/>
<path d="M171.339 511.69C171.339 511.69 163.795 545.119 160.942 566.028C158.088 586.938 156.41 628.828 157.012 633.632C157.614 638.436 187.645 718.932 187.645 718.932L190.642 726.103L211.666 721.901C211.666 721.901 202.057 691.268 198.458 674.446C194.858 657.624 186.985 629.989 186.985 625.185C186.985 620.381 205.628 528.627 206.962 522.604C208.296 516.581 214.347 507.331 214.347 507.331L174.092 506.513L171.339 511.69Z" fill="#92E3A9" stroke="#263238" stroke-width="1.00396" stroke-miterlimit="10"/>
<path d="M171.339 511.69C171.339 511.69 166.922 542.222 168.744 563.447C170.565 584.672 174.48 629.86 174.48 636.586C174.48 643.312 185.336 683.481 185.953 696.101C186.914 714.329 185.566 723.349 185.566 723.349L184.92 729.96C184.92 729.96 197.583 731.767 200.351 732.556C203.548 733.38 206.847 733.737 210.146 733.617C210.146 733.617 214.75 713.353 214.75 696.087C214.75 678.82 210.921 643.283 209.013 628.885C207.106 614.487 213.115 558.944 216.528 548.575C219.941 538.207 227.398 516.251 222.379 505.036C217.36 493.821 171.339 511.69 171.339 511.69Z" fill="#92E3A9" stroke="#263238" stroke-width="1.00396" stroke-miterlimit="10"/>
<path d="M227.958 499.415L227.499 513.067C227.499 513.067 219.324 514.688 208.31 516.595C199.218 518.173 176.387 516.179 168.701 515.433C168 515.371 167.352 515.035 166.899 514.498C166.445 513.961 166.221 513.266 166.277 512.565L167.023 500.232L227.958 499.415Z" fill="#263238"/>
<path d="M196.006 363.318C196.006 363.318 183.099 377.272 178.237 385.948C173.375 394.625 171.454 407.919 169.632 418.388C167.811 428.857 172.744 453.437 171.353 464.724L166.951 500.275C166.951 500.275 166.004 502.684 169.174 505.323C172.343 507.962 187.817 508.922 201.799 509.625C206.905 509.883 222.149 506.599 224.645 506.441C227.656 506.255 227.757 502.426 227.886 499.414C228.488 485.26 231.041 447.529 232.719 431.094C236.175 397.579 217.259 365.226 196.006 363.318Z" fill="white" stroke="#263238" stroke-width="1.00396" stroke-miterlimit="10"/>
<g style="mix-blend-mode:multiply">
<path d="M231.142 450.153C231.715 442.71 232.289 435.955 232.791 431.094C232.934 429.66 233.02 428.226 233.092 426.792L198.803 432.528L169.346 422.489C169.349 428.584 169.694 434.674 170.379 440.731L199.276 448.819L231.142 450.153Z" fill="#92E3A9"/>
</g>
<g style="mix-blend-mode:multiply">
<path d="M194.729 364.724C192.779 366.889 188.907 371.292 185.221 375.967L206.991 398.095L214.161 395.227L194.729 364.724Z" fill="#92E3A9"/>
</g>
<path d="M196.006 363.318C196.006 363.318 183.099 377.272 178.237 385.948C176.796 388.585 175.628 391.363 174.752 394.237L200.71 364.25C199.176 363.786 197.601 363.474 196.006 363.318Z" fill="#263238"/>
<g style="mix-blend-mode:multiply">
<path d="M170.637 412.737L198.802 422.002L233.006 418.072C232.47 409.552 230.577 401.171 227.398 393.248L199.821 404.305L175.168 393.133C173.153 399.541 171.638 406.095 170.637 412.737Z" fill="#92E3A9"/>
</g>
<g style="mix-blend-mode:multiply">
<path d="M219.124 485.26C204.838 487.658 190.18 486.461 176.473 481.775L169.604 479.423L167.467 496.632L175.297 498.826C190.183 502.988 205.741 504.187 221.088 502.354L227.413 501.594C227.742 500.897 227.927 500.141 227.958 499.371C228.13 495.542 228.431 489.978 228.818 483.596L219.124 485.26Z" fill="#92E3A9"/>
</g>
<g style="mix-blend-mode:multiply">
<path d="M222.952 461.827C208.666 464.235 194.005 463.032 180.302 458.327L171.554 455.33C171.771 458.455 171.728 461.592 171.425 464.709L170.407 472.984L179.126 475.422C194.006 479.588 209.559 480.792 224.903 478.964L229.205 478.448C229.563 472.711 229.979 466.602 230.424 460.565L222.952 461.827Z" fill="#92E3A9"/>
</g>
<path d="M88.4069 401.181L116.136 423.476L117.331 421.989L89.602 399.695L88.4069 401.181Z" fill="#263238"/>
<path d="M209.357 378.792C209.357 378.792 219.525 385.719 219.754 402.082C219.855 409.253 219.109 415.95 217.46 427.695C215.81 439.44 205.571 477.688 197.597 482.334C189.624 486.981 177.248 478.204 177.248 478.204L117.388 438.465L102.918 426.777L95.7476 413.239L97.9991 408.937L115.653 422.475L106.145 413.684L108.009 411.318L111.451 413.713L121.49 417.47L123.684 431.811L126.782 433.933L184.045 454.857C184.045 454.857 183.328 424.038 183.859 418.144C184.389 412.25 185.121 397.436 191.431 386.694" fill="white"/>
<mask id="mask4_49_1725" style="mask-type:luminance" maskUnits="userSpaceOnUse" x="95" y="378" width="125" height="106">
<path d="M209.357 378.792C209.357 378.792 219.525 385.719 219.754 402.082C219.855 409.253 219.109 415.95 217.46 427.695C215.81 439.44 205.571 477.688 197.597 482.334C189.624 486.981 177.248 478.204 177.248 478.204L117.388 438.465L102.918 426.777L95.7476 413.239L97.9991 408.937L115.653 422.475L106.145 413.684L108.009 411.318L111.451 413.713L121.49 417.47L123.684 431.811L126.782 433.933L184.045 454.857C184.045 454.857 183.328 424.038 183.859 418.144C184.389 412.25 185.121 397.436 191.431 386.694" fill="white"/>
</mask>
<g mask="url(#mask4_49_1725)">
<g style="mix-blend-mode:multiply" opacity="0.5">
<path d="M183.644 431.567C183.644 442.208 184.002 454.857 184.002 454.857L126.796 434.019L123.698 431.897L121.504 417.556L111.465 413.799L108.038 411.361L106.173 413.727L115.653 422.475L97.9991 408.937L95.8623 413.168L103.033 426.706L117.503 438.465L121.146 440.889L200.236 466.373L183.644 431.567Z" fill="#92E3A9"/>
</g>
</g>
<path d="M209.357 378.792C209.357 378.792 219.525 385.719 219.754 402.082C219.855 409.253 219.109 415.95 217.46 427.695C215.81 439.44 205.571 477.688 197.597 482.334C189.624 486.981 177.248 478.204 177.248 478.204L117.388 438.465L102.918 426.777L95.7476 413.239L97.9991 408.937L115.653 422.475L106.145 413.684L108.009 411.318L111.451 413.713L121.49 417.47L123.684 431.811L126.782 433.933L184.045 454.857C184.045 454.857 183.328 424.038 183.859 418.144C184.389 412.25 185.121 397.436 191.431 386.694" stroke="#263238" stroke-width="1.00396" stroke-miterlimit="10"/>
<path d="M184.045 454.857L205.901 470.632L211.566 460.593C211.566 460.593 215.481 457.51 216.055 455.187C216.628 452.863 215.897 449.092 216.485 446.769C217.073 444.445 219.998 442.265 220.271 436.644C220.543 431.022 220.271 426.333 220.271 426.333C220.271 426.333 225.003 406.872 224.487 398.411C223.971 389.949 215.811 374.992 209.271 374.662C202.732 374.332 194.227 375.322 187.631 385.303C181.034 395.284 182.382 424.425 181.349 426.247C180.317 428.068 181.751 437.06 181.751 437.06C181.178 437.487 180.702 438.032 180.356 438.657C180.01 439.283 179.801 439.975 179.743 440.688C179.628 443.026 182.152 448.776 182.152 448.776L184.045 454.857Z" fill="white" stroke="#263238" stroke-width="1.00396" stroke-miterlimit="10"/>
<g style="mix-blend-mode:multiply">
<path d="M181.923 418.761C181.968 421.263 181.781 423.764 181.364 426.232C180.446 427.867 181.493 435.253 181.722 436.759C194.015 440.577 207.014 441.557 219.74 439.627C220.014 438.629 220.177 437.605 220.228 436.572C220.515 430.965 220.228 426.261 220.228 426.261C220.228 426.261 220.644 424.526 221.218 421.887C208.037 422.725 194.805 421.672 181.923 418.761Z" fill="#92E3A9"/>
</g>
<g style="mix-blend-mode:multiply">
<path d="M186.742 386.895C184.691 391.011 183.543 397.192 182.884 403.459C195.903 408.427 209.939 410.136 223.77 408.435C224.322 405.118 224.567 401.758 224.501 398.396C224.253 395.739 223.625 393.131 222.637 390.652C210.561 390.934 198.498 389.671 186.742 386.895Z" fill="#92E3A9"/>
</g>
<path d="M182.152 448.934L184.002 454.857L205.858 470.632L211.522 460.593C211.522 460.593 215.437 457.51 216.011 455.187C216.113 454.783 216.176 454.37 216.197 453.953C204.68 453.754 193.237 452.067 182.152 448.934Z" fill="#263238"/>
<path d="M197.97 732.37C197.97 732.37 198.458 719.95 200.838 701.795C203.219 683.639 197.497 657.854 196.536 653.552C195.575 649.249 197.024 639.698 196.063 636.342C195.102 632.986 190.456 618.674 193.195 602.067C195.934 585.46 198.157 541.563 198.157 541.563C198.157 541.563 191.259 535.955 189.237 528.656C187.214 521.356 188.763 519.062 188.763 519.062" stroke="#263238" stroke-width="1.00396" stroke-miterlimit="10"/>
<path d="M201.169 519.736L198.516 534.421" stroke="#263238" stroke-width="1.00396" stroke-miterlimit="10"/>
</svg>
