<svg width="130" height="131" viewBox="0 0 130 131" fill="none" xmlns="http://www.w3.org/2000/svg">
<path d="M119.167 18.5496L118.517 11.7246L112.017 13.8913C100.877 17.7617 88.981 18.9495 77.2958 17.3579C65.017 15.4524 52.4491 17.1457 41.1124 22.2329C35.1025 24.792 29.8282 28.8137 25.7696 33.9319C21.711 39.0501 18.9971 45.1022 17.8749 51.5371C16.4199 59.85 17.1478 68.3982 19.9874 76.3454C21.8159 72.2184 23.9525 68.2349 26.3791 64.4288C31.8835 56.33 39.5106 49.9022 48.4249 45.8496C57.0127 41.9286 66.3995 40.0735 75.8333 40.4329C66.8534 41.8091 58.2576 45.0372 50.5916 49.9121C46.8953 52.236 43.5097 55.0209 40.5166 58.1996C37.6554 61.3782 35.1321 64.8454 32.9874 68.5454C28.961 76.2808 26.0956 84.5669 24.4833 93.1371C22.7456 101.735 21.8027 110.475 21.6666 119.245H32.4999C33.0147 111.38 34.0826 103.561 35.6958 95.8454C43.211 99.9036 51.6389 101.973 60.1791 101.858C68.1442 101.852 76.0273 100.25 83.3624 97.1454C124.583 79.5413 119.167 20.9871 119.167 18.5496Z" fill="#4997A3"/>
</svg>
