<svg width="130" height="131" viewBox="0 0 130 131" fill="none" xmlns="http://www.w3.org/2000/svg">
<path d="M93.1191 79.214C91.1749 72.1659 86.9719 65.9504 81.1551 61.5209C75.3383 57.0914 68.2288 54.6926 60.9175 54.6926C53.6061 54.6926 46.4967 57.0914 40.6799 61.5209C34.863 65.9504 30.6601 72.1659 28.7158 79.214L24.0825 96.0099C23.2506 99.0256 23.1265 102.193 23.7199 105.264C24.3132 108.336 25.608 111.229 27.5032 113.718C29.3984 116.206 31.8429 118.224 34.6461 119.613C37.4492 121.001 40.5352 121.724 43.6635 121.724H78.1714C81.2997 121.724 84.3858 121.001 87.1889 119.613C89.992 118.224 92.4365 116.206 94.3317 113.718C96.227 111.229 97.5217 108.336 98.1151 105.264C98.7084 102.193 98.5843 99.0256 97.7524 96.0099L93.1191 79.214ZM87.8679 108.794C86.7357 110.293 85.27 111.507 83.5869 112.341C81.9039 113.175 80.0498 113.606 78.1714 113.599H43.6635C41.7865 113.599 39.9349 113.166 38.253 112.332C36.571 111.499 35.1043 110.288 33.9672 108.795C32.83 107.302 32.0531 105.566 31.6971 103.723C31.3411 101.88 31.4156 99.9799 31.9148 98.1704L36.5481 81.3748C38.0195 76.041 41.2001 71.3372 45.6022 67.9851C50.0042 64.633 55.3844 62.8177 60.9175 62.8177C66.4505 62.8177 71.8307 64.633 76.2328 67.9851C80.6348 71.3372 83.8155 76.041 85.2869 81.3748L89.9202 98.1704C90.4265 99.9792 90.5046 101.881 90.1483 103.725C89.7921 105.569 89.0113 107.305 87.8679 108.795V108.794ZM33.0132 60.3574C33.7201 55.9395 32.7826 51.21 30.3726 47.0368C27.9625 42.8636 24.3347 39.6869 20.1561 38.0901C15.6813 36.3811 11.1171 36.6533 7.29984 38.8562C-0.288656 43.2376 -2.28563 54.0359 2.84912 62.9277C5.25843 67.1009 8.8865 70.2783 13.065 71.8744C14.9159 72.5961 16.8835 72.9722 18.8701 72.9842C21.345 72.9932 23.7781 72.3458 25.9213 71.1081C29.7363 68.9049 32.255 65.087 33.0132 60.3574ZM24.9897 59.0732C24.6267 61.3403 23.5145 63.1154 21.8583 64.0716C20.2021 65.0278 18.1089 65.1029 15.9634 64.2841C13.5226 63.352 11.3639 61.4274 9.88461 58.8652C7.04086 53.9395 7.71675 47.9981 11.3623 45.8927C12.2789 45.3728 13.3167 45.1049 14.3704 45.1162C15.3587 45.1267 16.3369 45.3175 17.2568 45.6791C19.6976 46.6117 21.8563 48.5361 23.3355 51.0982C24.8148 53.6604 25.4021 56.4932 24.9897 59.0732ZM33.8932 43.5252C36.7781 45.8315 40.0725 47.0324 43.404 47.0322C44.4019 47.0318 45.3969 46.9245 46.3719 46.712C54.9344 44.8506 60.1261 35.1738 57.945 25.1406C56.9218 20.4317 54.434 16.3004 50.9402 13.5072C47.1989 10.5162 42.7672 9.38399 38.4615 10.3204C29.8993 12.1815 24.7077 21.8584 26.8885 31.8915C27.9119 36.6007 30.3997 40.732 33.8932 43.5252ZM40.187 18.26C40.5819 18.175 40.9847 18.1324 41.3885 18.1331C42.8988 18.1331 44.4522 18.7239 45.8667 19.8548C47.9073 21.4862 49.3772 23.9767 50.0053 26.868C51.2139 32.4273 48.7597 37.8794 44.6461 38.7736C42.7771 39.1799 40.7601 38.6142 38.967 37.1804C36.9264 35.5488 35.4565 33.0582 34.8284 30.1672C33.6195 24.6064 36.0738 19.1543 40.187 18.26ZM114.535 38.8562C110.719 36.6533 106.153 36.3811 101.679 38.0901C97.5003 39.6864 93.8722 42.8636 91.4629 47.0368C89.0536 51.21 88.1159 55.9405 88.8223 60.3574C89.5794 65.087 92.0977 68.9049 95.9141 71.1081C98.0572 72.3462 100.49 72.9936 102.965 72.9842C104.952 72.9722 106.92 72.5961 108.77 71.8744C112.949 70.2783 116.577 67.1009 118.986 62.9277C124.121 54.0359 122.124 43.2376 114.535 38.8562ZM111.95 58.8652C110.471 61.4274 108.312 63.352 105.872 64.2841C103.727 65.1037 101.633 65.0283 99.9771 64.0716C98.3209 63.1149 97.2096 61.3403 96.8457 59.0732C96.4329 56.4932 97.0199 53.6614 98.4994 51.1005C99.9789 48.5396 102.137 46.614 104.578 45.6814C105.498 45.3194 106.476 45.1283 107.465 45.1175C108.518 45.1062 109.556 45.3741 110.473 45.8939C114.118 47.9975 114.795 53.9382 111.95 58.8652ZM75.463 46.712C76.438 46.9245 77.433 47.0318 78.4309 47.0322C81.7622 47.0322 85.0579 45.8315 87.9417 43.5252C91.4352 40.7323 93.923 36.6007 94.9465 31.8918C97.1273 21.8587 91.9357 12.1818 83.3735 10.3206C79.068 9.38475 74.636 10.5162 70.8947 13.5074C67.401 16.3004 64.9132 20.432 63.89 25.1406C61.7089 35.1738 66.9005 44.8506 75.463 46.712ZM71.8296 26.8667C72.4578 23.9755 73.9276 21.4839 75.9683 19.8536C77.383 18.7227 78.9362 18.1318 80.4464 18.1318C80.8503 18.1312 81.2531 18.1737 81.6479 18.2588C85.7612 19.153 88.2154 24.6064 87.0071 30.1644C86.3784 33.0557 84.9086 35.5473 82.8684 37.1778C81.0756 38.6114 79.0598 39.1771 77.1893 38.7711C73.0753 37.8781 70.621 32.4252 71.8296 26.8667Z" fill="#4997A3"/>
<path d="M87.8679 108.794C86.7357 110.293 85.27 111.507 83.5869 112.341C81.9039 113.175 80.0498 113.606 78.1714 113.599H43.6635C41.7865 113.599 39.9349 113.166 38.253 112.332C36.571 111.499 35.1043 110.288 33.9672 108.795C32.83 107.302 32.0531 105.566 31.6971 103.723C31.3411 101.88 31.4156 99.9799 31.9148 98.1704L36.5481 81.3748C38.0195 76.041 41.2001 71.3372 45.6022 67.9851C50.0042 64.633 55.3844 62.8177 60.9175 62.8177C66.4505 62.8177 71.8307 64.633 76.2328 67.9851C80.6348 71.3372 83.8155 76.041 85.2869 81.3748L89.9202 98.1704C90.4265 99.9792 90.5046 101.881 90.1483 103.725C89.7921 105.569 89.0113 107.305 87.8679 108.795V108.794Z" fill="#4997A3"/>
<path d="M24.9897 59.0732C24.6267 61.3403 23.5145 63.1154 21.8583 64.0716C20.2021 65.0278 18.1089 65.1029 15.9634 64.2841C13.5226 63.352 11.3639 61.4274 9.88461 58.8652C7.04086 53.9395 7.71675 47.9981 11.3623 45.8927C12.2789 45.3728 13.3167 45.1049 14.3704 45.1162C15.3587 45.1267 16.3369 45.3175 17.2568 45.6791C19.6976 46.6117 21.8563 48.5361 23.3355 51.0982C24.8148 53.6604 25.4021 56.4932 24.9897 59.0732Z" fill="#4997A3"/>
<path d="M40.187 18.26C40.5819 18.175 40.9847 18.1324 41.3885 18.1331C42.8988 18.1331 44.4522 18.7239 45.8667 19.8548C47.9073 21.4862 49.3772 23.9767 50.0053 26.868C51.2139 32.4273 48.7597 37.8794 44.6461 38.7736C42.7771 39.1799 40.7601 38.6142 38.967 37.1804C36.9264 35.5488 35.4565 33.0582 34.8284 30.1672C33.6195 24.6064 36.0738 19.1543 40.187 18.26Z" fill="#4997A3"/>
<path d="M71.8296 26.8667C72.4578 23.9755 73.9276 21.4839 75.9683 19.8536C77.383 18.7227 78.9362 18.1318 80.4464 18.1318C80.8503 18.1312 81.2531 18.1737 81.6479 18.2588C85.7612 19.153 88.2154 24.6064 87.0071 30.1644C86.3784 33.0557 84.9086 35.5473 82.8684 37.1778C81.0756 38.6114 79.0598 39.1771 77.1893 38.7711C73.0753 37.8781 70.621 32.4252 71.8296 26.8667Z" fill="#4997A3"/>
<path d="M111.95 58.8652C110.471 61.4274 108.312 63.352 105.872 64.2841C103.727 65.1037 101.633 65.0283 99.9771 64.0716C98.3209 63.1149 97.2096 61.3403 96.8457 59.0732C96.4329 56.4932 97.0199 53.6614 98.4994 51.1005C99.9789 48.5396 102.137 46.614 104.578 45.6814C105.498 45.3194 106.476 45.1283 107.465 45.1175C108.518 45.1062 109.556 45.3741 110.473 45.8939C114.118 47.9975 114.795 53.9382 111.95 58.8652Z" fill="#4997A3"/>
</svg>
