<svg width="130" height="131" viewBox="0 0 130 131" fill="none" xmlns="http://www.w3.org/2000/svg">
<path d="M112.266 103.854L107.342 77.2478C106.486 73.4103 104.35 69.9779 101.286 67.5141C98.2008 65.1104 94.3792 63.8473 90.4691 63.9391H81.602V47.4561C81.631 44.9351 80.8943 42.4646 79.4895 40.3711C79.8365 40.2333 80.1642 40.0513 80.4645 39.8295C83.1739 38.0432 85.2863 35.4866 86.5297 32.489C87.7732 29.4915 88.0906 26.1903 87.4412 23.0107C86.7838 19.8413 85.2244 16.9295 82.9508 14.6257C80.6572 12.3422 77.7434 10.7826 74.5712 10.1407C72.1826 9.64325 69.7126 9.69095 67.345 10.2803C64.9774 10.8696 62.7732 11.9853 60.8965 13.5445C59.0198 15.1036 57.519 17.0659 56.5057 19.2854C55.4924 21.5049 54.9928 23.9243 55.0441 26.3636C55.017 30.1011 56.2791 33.7303 58.6191 36.6391C57.301 37.1807 56.0733 37.8849 54.9358 38.7516L46.3395 44.8453C43.1921 47.063 41.0378 50.4246 40.3378 54.2107C32.7804 56.9499 26.4234 62.2534 22.374 69.1975C18.3246 76.1415 16.8394 84.2861 18.1772 92.2125C19.5151 100.139 23.5911 107.345 29.6953 112.575C35.7995 117.805 43.545 120.729 51.5828 120.836H52.0162C58.0997 120.85 64.0675 119.174 69.2535 115.993C74.4395 112.813 78.6397 108.254 81.3853 102.825C83.6138 98.6878 84.9914 94.1461 85.437 89.4678H88.037L91.2816 108.345C91.7799 110.717 93.1233 112.835 95.0678 114.292C96.8337 115.701 99.022 116.481 101.286 116.513C102.857 116.589 104.412 116.275 105.825 115.592C107.282 114.969 108.561 114.005 109.563 112.776C110.616 111.547 111.357 110.083 111.724 108.507C112.222 107.007 112.407 105.425 112.266 103.854ZM74.4033 98.882C72.3593 103.009 69.1974 106.479 65.2778 108.897C61.3581 111.315 56.8383 112.584 52.2328 112.559H51.8537C45.9263 112.457 40.2076 110.354 35.6264 106.591C31.0452 102.829 27.8706 97.6279 26.6182 91.8335C25.3658 86.039 26.1093 79.9914 28.7277 74.6728C31.3462 69.3542 35.6859 65.0771 41.042 62.5361L43.6908 82.1661C43.7991 84.8474 44.8933 87.3932 46.7728 89.3053C47.7582 90.2934 48.9306 91.0752 50.2214 91.6053C51.5123 92.1355 52.8958 92.4031 54.2912 92.3928C55.661 92.3936 57.0173 92.1209 58.2804 91.5908C59.5435 91.0606 60.6881 90.2836 61.647 89.3053C63.597 87.312 64.702 84.6361 64.7291 81.8465V63.2945C68.7078 65.5314 72.0275 68.7764 74.3545 72.7032C76.5886 76.7003 77.7706 81.1995 77.7895 85.7786C77.8085 90.3577 76.6638 94.8665 74.4628 98.882H74.4033Z" fill="#4997A3"/>
</svg>
