<svg width="130" height="131" viewBox="0 0 130 131" fill="none" xmlns="http://www.w3.org/2000/svg">
<path d="M24.1021 49.7149H34.2837L35.8489 96.5149H22.7475L24.1021 49.7149ZM15.6001 99.1149H114.4V104.315H122.2V112.115H127.4V117.315H2.6001V112.115H7.8001V104.315H15.6001V99.1149ZM119.6 36.2261L65.0053 13.3149L10.4001 36.2261V39.3149H119.6V36.2261ZM20.8001 41.9149H109.2V47.1149H20.8001V41.9149ZM95.5137 49.7149H105.69L107.268 96.5149H94.1487L95.5137 49.7149ZM71.7185 49.7149H81.8949L83.4549 96.5149H70.3483L71.7185 49.7149ZM47.9181 49.7149H58.0971L59.6467 96.5149H46.5453L47.9181 49.7149Z" fill="#4997A3"/>
</svg>
