<svg width="130" height="131" viewBox="0 0 130 131" fill="none" xmlns="http://www.w3.org/2000/svg">
<path d="M59.5834 35.5233C62.8157 35.5233 65.9156 34.2393 68.2012 31.9537C70.4868 29.6681 71.7709 26.5681 71.7709 23.3358C71.7709 20.1035 70.4868 17.0035 68.2012 14.7179C65.9156 12.4324 62.8157 11.1483 59.5834 11.1483C56.351 11.1483 53.2511 12.4324 50.9655 14.7179C48.6799 17.0035 47.3959 20.1035 47.3959 23.3358C47.3959 26.5681 48.6799 29.6681 50.9655 31.9537C53.2511 34.2393 56.351 35.5233 59.5834 35.5233ZM94.7917 68.0233C92.6368 68.0233 90.5702 68.8793 89.0465 70.403C87.5227 71.9268 86.6667 73.9934 86.6667 76.1483V77.0772C86.6667 77.7955 86.952 78.4844 87.4599 78.9923C87.9679 79.5002 88.6567 79.7856 89.375 79.7856C90.0933 79.7856 90.7822 79.5002 91.2901 78.9923C91.798 78.4844 92.0834 77.7955 92.0834 77.0772V76.1483C92.0834 75.43 92.3687 74.7411 92.8766 74.2332C93.3845 73.7253 94.0734 73.44 94.7917 73.44C95.51 73.44 96.1989 73.7253 96.7068 74.2332C97.2147 74.7411 97.5 75.43 97.5 76.1483V116.627C97.5 117.345 97.7854 118.034 98.2933 118.542C98.8012 119.05 99.4901 119.335 100.208 119.335C100.927 119.335 101.616 119.05 102.123 118.542C102.631 118.034 102.917 117.345 102.917 116.627V76.1483C102.917 73.9934 102.061 71.9268 100.537 70.403C99.0132 68.8793 96.9466 68.0233 94.7917 68.0233ZM80.4619 54.9664L75.8334 52.946L80.1532 54.7795L80.4619 54.9664ZM83.7823 57.8427C82.8394 56.7096 81.7179 55.7381 80.4619 54.9664L97.5 62.4116V62.1516V62.157C97.7573 65.1362 95.4552 67.7552 92.3569 68.007C89.2857 68.2508 86.5827 66.0733 86.2875 63.1293V63.1239L86.2469 62.891C86.1652 62.4937 86.0612 62.1012 85.9354 61.7156C85.4604 60.3039 84.7307 58.9912 83.7823 57.8427Z" fill="#4997A3"/>
<path fill-rule="evenodd" clip-rule="evenodd" d="M97.5 62.1489L80.1531 54.7822C78.7949 53.9926 77.3439 53.3749 75.8333 52.9433V114.065C75.8328 115.454 75.2983 116.791 74.3404 117.797C73.3824 118.804 72.0743 119.404 70.6865 119.473C69.2987 119.542 67.9373 119.075 66.884 118.169C65.8307 117.263 65.1659 115.986 65.0271 114.604L62.3187 87.5206C62.3008 87.3415 62.2917 87.1616 62.2917 86.9816H56.875C56.875 87.1622 56.866 87.3418 56.8479 87.5206L54.1396 114.604C54.0008 115.986 53.336 117.263 52.2827 118.169C51.2293 119.075 49.868 119.542 48.4802 119.473C47.0924 119.404 45.7842 118.804 44.8263 117.797C43.8684 116.791 43.3339 115.454 43.3333 114.065V75.9289C38.786 75.3249 34.9646 73.4968 32.1317 70.7154C30.5067 69.1258 29.2214 67.2229 28.3536 65.1219C27.4858 63.0209 27.0537 60.7656 27.0833 58.4927C27.1064 56.2267 27.5778 53.9878 28.4702 51.9049C29.3627 49.8219 30.6587 47.9363 32.2833 46.3566C35.7771 42.9468 40.7577 40.9399 46.7323 40.9399H66.5573C80.0258 40.9399 88.0723 45.6037 92.6114 51.1206C94.3987 53.2832 95.7706 55.7579 96.6577 58.4195C97.0531 59.6112 97.3619 60.8381 97.4946 62.0839V62.1245L97.5 62.1408V62.1489ZM40.1673 63.1293C40.8633 63.8118 41.8763 64.4727 43.3333 64.8843V52.2337C41.9792 52.6454 40.9933 53.2872 40.2919 53.9697C39.6764 54.573 39.1871 55.2927 38.8523 56.0868C38.5175 56.881 38.344 57.7337 38.3419 58.5956C38.3256 60.3289 38.9702 61.9539 40.1673 63.1293Z" fill="#4997A3"/>
</svg>
