<svg width="131" height="131" viewBox="0 0 131 131" fill="none" xmlns="http://www.w3.org/2000/svg">
<path d="M85.8124 103.936C81.3166 103.936 77.6874 99.3858 77.6874 93.7525C77.6874 88.1733 81.3166 83.6233 85.8124 83.6233C90.3083 83.6233 93.9374 88.1733 93.9374 93.7525C93.9374 99.3858 90.3083 103.936 85.8124 103.936ZM65.5 61.2525C58.7833 61.2525 53.3124 56.7025 53.3124 51.1233C53.3124 45.49 58.7833 40.94 65.5 40.94C72.2166 40.94 77.6874 45.49 77.6874 51.1233C77.6874 56.7025 72.2166 61.2525 65.5 61.2525ZM45.1874 103.936C40.6916 103.936 37.0624 99.3858 37.0624 93.7525C37.0624 88.1733 40.6916 83.6233 45.1874 83.6233C49.6833 83.6233 53.3124 88.1733 53.3124 93.7525C53.3124 99.3858 49.6833 103.936 45.1874 103.936ZM65.5 45.0025C67.7208 45.0025 69.5625 46.8441 69.5625 49.065C69.5625 51.2858 67.7208 53.1275 65.5 53.1275C63.2791 53.1275 61.4375 51.2858 61.4375 49.065C61.4375 46.8441 63.2791 45.0025 65.5 45.0025ZM102.062 65.315C100.329 65.315 98.6499 65.6941 97.1333 66.3983C94.5333 63.0941 91.0125 60.2775 86.7875 58.1108C89.8749 53.7775 91.7166 48.5233 91.7166 42.8358V42.5108C97.6208 41.265 102.062 36.0108 102.062 29.6733C102.062 22.4691 96.1583 16.565 88.9541 16.565C85.2166 16.565 81.7499 18.1358 79.4749 20.6275C75.2973 17.9724 70.4499 16.5624 65.5 16.5624C60.55 16.5624 55.7025 17.9724 51.5249 20.6275C49.2499 18.1358 45.7833 16.565 42.0458 16.565C34.8416 16.565 28.9374 22.4691 28.9374 29.6733C28.9374 35.9566 33.3791 41.2108 39.2291 42.5108V42.8358C39.2291 48.5233 41.1249 53.8316 44.1583 58.1108C39.9874 60.2775 36.4666 63.0941 33.8666 66.3983C32.0155 65.5645 29.9848 65.2084 27.9605 65.3628C25.9362 65.5172 23.9829 66.1771 22.2797 67.282C20.5765 68.3869 19.1778 69.9016 18.2117 71.6872C17.2456 73.4728 16.743 75.4723 16.7499 77.5025C16.7499 84.2733 22.1666 89.69 28.9374 89.69H29.2624C29.0458 90.99 28.9374 92.3983 28.9374 93.7525C28.9374 104.965 36.1958 114.065 45.1874 114.065C50.6583 114.065 55.4791 110.652 58.4583 105.452C60.7333 105.777 63.0625 105.94 65.5 105.94C67.9375 105.94 70.2666 105.777 72.5416 105.452C75.5208 110.652 80.3416 114.065 85.8124 114.065C94.8041 114.065 102.062 104.965 102.062 93.7525C102.062 92.3983 101.954 90.99 101.737 89.69H102.062C108.833 89.69 114.25 84.2733 114.25 77.5025C114.25 70.7316 108.833 65.315 102.062 65.315Z" fill="#4997A3"/>
</svg>
