<svg width="600" height="531" viewBox="0 0 600 531" fill="none" xmlns="http://www.w3.org/2000/svg">
<rect y="0.114349" width="600" height="530" rx="20" fill="#81C784" fill-opacity="0.18"/>
<path d="M156.911 80.5511C156.717 80.5339 156.522 80.5339 156.329 80.5511L154.621 80.5996C154.243 80.5996 153.816 80.5996 153.36 80.6578L151.847 80.8713L150.091 81.1235L148.151 81.6085C144.766 82.4636 141.544 83.8695 138.615 85.7701C134.273 88.5194 130.62 92.2279 127.936 96.6105C125.252 100.993 123.609 105.933 123.133 111.05C122.998 112.582 122.966 114.121 123.036 115.658C123.094 116.434 123.036 117.229 123.191 118.015C123.346 118.801 123.424 119.596 123.55 120.392C124.15 123.659 125.229 126.82 126.751 129.772C128.372 132.867 130.437 135.707 132.882 138.202C135.479 140.761 138.457 142.901 141.71 144.546C145.073 146.274 148.715 147.394 152.468 147.854C153.431 148 154.403 148.081 155.378 148.097C156.347 148.15 157.319 148.15 158.288 148.097C160.245 148.019 162.192 147.775 164.108 147.369C168.233 146.481 172.156 144.837 175.681 142.519H175.332L187.118 147.253L187.817 147.534L187.613 146.806C186.43 142.48 185.265 138.28 184.15 134.196L184.092 134.506C187.289 130.268 189.443 125.336 190.378 120.11C190.829 117.68 190.985 115.205 190.843 112.738C190.815 111.551 190.701 110.368 190.504 109.197L190.242 107.47C190.135 106.898 189.961 106.355 189.825 105.802C187.852 98.0573 183.194 91.2644 176.68 86.6334C174.273 84.9037 171.639 83.5131 168.852 82.501L167.087 81.8704L165.389 81.5115L163.856 81.1332C163.361 81.0362 162.886 80.9877 162.45 80.9198C161.557 80.8131 160.771 80.6578 160.083 80.619L158.356 80.5608H157.299C157.179 80.5497 157.059 80.5497 156.94 80.5608C157.059 80.5758 157.179 80.5758 157.299 80.5608L158.346 80.6481L160.073 80.7646C160.752 80.7646 161.528 80.9877 162.411 81.1138C168.805 82.2297 174.737 85.1776 179.488 89.5996C184.239 94.0216 187.604 99.7276 189.175 106.025C189.301 106.568 189.476 107.111 189.573 107.664C189.67 108.217 189.747 108.79 189.825 109.362C190.021 110.509 190.125 111.671 190.135 112.835C190.269 115.257 190.11 117.687 189.66 120.071C188.725 125.187 186.602 130.012 183.461 134.157L183.354 134.293V134.467C184.46 138.541 185.605 142.745 186.788 147.078L187.293 146.642L175.555 141.917L175.371 141.84L175.206 141.946C170.143 145.282 164.268 147.176 158.21 147.427C157.266 147.461 156.32 147.442 155.378 147.369C154.436 147.355 153.496 147.277 152.565 147.136C148.89 146.675 145.326 145.565 142.04 143.857C138.852 142.258 135.93 140.177 133.377 137.688C130.985 135.245 128.957 132.471 127.353 129.452C125.857 126.56 124.791 123.465 124.19 120.266C124.064 119.489 123.948 118.713 123.831 117.937C123.715 117.161 123.725 116.395 123.667 115.629C123.595 114.122 123.621 112.612 123.744 111.108C124.195 106.072 125.787 101.204 128.398 96.8745C131.01 92.5448 134.574 88.8668 138.819 86.1193C141.697 84.2129 144.865 82.7846 148.199 81.8898L150.14 81.366L151.886 81.0847L153.38 80.8325C153.835 80.784 154.253 80.7743 154.631 80.7452L156.329 80.619C156.525 80.6197 156.72 80.5969 156.911 80.5511Z" fill="#263238"/>
<path d="M151.624 111.331H153.496L157.444 105.579L157.366 101.854C157.366 101.854 160.276 101.621 160.005 106.5C159.733 111.38 160.112 110.138 160.112 110.138C160.112 110.138 166.233 110.031 166.747 110.555C167.261 111.079 167.416 117.006 167.552 120.304C167.609 121.099 167.398 121.89 166.953 122.551C166.508 123.212 165.855 123.705 165.098 123.952C164.883 124.012 164.661 124.044 164.438 124.049C162.915 124.049 155.087 123.001 155.087 123.001L151.866 123.069L151.624 111.331Z" fill="#81C784"/>
<path d="M146.269 110.419L147.676 123.147L150.867 123.088L150.615 110.584L146.269 110.419Z" fill="#81C784"/>
<path d="M350.147 444.926L350.836 479.722L307.542 480.799C307.697 476.657 329.853 467.8 329.853 467.8L328.495 445.489L350.147 444.926Z" fill="#81C784"/>
<g opacity="0.6">
<path d="M343.221 465.588C343.631 465.704 343.986 465.964 344.219 466.321C344.453 466.677 344.55 467.106 344.491 467.529C344.394 467.95 344.138 468.318 343.777 468.556C343.416 468.794 342.977 468.885 342.551 468.809C342.105 468.686 341.721 468.401 341.474 468.01C341.226 467.619 341.133 467.15 341.213 466.694C341.363 466.264 341.674 465.908 342.081 465.702C342.488 465.496 342.959 465.455 343.395 465.588" fill="white"/>
</g>
<g opacity="0.6">
<path d="M350.836 479.722L350.632 476.22L309.201 478.529C309.201 478.529 307.261 479.421 307.542 480.77L350.836 479.722Z" fill="white"/>
</g>
<path d="M329.174 467.596C329.174 467.81 330.251 467.878 331.308 468.566C332.366 469.255 332.938 470.099 333.132 470.012C333.326 469.925 332.977 468.712 331.687 467.936C330.396 467.16 329.126 467.402 329.174 467.596Z" fill="#263238"/>
<path d="M324.683 469.585C324.683 469.789 325.565 470.128 326.303 471.001C327.04 471.874 327.273 472.825 327.486 472.806C327.7 472.786 327.806 471.593 326.856 470.526C325.905 469.459 324.683 469.381 324.683 469.585Z" fill="#263238"/>
<path d="M322.239 475.085C322.433 475.085 322.704 474.067 322.132 472.922C321.559 471.777 320.56 471.341 320.473 471.515C320.386 471.69 321.016 472.301 321.443 473.242C321.87 474.183 322.035 475.066 322.239 475.085Z" fill="#263238"/>
<path d="M329.436 462.484C329.524 462.678 330.484 462.358 331.687 462.407C332.89 462.455 333.821 462.814 333.928 462.63C334.034 462.445 333.123 461.718 331.706 461.66C330.29 461.601 329.33 462.319 329.436 462.484Z" fill="#263238"/>
<path d="M330.3 457.323C331.014 457.496 331.761 457.473 332.463 457.256C333.707 457.006 334.89 456.515 335.946 455.81C336.187 455.673 336.404 455.496 336.586 455.286C336.722 455.134 336.802 454.94 336.814 454.735C336.827 454.531 336.77 454.329 336.654 454.161C336.541 454.011 336.395 453.89 336.226 453.809C336.057 453.728 335.871 453.689 335.684 453.695C335.41 453.7 335.139 453.746 334.879 453.831C334.418 453.953 333.969 454.119 333.54 454.326C332.827 454.68 332.172 455.141 331.6 455.694C330.63 456.664 330.3 457.44 330.368 457.479C330.436 457.517 330.94 456.877 331.949 456.082C332.541 455.617 333.194 455.235 333.889 454.947C334.288 454.775 334.7 454.635 335.121 454.53C335.577 454.394 335.975 454.384 336.091 454.588C336.207 454.792 336.091 454.695 336.091 454.83C335.951 454.98 335.791 455.111 335.616 455.218C335.253 455.464 334.877 455.69 334.49 455.897C333.828 456.249 333.133 456.535 332.415 456.751C331.696 456.887 330.989 457.079 330.3 457.323Z" fill="#263238"/>
<path d="M330.62 457.614C331.017 456.988 331.197 456.248 331.134 455.509C331.166 454.22 330.829 452.948 330.164 451.843C330.042 451.559 329.848 451.313 329.601 451.127C329.354 450.942 329.064 450.824 328.757 450.785C328.565 450.794 328.379 450.857 328.222 450.967C328.064 451.076 327.94 451.229 327.865 451.406C327.762 451.664 327.694 451.935 327.661 452.211C327.588 452.693 327.588 453.184 327.661 453.666C327.795 454.476 328.129 455.239 328.631 455.888C329.504 456.984 330.397 457.217 330.407 457.149C330.416 457.081 329.728 456.644 329.058 455.587C328.673 454.974 328.421 454.286 328.321 453.569C328.263 453.151 328.263 452.727 328.321 452.308C328.379 451.852 328.544 451.474 328.709 451.522C328.874 451.571 329.301 451.843 329.485 452.211C329.713 452.58 329.904 452.97 330.057 453.375C330.317 454.064 330.477 454.786 330.533 455.519C330.707 456.79 330.504 457.585 330.62 457.614Z" fill="#263238"/>
<path d="M385.438 444.237L386.127 479.033L342.843 480.12C342.988 475.978 365.154 467.111 365.154 467.111L363.796 444.8L385.438 444.237Z" fill="#81C784"/>
<g opacity="0.6">
<path d="M378.512 464.948C378.917 465.071 379.266 465.333 379.497 465.688C379.728 466.043 379.825 466.468 379.773 466.888C379.673 467.308 379.417 467.675 379.056 467.913C378.696 468.151 378.258 468.242 377.833 468.169C377.388 468.048 377.004 467.765 376.756 467.375C376.509 466.986 376.415 466.518 376.494 466.064C376.641 465.63 376.951 465.271 377.359 465.065C377.768 464.858 378.241 464.819 378.677 464.958" fill="white"/>
</g>
<g opacity="0.6">
<path d="M386.127 479.033L385.923 475.532L344.492 477.879C344.492 477.879 342.552 478.762 342.843 480.12L386.127 479.033Z" fill="white"/>
</g>
<path d="M364.466 466.888C364.466 467.102 365.542 467.17 366.6 467.858C367.657 468.547 368.23 469.381 368.424 469.294C368.618 469.207 368.268 467.994 366.978 467.228C365.688 466.461 364.417 466.714 364.466 466.888Z" fill="#263238"/>
<path d="M359.974 468.906C359.974 469.11 360.857 469.449 361.594 470.322C362.331 471.195 362.564 472.136 362.778 472.127C362.991 472.117 363.098 470.914 362.157 469.837C361.216 468.761 359.974 468.702 359.974 468.906Z" fill="#263238"/>
<path d="M357.53 474.397C357.724 474.445 357.995 473.378 357.423 472.233C356.851 471.089 355.851 470.652 355.764 470.827C355.677 471.001 356.307 471.612 356.734 472.563C357.161 473.514 357.326 474.387 357.53 474.397Z" fill="#263238"/>
<path d="M364.727 461.796C364.815 461.99 365.775 461.679 366.978 461.728C368.181 461.776 369.112 462.135 369.219 461.951C369.325 461.766 368.413 460.981 366.997 460.981C365.581 460.981 364.611 461.64 364.727 461.796Z" fill="#263238"/>
<path d="M365.629 456.635C366.342 456.815 367.09 456.794 367.792 456.577C368.57 456.416 369.326 456.161 370.043 455.82C370.467 455.616 370.879 455.386 371.275 455.131C371.514 454.987 371.73 454.807 371.915 454.598C372.051 454.445 372.131 454.251 372.144 454.047C372.156 453.843 372.099 453.64 371.983 453.472C371.869 453.325 371.722 453.206 371.553 453.127C371.384 453.048 371.199 453.01 371.013 453.016C370.74 453.023 370.469 453.065 370.208 453.142C369.746 453.268 369.298 453.437 368.869 453.647C368.157 453.998 367.502 454.456 366.929 455.005C365.959 455.975 365.629 456.761 365.697 456.8C365.765 456.838 366.269 456.188 367.278 455.393C367.872 454.932 368.525 454.55 369.218 454.258C369.618 454.09 370.03 453.951 370.45 453.841C370.906 453.715 371.304 453.695 371.42 453.899C371.537 454.103 371.42 454.006 371.42 454.142C371.28 454.291 371.12 454.422 370.945 454.53C370.584 454.779 370.208 455.005 369.82 455.209C369.155 455.559 368.46 455.848 367.744 456.072C367.026 456.209 366.319 456.397 365.629 456.635Z" fill="#263238"/>
<path d="M365.911 456.935C366.305 456.308 366.486 455.569 366.425 454.83C366.451 453.538 366.115 452.265 365.455 451.154C365.331 450.872 365.136 450.626 364.89 450.441C364.643 450.256 364.354 450.137 364.048 450.096C363.853 450.1 363.664 450.162 363.505 450.274C363.345 450.387 363.224 450.544 363.156 450.727C363.052 450.982 362.983 451.249 362.952 451.522C362.883 452.008 362.883 452.501 362.952 452.987C363.088 453.793 363.421 454.553 363.922 455.199C364.795 456.305 365.687 456.528 365.707 456.46C365.726 456.392 365.028 455.965 364.349 454.898C363.962 454.286 363.71 453.598 363.611 452.881C363.553 452.465 363.553 452.044 363.611 451.629C363.67 451.164 363.835 450.785 364.009 450.834C364.184 450.882 364.591 451.164 364.785 451.522C365.004 451.895 365.192 452.284 365.348 452.687C365.606 453.379 365.766 454.104 365.823 454.84C365.998 456.111 365.794 456.906 365.911 456.935Z" fill="#263238"/>
<path d="M307.988 273.914C307.571 273.914 309.929 317.567 311.752 328.325C314.556 345.242 323.888 460.99 323.888 460.99H352.252L352.834 299.96L357.986 361.947L359.926 461.32L387.65 460.583L390.56 355.166C389.687 347.299 392.044 274.942 392.044 274.942L307.988 273.914Z" fill="#263238"/>
<path d="M320.822 111.011C317.475 109.459 315.38 106.035 314.148 102.562C312.916 99.089 312.353 95.3543 310.985 91.9687C310.015 89.4175 311.082 85.3529 308.793 83.8299C305.931 81.9383 305.96 76.894 307.066 74.3815C308.269 71.6459 311.538 69.6088 311.761 68.7455C312.343 66.4658 310.364 64.0018 311.102 61.7707C312.828 56.5227 317.106 57.2114 317.106 57.2114C319.046 54.8542 321.685 51.7306 325.963 50.6247C330.59 49.4315 337.429 48.5391 341.552 50.9642C345.675 53.3894 348.711 55.0191 350.04 59.6172" fill="#263238"/>
<path d="M358.965 122.322L349.265 138.988L335.858 152.375L327.991 141.568V130.674V121.546C327.991 121.546 315.875 119.878 315.516 107.791C315.341 101.97 315.962 89.9026 316.661 79.0088C317.018 73.3574 319.49 68.0478 323.585 64.1364C327.68 60.225 333.097 57.9986 338.759 57.9002H339.923C352.534 58.424 359.111 69.4051 358.238 81.9772L359.033 122.341" fill="#CE947A"/>
<path d="M320.133 87.9527C320.141 88.4025 320.321 88.832 320.638 89.1519C320.954 89.4718 321.381 89.6573 321.831 89.6697C322.051 89.6828 322.272 89.6518 322.48 89.5785C322.688 89.5053 322.88 89.3912 323.043 89.2431C323.207 89.0949 323.339 88.9156 323.432 88.7157C323.526 88.5158 323.578 88.2993 323.587 88.0788C323.579 87.629 323.399 87.1995 323.083 86.8796C322.766 86.5597 322.339 86.3742 321.889 86.3618C321.669 86.3487 321.448 86.3797 321.24 86.453C321.032 86.5262 320.841 86.6403 320.677 86.7884C320.514 86.9366 320.381 87.1159 320.288 87.3158C320.194 87.5157 320.142 87.7322 320.133 87.9527Z" fill="#263238"/>
<path d="M319.095 84.2374C319.319 84.4605 320.609 83.471 322.462 83.4419C324.314 83.4128 325.702 84.3247 325.896 84.0919C326.09 83.8591 325.769 83.5874 325.168 83.1218C324.356 82.5736 323.393 82.2922 322.413 82.3167C321.443 82.3472 320.508 82.6871 319.745 83.2867C319.183 83.7135 318.989 84.1404 319.095 84.2374Z" fill="#263238"/>
<path d="M337.585 87.5356C337.588 87.9852 337.766 88.4162 338.081 88.7368C338.396 89.0575 338.824 89.2425 339.273 89.2526C339.494 89.2657 339.714 89.2347 339.922 89.1614C340.131 89.0882 340.322 88.9741 340.485 88.826C340.649 88.6778 340.781 88.4985 340.875 88.2986C340.968 88.0987 341.021 87.8822 341.029 87.6617C341.024 87.2112 340.844 86.7802 340.528 86.4598C340.211 86.1394 339.782 85.9547 339.332 85.9447C339.112 85.9316 338.892 85.9627 338.684 86.036C338.476 86.1094 338.286 86.2236 338.123 86.3719C337.96 86.5201 337.829 86.6995 337.736 86.8994C337.644 87.0992 337.593 87.3156 337.585 87.5356Z" fill="#263238"/>
<path d="M337.604 83.4032C337.798 83.6457 339.185 82.8017 341.038 82.9763C342.891 83.1509 344.152 84.1986 344.375 83.9464C344.598 83.6942 344.307 83.4226 343.754 82.9763C343.008 82.3433 342.082 81.9599 341.106 81.8802C340.142 81.7882 339.174 82.0057 338.342 82.501C337.74 82.8987 337.507 83.2867 337.604 83.4032Z" fill="#263238"/>
<path d="M331.047 98.798C330.062 98.5087 329.046 98.3425 328.02 98.3033C327.545 98.3033 327.099 98.1772 327.05 97.8571C327.006 97.3666 327.107 96.874 327.341 96.4408C327.768 95.2864 328.214 94.0738 328.69 92.8127C330.543 87.6326 331.881 83.3837 331.678 83.3061C331.474 83.2285 329.786 87.3707 327.923 92.5508L326.643 96.1983C326.355 96.7781 326.277 97.4393 326.42 98.0705C326.493 98.2362 326.602 98.3834 326.74 98.501C326.878 98.6186 327.04 98.7035 327.215 98.7495C327.478 98.8161 327.749 98.8487 328.02 98.8465C329.027 98.9577 330.044 98.9414 331.047 98.798Z" fill="#263238"/>
<path d="M336.537 99.9912C336.236 99.9912 336.266 101.999 334.597 103.454C332.929 104.909 330.717 104.735 330.717 105.016C330.717 105.142 331.202 105.394 332.104 105.404C333.287 105.404 334.431 104.984 335.334 104.221C336.2 103.485 336.746 102.441 336.857 101.31C336.916 100.476 336.673 99.9718 336.537 99.9912Z" fill="#263238"/>
<path d="M337.72 77.2821C337.876 77.7962 339.738 77.6798 341.901 78.0872C344.065 78.4947 345.782 79.2125 346.092 78.776C346.238 78.5723 345.966 78.0775 345.287 77.5343C344.385 76.8656 343.338 76.4201 342.231 76.2344C341.128 76.0218 339.99 76.0784 338.914 76.3993C338.06 76.6709 337.662 77.0396 337.72 77.2821Z" fill="#263238"/>
<path d="M319.881 79.4841C320.211 79.9012 321.492 79.4841 323.024 79.3968C324.557 79.3095 325.876 79.6296 326.167 79.1834C326.293 78.9699 326.08 78.5431 325.508 78.1551C324.735 77.6886 323.841 77.4625 322.939 77.5057C322.037 77.5489 321.169 77.8594 320.444 78.3976C319.901 78.8632 319.736 79.2804 319.881 79.4841Z" fill="#263238"/>
<path d="M349.138 58.7538C349.143 60.0976 348.852 61.426 348.285 62.6445C347.718 63.863 346.89 64.9417 345.86 65.8039C344.829 66.6661 343.621 67.2906 342.321 67.633C341.022 67.9754 339.663 68.0274 338.341 67.7851C336.294 67.4165 334.053 66.3785 332.288 67.4747C330.522 68.5709 330.348 71.4228 328.699 72.8585C326.341 74.9054 322.587 72.9846 319.59 73.8286C317.281 74.5173 315.836 76.7388 314.303 78.5819C312.77 80.425 310.423 82.2099 308.153 81.4921C308.221 79.4075 308.527 77.3376 309.065 75.3225C309.622 73.2906 310.862 71.5127 312.576 70.2879C313.575 69.7657 314.546 69.1926 315.487 68.5709C317.427 67.0188 317.853 64.322 319.037 62.1587C319.817 60.7684 320.918 59.5839 322.247 58.7033C323.576 57.8227 325.096 57.2714 326.681 57.095C329.32 56.8234 332.026 57.6091 334.597 56.9689C336.488 56.4839 338.147 55.2519 340.068 54.893C343.812 54.1751 347.285 56.8331 350.001 59.5396" fill="#263238"/>
<path d="M337.168 64.0794C338.846 63.5944 342.28 62.5079 343.172 61.0528C345.113 57.8904 348.576 55.7369 352.097 55.9309C353.918 56.0721 355.645 56.7997 357.018 58.0047C358.39 59.2097 359.336 60.8271 359.712 62.6146C361.899 62.6942 364.024 63.3614 365.864 64.546C367.704 65.7306 369.192 67.389 370.169 69.3469C371.174 71.4015 371.665 73.6696 371.599 75.956C371.533 78.2424 370.913 80.4785 369.791 82.4718C369.065 83.4132 368.594 84.5257 368.423 85.7021C368.423 87.196 369.51 88.3698 370.286 89.5824C372.4 92.9388 372.226 97.5563 370.606 101.223C368.986 104.89 367.812 106.161 365.484 106.898C360.915 108.324 365.484 117.51 357.859 117.51L356.326 90.3487C356.106 90.4728 355.867 90.5612 355.618 90.6106C351.117 91.6292 350.526 82.8501 351.534 80.3377C349.838 78.9513 348.323 77.3577 347.024 75.5941C345.782 73.7607 344.686 68.8036 344.948 66.5046C343.328 66.5628 336.43 64.3123 337.168 64.0794Z" fill="#263238"/>
<path d="M355.696 90.504C355.899 90.407 363.961 87.9042 363.835 96.1691C363.708 104.434 355.434 102.61 355.424 102.378C355.414 102.145 355.696 90.504 355.696 90.504Z" fill="#CE947A"/>
<path d="M357.995 99.2346C357.995 99.2346 358.141 99.3413 358.383 99.4577C358.728 99.5994 359.115 99.5994 359.46 99.4577C360.343 99.1473 361.1 97.7698 361.158 96.2856C361.187 95.5782 361.061 94.8729 360.789 94.2193C360.713 93.9605 360.577 93.7234 360.392 93.5277C360.206 93.3321 359.976 93.1834 359.722 93.0941C359.557 93.0483 359.38 93.0609 359.223 93.1298C359.066 93.1988 358.937 93.3197 358.859 93.4724C358.752 93.7052 358.8 93.8701 358.752 93.8798C358.703 93.8895 358.577 93.744 358.645 93.4045C358.7 93.2008 358.819 93.0203 358.985 92.8904C359.213 92.721 359.499 92.6479 359.78 92.6866C360.119 92.759 360.434 92.9176 360.694 93.1469C360.954 93.3763 361.15 93.6688 361.264 93.9962C361.607 94.7159 361.767 95.5088 361.73 96.305C361.652 97.9735 360.76 99.5159 359.577 99.8457C359.355 99.9071 359.122 99.918 358.895 99.8777C358.669 99.8374 358.454 99.7469 358.267 99.6129C358.015 99.4674 357.966 99.2831 357.995 99.2346Z" fill="#A56349"/>
<path d="M369.413 103.677C368.909 104.225 368.53 104.876 368.303 105.585C368.076 106.294 368.006 107.044 368.098 107.783C368.191 108.521 368.443 109.231 368.837 109.862C369.232 110.494 369.76 111.031 370.383 111.438C370.044 111.743 369.647 111.977 369.215 112.126C368.783 112.274 368.326 112.334 367.871 112.301C367.551 113.339 369.015 114.057 369.316 115.105C369.385 115.426 369.368 115.759 369.265 116.071C369.163 116.383 368.98 116.662 368.734 116.88C368.243 117.32 367.665 117.65 367.037 117.85C365.2 118.508 363.273 118.878 361.323 118.946C360.76 119.025 360.187 118.978 359.644 118.811C359.1 118.643 358.601 118.358 358.18 117.976C357.653 117.184 357.408 116.238 357.481 115.289L357.278 108.237C357.185 107.545 357.314 106.842 357.646 106.229C358.177 105.634 358.903 105.248 359.693 105.142L369.714 102.581" fill="#263238"/>
<path d="M394.828 264.834C393.538 257.267 385.787 220.735 385.787 220.735L390.579 133.429C388.367 131.945 358.945 121.274 358.945 121.274C358.945 121.274 354.415 134.719 340.02 137.668C325.624 140.617 327.913 129.84 327.913 129.84C327.913 129.84 299.781 144.866 298.142 145.972C296.503 147.078 289.499 175.307 289.499 175.307L284.202 193.573L306.446 198.744C306.446 198.744 306.999 242.29 306.446 245.423C305.893 248.556 304.777 273.846 304.777 273.846L392.083 274.952C392.083 274.952 396.118 272.4 394.828 264.834Z" fill="#81C784"/>
<path d="M390.58 133.458C390.58 133.458 395.963 138.735 397.768 143.954C399.572 149.173 405.15 183.397 405.15 183.397C405.15 183.397 374.535 187.724 374.535 187.18C374.535 186.637 377.231 167.546 378.134 161.61C379.036 155.673 390.58 133.458 390.58 133.458Z" fill="#81C784"/>
<path d="M324.867 175.53L322.84 180.244H321.569L319.551 175.53H320.997L322.277 178.605L323.587 175.53H324.867Z" fill="white"/>
<path d="M324.838 177.887C324.803 177.361 324.927 176.836 325.195 176.381C325.462 175.926 325.86 175.562 326.336 175.337C326.813 175.111 327.347 175.034 327.868 175.115C328.389 175.197 328.874 175.434 329.259 175.794C329.644 176.155 329.911 176.623 330.027 177.138C330.142 177.653 330.1 178.19 329.905 178.681C329.711 179.171 329.374 179.592 328.937 179.888C328.501 180.184 327.985 180.342 327.458 180.341C327.122 180.363 326.786 180.315 326.469 180.201C326.153 180.088 325.863 179.91 325.618 179.68C325.372 179.45 325.176 179.173 325.042 178.864C324.908 178.556 324.839 178.223 324.838 177.887ZM328.719 177.887C328.705 177.637 328.619 177.396 328.47 177.194C328.321 176.993 328.116 176.839 327.881 176.753C327.645 176.667 327.39 176.651 327.146 176.709C326.902 176.767 326.68 176.894 326.508 177.077C326.336 177.259 326.221 177.488 326.178 177.735C326.135 177.982 326.166 178.236 326.266 178.466C326.366 178.696 326.531 178.892 326.741 179.028C326.951 179.165 327.197 179.237 327.448 179.236C327.623 179.239 327.796 179.205 327.958 179.138C328.119 179.07 328.264 178.97 328.385 178.843C328.505 178.716 328.598 178.566 328.657 178.401C328.716 178.237 328.74 178.062 328.728 177.887H328.719Z" fill="white"/>
<path d="M330.775 175.53H332.104V179.187H334.354V180.244H330.775V175.53Z" fill="white"/>
<path d="M334.792 178.149V175.53H336.12V178.101C336.12 178.915 336.46 179.236 337.023 179.236C337.585 179.236 337.905 178.915 337.905 178.101V175.53H339.225V178.149C339.187 178.712 338.938 179.239 338.526 179.624C338.115 180.01 337.572 180.224 337.008 180.224C336.444 180.224 335.902 180.01 335.49 179.624C335.078 179.239 334.829 178.712 334.792 178.149Z" fill="white"/>
<path d="M344.608 175.53V180.244H343.512L341.426 177.732V180.244H340.117V175.53H341.213L343.299 178.042V175.53H344.608Z" fill="white"/>
<path d="M346.548 176.587H345.103V175.53H349.323V176.587H347.887V180.244H346.548V176.587Z" fill="white"/>
<path d="M353.582 179.216V180.244H349.798V175.53H353.494V176.558H351.118V177.354H353.213V178.324H351.118V179.187L353.582 179.216Z" fill="white"/>
<path d="M358.131 179.216V180.244H354.348V175.53H358.044V176.558H355.667V177.354H357.762V178.324H355.667V179.187L358.131 179.216Z" fill="white"/>
<path d="M360.925 178.993H360.197V180.244H358.868V175.53H361.022C362.312 175.53 363.117 176.199 363.117 177.276C363.127 177.587 363.046 177.894 362.881 178.158C362.717 178.422 362.479 178.632 362.195 178.76L363.214 180.244H361.778L360.925 178.993ZM360.925 176.578H360.178V177.965H360.925C361.478 177.965 361.749 177.703 361.749 177.276C361.749 176.849 361.497 176.578 360.944 176.578H360.925Z" fill="white"/>
<path d="M306.523 213.275C306.471 213.122 306.445 212.961 306.445 212.8C306.445 212.421 306.368 211.956 306.309 211.403C306.222 210.2 306.125 208.493 306.057 206.281C305.912 201.945 305.863 195.969 305.912 189.353C305.96 182.738 306.077 176.743 306.203 172.435C306.271 170.33 306.339 168.555 306.377 167.314C306.377 166.751 306.436 166.295 306.455 165.917C306.455 165.753 306.478 165.589 306.523 165.432C306.546 165.592 306.546 165.756 306.523 165.917C306.523 166.295 306.523 166.761 306.523 167.314C306.523 168.604 306.523 170.34 306.523 172.445C306.523 176.84 306.436 182.786 306.377 189.363C306.319 195.94 306.329 201.974 306.377 206.271C306.377 208.434 306.436 210.151 306.474 211.393C306.474 211.956 306.474 212.363 306.474 212.79C306.512 212.949 306.528 213.112 306.523 213.275Z" fill="#263238"/>
<path d="M377.299 156.342C377.349 156.719 377.349 157.1 377.299 157.477C377.299 158.321 377.299 159.349 377.25 160.572C377.25 163.307 377.192 166.858 377.153 170.796C377.115 174.735 377.047 178.401 376.911 181.021C376.843 182.33 376.775 183.387 376.697 184.115C376.679 184.495 376.624 184.872 376.532 185.24C376.483 184.864 376.483 184.482 376.532 184.105C376.532 183.261 376.532 182.233 376.532 181.011C376.532 178.275 376.591 174.725 376.63 170.786C376.668 166.848 376.746 163.181 376.872 160.562C376.94 159.252 377.018 158.195 377.085 157.467C377.119 157.086 377.191 156.709 377.299 156.342Z" fill="#263238"/>
<path d="M389.658 134.157C385.439 135.638 381.756 138.339 379.075 141.917C379.298 141.3 379.626 140.725 380.045 140.22C381.009 138.94 382.16 137.811 383.459 136.873C384.752 135.926 386.177 135.175 387.689 134.642C388.311 134.362 388.978 134.198 389.658 134.157Z" fill="#263238"/>
<path d="M304.904 155.75C304.778 155.828 303.497 153.616 301.605 151.123C299.714 148.63 297.958 146.768 298.065 146.661C300.99 149.135 303.313 152.243 304.855 155.75H304.904Z" fill="#263238"/>
<path d="M358.48 210.491C358.392 210.65 358.288 210.799 358.17 210.937C357.917 211.257 357.607 211.665 357.2 212.15C356.375 213.207 355.133 214.701 353.562 216.505C349.456 221.217 345.101 225.705 340.515 229.95C335.927 234.192 331.118 238.187 326.109 241.921C324.169 243.347 322.597 244.472 321.482 245.21L320.192 246.063C320.048 246.173 319.892 246.264 319.726 246.335C319.849 246.205 319.986 246.088 320.133 245.986L321.365 245.016C322.452 244.22 323.994 243.075 325.896 241.591C329.679 238.681 334.811 234.5 340.175 229.543C345.539 224.586 350.089 219.794 353.3 216.234C354.901 214.459 356.21 213.003 357.054 211.985L358.024 210.831C358.335 210.607 358.432 210.481 358.48 210.491Z" fill="#263238"/>
<path d="M395.362 322.349L406.935 286.913C408.661 281.616 410.553 276.067 414.695 272.362C417.111 270.189 420.787 268.772 423.6 270.421C424.521 271.041 425.277 271.876 425.804 272.852C426.331 273.829 426.614 274.919 426.627 276.028C426.641 278.247 426.277 280.451 425.55 282.547C420.894 298.679 415.229 314.491 409.34 330.216L409.942 329.13" fill="#A56349"/>
<path d="M410.815 314.239C410.815 314.394 408.981 313.997 406.934 313.114C404.888 312.231 403.326 311.242 403.413 311.096C403.5 310.951 405.13 311.698 407.167 312.551C409.204 313.405 410.883 314.074 410.815 314.239Z" fill="#263238"/>
<path d="M414.695 305.683C414.627 305.839 412.755 305.072 410.378 304.141C408.001 303.21 406.129 302.443 406.178 302.278C406.226 302.113 408.234 302.628 410.601 303.578C412.968 304.529 414.695 305.528 414.695 305.683Z" fill="#263238"/>
<path d="M418.246 298.612C418.149 298.757 416.306 297.574 413.832 296.516C411.359 295.459 409.254 294.916 409.293 294.731C409.331 294.547 411.553 294.857 414.075 295.954C416.597 297.05 418.343 298.485 418.246 298.612Z" fill="#263238"/>
<path d="M420.516 289.697C420.399 289.832 418.808 288.523 416.577 287.388C414.346 286.253 412.377 285.7 412.416 285.525C412.454 285.351 414.55 285.651 416.859 286.845C419.167 288.038 420.622 289.59 420.516 289.697Z" fill="#263238"/>
<path d="M395.129 292.044H391.676V298.883H395.129V292.044Z" fill="#263238"/>
<path d="M391.268 312.231V297.962H395.478V309.864C395.478 309.864 399.911 309.99 400.464 311.94C401.677 316.228 401.143 325.87 401.143 325.87L391.268 312.231Z" fill="#455A64"/>
<path d="M427.694 350.151C426.501 342.982 424.668 335.891 424.318 328.635C424.085 323.659 424.561 318.643 423.94 313.696C423.193 307.74 420.894 302.104 418.614 296.555C417.14 292.956 415.53 289.182 412.454 286.786C410.592 285.389 408.341 284.606 406.013 284.546C401.784 282.809 390.182 282.314 386.515 290.094C384.575 294.227 384.342 298.932 383.226 303.375C381.733 309.35 382.809 311.319 380.85 317.159C376.688 329.644 370.373 345.136 372.216 358.173C372.575 360.705 376.795 364.876 378.231 366.991C380.297 370.047 384.051 371.415 387.698 372.191C398.001 374.346 408.72 373.199 418.333 368.912C421.767 367.37 425.191 365.274 426.928 361.937C428.771 358.387 428.354 354.109 427.694 350.151ZM416.694 309.893C414.753 311.523 411.921 310.728 409.408 310.601C406.392 310.446 403.443 311.426 400.464 311.94C397.486 312.454 394.159 312.435 391.734 310.592C389.961 309.084 388.847 306.943 388.63 304.626C388.422 302.334 388.549 300.023 389.008 297.768C389.212 296.006 389.662 294.282 390.347 292.646C391.041 290.992 392.338 289.664 393.975 288.93C395.915 287.96 402.919 287.32 405.616 286.913C408.013 288.116 410.098 289.859 411.708 292.005C413.863 294.993 415.609 298.255 416.897 301.706C417.528 303.027 417.938 304.443 418.11 305.897C418.199 306.627 418.117 307.368 417.871 308.061C417.625 308.755 417.222 309.382 416.694 309.893Z" fill="#FAFAFA"/>
<path d="M416.694 309.893C417.168 309.413 417.529 308.833 417.751 308.196C418.006 307.434 418.095 306.627 418.013 305.829C417.879 304.752 417.591 303.7 417.159 302.705C416.09 299.984 414.829 297.342 413.386 294.799C411.576 291.53 408.847 288.862 405.538 287.126H405.674L399.999 287.873C399.029 288.009 398.059 288.164 397.031 288.348C396.034 288.505 395.058 288.772 394.121 289.144C392.581 289.833 391.353 291.071 390.677 292.617C390.07 293.999 389.655 295.458 389.445 296.953C389.202 298.437 388.96 299.863 388.863 301.337C388.744 302.745 388.822 304.162 389.096 305.547C389.372 306.862 389.931 308.1 390.735 309.176C391.52 310.181 392.567 310.949 393.762 311.397C394.904 311.801 396.109 312.001 397.322 311.989C399.52 311.902 401.703 311.577 403.831 311.019C405.622 310.585 407.46 310.38 409.302 310.407C410.922 310.504 412.29 310.757 413.415 310.757C414.28 310.799 415.142 310.643 415.937 310.301C416.471 310.039 416.704 309.825 416.723 309.845C416.508 310.067 416.259 310.254 415.986 310.398C415.185 310.783 414.304 310.972 413.415 310.951C412.27 310.951 410.883 310.757 409.292 310.689C407.477 310.693 405.668 310.921 403.908 311.368C401.752 311.933 399.54 312.259 397.312 312.338C396.051 312.364 394.795 312.16 393.606 311.736C392.331 311.276 391.212 310.466 390.376 309.399C388.714 307.024 387.998 304.115 388.368 301.24C388.465 299.766 388.708 298.33 388.95 296.798C389.171 295.26 389.599 293.759 390.221 292.335C390.95 290.667 392.28 289.334 393.946 288.6C394.93 288.211 395.955 287.935 397.002 287.776C397.972 287.592 399 287.436 399.989 287.301L405.655 286.573H405.732H405.8C409.182 288.357 411.957 291.105 413.774 294.469C415.213 297.038 416.451 299.714 417.48 302.472C417.906 303.497 418.181 304.579 418.294 305.683C418.361 306.51 418.245 307.341 417.955 308.118C417.772 308.602 417.499 309.046 417.15 309.428C417.024 309.607 416.87 309.764 416.694 309.893Z" fill="#263238"/>
<path d="M427.695 350.151C427.695 350.151 427.889 350.975 428.092 352.576C428.229 353.563 428.307 354.558 428.325 355.554C428.363 356.918 428.223 358.281 427.908 359.609C427.503 361.285 426.701 362.838 425.57 364.139C424.211 365.659 422.592 366.924 420.788 367.874C416.405 370.174 411.693 371.781 406.819 372.637C400.908 373.71 394.852 373.71 388.941 372.637C387.314 372.371 385.714 371.966 384.158 371.424C382.527 370.88 381.011 370.038 379.686 368.941C379.024 368.371 378.437 367.719 377.94 367.001C377.445 366.302 376.883 365.633 376.32 364.954C375.139 363.602 374.044 362.176 373.041 360.686C372.508 359.907 372.144 359.024 371.974 358.096C371.887 357.174 371.751 356.253 371.722 355.321C371.629 353.439 371.661 351.553 371.819 349.676C372.173 345.814 372.848 341.988 373.837 338.239C374.807 334.416 376.019 330.585 377.319 326.734C377.979 324.793 378.648 322.853 379.318 320.913C379.987 318.973 380.705 317.033 381.258 315.015C381.727 312.982 382.012 310.911 382.111 308.826C382.289 306.75 382.642 304.692 383.169 302.676C384.09 298.699 384.41 294.586 385.962 290.832C386.149 290.363 386.369 289.909 386.622 289.473C386.856 289.025 387.132 288.599 387.447 288.203C388.051 287.4 388.77 286.69 389.581 286.098C391.19 284.959 393.016 284.163 394.945 283.76C396.814 283.35 398.729 283.193 400.64 283.294C402.513 283.361 404.366 283.717 406.13 284.352H406.276V284.516L406.052 284.284C408.783 284.346 411.397 285.402 413.406 287.252C415.223 289.072 416.661 291.235 417.635 293.616C419.55 297.923 421.225 302.334 422.65 306.828C423.279 308.901 423.749 311.018 424.057 313.162C424.314 315.167 424.44 317.185 424.435 319.206C424.435 323.086 424.299 326.656 424.542 329.877C424.761 332.752 425.126 335.614 425.638 338.452C426.065 340.935 426.472 343.06 426.792 344.786C427.113 346.513 427.345 347.832 427.501 348.735C427.568 349.171 427.617 349.511 427.656 349.753C427.695 349.996 427.656 350.102 427.656 350.102C427.656 350.102 427.656 349.986 427.578 349.763C427.501 349.54 427.462 349.181 427.384 348.744C427.2 347.832 426.948 346.513 426.608 344.806C426.269 343.099 425.832 340.974 425.376 338.491C424.847 335.647 424.462 332.778 424.222 329.896C423.96 326.656 424.105 323.106 424.067 319.225C424.054 317.22 423.914 315.218 423.649 313.23C423.34 311.106 422.87 309.007 422.243 306.954C420.793 302.481 419.103 298.09 417.179 293.8C416.221 291.475 414.81 289.365 413.027 287.592C411.098 285.822 408.592 284.815 405.975 284.759H405.752V284.516L405.897 284.73C404.179 284.134 402.38 283.807 400.562 283.76C398.694 283.665 396.822 283.818 394.994 284.216C393.129 284.606 391.365 285.379 389.814 286.486C389.04 287.048 388.353 287.721 387.776 288.484C387.48 288.863 387.22 289.269 387 289.697C386.756 290.121 386.542 290.562 386.36 291.016C384.857 294.663 384.527 298.776 383.605 302.773C383.081 304.766 382.73 306.801 382.558 308.855C382.456 310.966 382.167 313.063 381.694 315.122C381.151 317.169 380.423 319.109 379.754 321.068C379.085 323.028 378.425 324.949 377.756 326.889C376.456 330.769 375.253 334.552 374.283 338.365C373.293 342.085 372.615 345.881 372.255 349.714C372.099 351.569 372.064 353.433 372.149 355.292C372.149 356.214 372.323 357.126 372.401 358.028C372.545 358.891 372.876 359.712 373.371 360.434C374.357 361.91 375.436 363.323 376.601 364.663C377.164 365.352 377.727 366.021 378.241 366.739C378.707 367.458 379.268 368.111 379.909 368.679C381.192 369.739 382.658 370.555 384.236 371.085C385.771 371.618 387.348 372.024 388.95 372.297C394.809 373.385 400.815 373.411 406.683 372.375C411.529 371.543 416.218 369.97 420.584 367.709C422.366 366.783 423.971 365.552 425.328 364.071C426.439 362.801 427.234 361.285 427.646 359.648C428.157 357.359 428.252 354.996 427.927 352.673C427.83 351.887 427.753 351.286 427.704 350.859C427.656 350.432 427.695 350.151 427.695 350.151Z" fill="#263238"/>
<path d="M416.694 309.893C417.153 309.405 417.507 308.827 417.732 308.196C417.985 307.434 418.075 306.627 417.994 305.829C417.86 304.754 417.569 303.705 417.13 302.715C416.061 299.995 414.796 297.356 413.347 294.819C411.542 291.553 408.816 288.891 405.509 287.165H405.674L399.999 287.912C399.029 288.057 398.059 288.203 397.04 288.387C396.045 288.545 395.069 288.808 394.13 289.173C392.605 289.864 391.389 291.093 390.715 292.626C390.11 294.005 389.699 295.461 389.493 296.953C389.241 298.427 389.008 299.863 388.901 301.337C388.55 304.065 389.212 306.827 390.764 309.098C391.541 310.098 392.583 310.861 393.771 311.3C394.908 311.703 396.106 311.907 397.312 311.901C399.506 311.809 401.685 311.484 403.811 310.931C405.604 310.493 407.446 310.288 409.292 310.32C410.922 310.417 412.28 310.679 413.405 310.679C414.266 310.725 415.126 310.573 415.918 310.233C416.451 309.981 416.684 309.767 416.713 309.787C416.503 310.017 416.253 310.207 415.976 310.349C415.177 310.743 414.295 310.936 413.405 310.912C412.26 310.912 410.873 310.718 409.282 310.66C407.47 310.667 405.664 310.899 403.908 311.348C401.751 311.934 399.535 312.279 397.302 312.377C396.038 312.394 394.781 312.19 393.587 311.775C392.3 311.311 391.171 310.494 390.327 309.418C388.662 307.03 387.942 304.109 388.31 301.221C388.407 299.746 388.649 298.311 388.892 296.778C389.104 295.231 389.535 293.722 390.172 292.296C390.905 290.62 392.242 289.28 393.917 288.542C394.902 288.145 395.931 287.865 396.982 287.708C397.952 287.514 398.99 287.368 399.97 287.233L405.645 286.505H405.732H405.81C409.197 288.296 411.979 291.051 413.803 294.421C415.235 296.995 416.471 299.673 417.499 302.434C417.928 303.46 418.2 304.546 418.304 305.654C418.367 306.485 418.248 307.319 417.955 308.099C417.772 308.582 417.498 309.027 417.15 309.408C417.028 309.596 416.874 309.761 416.694 309.893Z" fill="#263238"/>
<path d="M419.836 340.276C419.757 339.632 419.517 339.019 419.139 338.492C418.761 337.965 418.257 337.541 417.673 337.259C415.869 336.473 413.793 337.56 412.483 339.053C411.174 340.547 410.466 342.429 409.292 343.991C408.261 345.342 406.931 346.436 405.406 347.187C403.881 347.937 402.203 348.324 400.503 348.318C396.371 348.318 392.248 345.883 388.3 347.105C386.951 347.522 385.603 348.579 385.593 350.015C385.68 350.983 386.126 351.883 386.845 352.537C388.816 354.644 391.409 356.065 394.246 356.592C399.155 356.426 403.983 355.299 408.458 353.275C413.638 351.063 417.45 348.327 419.235 344.078C419.783 342.891 419.991 341.574 419.836 340.276Z" fill="#CECECE"/>
<path d="M419.158 346.096C418.924 346.434 418.646 346.741 418.333 347.008C417.526 347.79 416.674 348.525 415.782 349.21C409.836 353.77 402.642 356.409 395.159 356.776C394.035 356.848 392.907 356.848 391.783 356.776C391.371 356.776 390.96 356.724 390.561 356.621C390.561 356.505 392.316 356.621 395.13 356.379C402.474 355.777 409.516 353.188 415.501 348.89C417.81 347.221 419.09 346.009 419.158 346.096Z" fill="#263238"/>
<path d="M417.731 324.192C417.742 324.71 417.693 325.228 417.586 325.734C417.45 326.705 417.236 328.14 416.887 329.886C416.486 331.943 415.918 333.965 415.19 335.93C414.301 338.36 413.009 340.623 411.367 342.623C409.708 344.638 407.57 346.205 405.149 347.183C403.166 347.932 401.049 348.262 398.931 348.153C397.511 348.1 396.105 347.855 394.75 347.425C394.275 347.27 393.916 347.124 393.673 347.018C393.431 346.911 393.315 346.843 393.324 346.824C395.154 347.344 397.04 347.644 398.941 347.716C400.995 347.752 403.036 347.379 404.946 346.62C407.266 345.655 409.311 344.132 410.902 342.187C414.355 338.054 415.645 333.155 416.46 329.76C416.868 328.034 417.149 326.627 417.353 325.647C417.43 325.151 417.557 324.663 417.731 324.192Z" fill="#263238"/>
<path d="M386.379 341.168C385.765 340.768 385.243 340.243 384.847 339.626C383.778 338.221 382.997 336.619 382.548 334.911C382.089 333.202 381.964 331.42 382.179 329.663C382.223 328.934 382.414 328.221 382.742 327.568C382.945 327.568 382.053 330.866 383.13 334.746C384.206 338.627 386.564 341.052 386.379 341.168Z" fill="#263238"/>
<path d="M387.873 312.047C387.461 310.839 387.166 309.595 386.99 308.332C386.387 305.293 386.198 302.186 386.428 299.097C386.683 295.971 387.775 292.972 389.59 290.414C390.146 289.648 390.798 288.957 391.53 288.358C391.781 288.114 392.073 287.916 392.394 287.776C391.514 288.689 390.697 289.662 389.949 290.686C388.298 293.238 387.299 296.156 387.039 299.184C386.816 302.225 386.943 305.281 387.417 308.293C387.648 309.533 387.8 310.787 387.873 312.047Z" fill="#263238"/>
<path d="M379.947 186.773L387.562 220.997L389.842 274.719L406.43 273.487L408.836 218.737L403.442 183.64L379.947 186.773Z" fill="#CE947A"/>
<path d="M391.608 294.508C391.444 294.585 391.265 294.625 391.084 294.624C390.903 294.624 390.724 294.583 390.561 294.505C390.398 294.427 390.254 294.314 390.139 294.174C390.025 294.033 389.943 293.869 389.9 293.693C389.27 291.346 387.64 284.963 387.679 282.596C387.737 279.618 389.444 268.142 389.444 268.142L406.741 268.258L411.087 284.041C411.087 284.041 409.952 290.521 408.817 290.9C408.094 291.083 407.362 291.226 406.624 291.326L406.149 293.315C405.179 296.351 401.58 295.517 401.58 295.517C401.419 296.103 401.127 296.644 400.725 297.1C400.323 297.556 399.823 297.913 399.261 298.146C398.742 298.33 398.181 298.364 397.643 298.242C397.106 298.12 396.614 297.848 396.225 297.457C396.225 297.457 393.858 298.844 392.82 297.69C391.782 296.536 392.073 294.052 392.073 294.052C391.975 294.253 391.811 294.414 391.608 294.508Z" fill="#CE947A"/>
<path d="M392.113 295.352C392.141 295.175 392.141 294.995 392.113 294.819C392.118 294.336 392.095 293.853 392.045 293.373C391.948 292.161 391.695 290.463 391.414 288.659C391.156 287.102 390.991 285.531 390.919 283.954C390.919 282.751 391.065 282.014 391.016 282.014C390.936 282.173 390.881 282.343 390.851 282.518C390.752 282.994 390.697 283.478 390.687 283.964C390.691 285.557 390.831 287.147 391.104 288.717C391.385 290.55 391.666 292.209 391.822 293.412C391.977 294.615 392.064 295.352 392.113 295.352Z" fill="#A56349"/>
<path d="M396.128 297.476C396.288 297.074 396.38 296.648 396.399 296.215C396.517 295.185 396.547 294.147 396.487 293.111C396.419 291.899 396.302 290.802 396.196 290.026C396.17 289.595 396.092 289.168 395.963 288.756C395.951 290.213 396.016 291.67 396.157 293.121C396.214 294.145 396.214 295.172 396.157 296.196C396.111 296.621 396.101 297.05 396.128 297.476Z" fill="#A56349"/>
<path d="M401.618 295.546C401.881 294.333 401.969 293.088 401.88 291.85C401.894 290.608 401.717 289.372 401.356 288.183C401.269 288.183 401.492 289.832 401.55 291.86C401.609 293.887 401.521 295.536 401.618 295.546Z" fill="#A56349"/>
<path d="M406.149 293.315C406.55 291.433 406.51 289.484 406.032 287.621C406.002 288.572 406.024 289.524 406.1 290.473C406.139 292.034 406.061 293.305 406.149 293.315Z" fill="#A56349"/>
<path d="M401.114 285.816C401.114 285.816 401.211 285.613 401.114 285.283C401.031 284.853 400.806 284.463 400.474 284.177C400.131 283.898 399.703 283.744 399.261 283.74C398.931 283.74 398.737 283.837 398.747 283.876C399.288 283.932 399.807 284.118 400.26 284.42C400.657 284.806 400.951 285.287 401.114 285.816Z" fill="#A56349"/>
<path d="M406.022 284.167C406.11 284.167 406.022 283.517 405.353 283.1C405.184 282.957 404.979 282.862 404.76 282.826C404.542 282.79 404.317 282.815 404.111 282.896C404.111 282.993 404.655 283.013 405.178 283.372C405.702 283.731 405.964 284.196 406.022 284.167Z" fill="#A56349"/>
<path d="M395.381 285.011C395.469 285.011 395.498 284.546 395.081 284.225C394.664 283.905 394.217 284.031 394.246 284.119C394.276 284.206 394.586 284.235 394.887 284.478C395.187 284.72 395.294 285.021 395.381 285.011Z" fill="#A56349"/>
<path d="M389.473 268.142C389.47 268.187 389.47 268.232 389.473 268.278L389.405 268.704C389.337 269.093 389.25 269.675 389.143 270.344C388.92 271.77 388.61 273.856 388.261 276.475C388.096 277.794 387.911 279.23 387.756 280.801C387.652 281.615 387.616 282.436 387.649 283.255C387.72 284.128 387.837 284.995 387.999 285.855C388.319 287.621 388.746 289.474 389.221 291.394C389.347 291.87 389.463 292.364 389.59 292.849C389.658 293.092 389.725 293.334 389.784 293.587C389.842 293.862 389.969 294.119 390.152 294.334C390.349 294.558 390.617 294.71 390.911 294.763C391.206 294.816 391.509 294.767 391.772 294.625C391.849 294.567 391.904 294.485 391.927 294.392C391.954 294.322 391.977 294.251 391.995 294.178C391.995 294.043 392.054 293.916 392.073 293.781C392.108 293.507 392.127 293.232 392.131 292.956C392.131 292.915 392.115 292.875 392.086 292.846C392.057 292.817 392.017 292.801 391.976 292.801C391.935 292.801 391.895 292.817 391.866 292.846C391.837 292.875 391.821 292.915 391.821 292.956C391.803 293.655 391.829 294.355 391.898 295.051C391.953 295.772 392.114 296.482 392.374 297.156C392.516 297.523 392.766 297.838 393.092 298.059C393.436 298.253 393.832 298.338 394.226 298.301C394.983 298.219 395.714 297.978 396.37 297.593H396.167C396.443 297.878 396.772 298.105 397.137 298.262C397.61 298.449 398.121 298.52 398.627 298.47C399.133 298.419 399.62 298.248 400.047 297.971C400.869 297.396 401.466 296.552 401.735 295.585L401.541 295.701C402.512 295.91 403.523 295.832 404.451 295.478C404.897 295.291 405.295 295.006 405.617 294.645C405.939 294.285 406.177 293.857 406.313 293.393C406.469 292.714 406.624 292.054 406.779 291.394L406.663 291.511C407.09 291.452 407.516 291.375 407.933 291.297L408.554 291.171L408.874 291.084C408.992 291.031 409.097 290.955 409.185 290.861C409.456 290.525 409.666 290.144 409.806 289.735C409.961 289.347 410.087 288.959 410.203 288.571C410.619 287.099 410.959 285.606 411.222 284.099V284.041L408.001 272.565C407.613 271.217 407.313 270.15 407.099 269.403C406.993 269.054 406.905 268.772 406.847 268.569C406.827 268.474 406.795 268.383 406.75 268.297C406.763 268.392 406.782 268.486 406.808 268.578C406.866 268.792 406.934 269.063 407.022 269.422C407.216 270.179 407.507 271.246 407.866 272.614C408.613 275.379 409.68 279.327 410.97 284.119V284.061C410.703 285.555 410.36 287.035 409.942 288.494C409.825 288.872 409.699 289.25 409.544 289.629C409.415 290.001 409.225 290.348 408.981 290.657C408.928 290.72 408.862 290.77 408.787 290.803L408.496 290.88L407.885 291.006C407.468 291.084 407.051 291.152 406.624 291.21C406.595 291.217 406.568 291.231 406.546 291.252C406.523 291.272 406.507 291.298 406.498 291.326C406.343 291.986 406.187 292.646 406.022 293.266C405.909 293.698 405.697 294.097 405.404 294.433C405.112 294.769 404.746 295.034 404.335 295.207C403.473 295.529 402.538 295.599 401.638 295.41C401.597 295.405 401.556 295.414 401.521 295.435C401.486 295.456 401.459 295.489 401.444 295.527C401.195 296.415 400.646 297.189 399.892 297.719C399.503 297.97 399.06 298.125 398.599 298.17C398.139 298.216 397.674 298.151 397.243 297.981C396.914 297.847 396.613 297.649 396.361 297.399C396.331 297.378 396.295 297.366 396.259 297.366C396.222 297.366 396.187 297.378 396.157 297.399C395.546 297.761 394.864 297.989 394.159 298.068C393.823 298.104 393.484 298.037 393.189 297.874C392.923 297.683 392.718 297.421 392.597 297.118C392.352 296.47 392.198 295.79 392.141 295.1C392.077 294.42 392.051 293.736 392.063 293.053H391.753C391.748 293.309 391.728 293.565 391.695 293.819C391.695 293.946 391.695 294.081 391.627 294.198C391.559 294.314 391.52 294.44 391.549 294.479C391.339 294.56 391.111 294.583 390.889 294.547C390.665 294.496 390.462 294.378 390.307 294.207C390.153 294.035 390.049 293.824 390.007 293.596C389.949 293.344 389.881 293.102 389.813 292.859C389.687 292.374 389.56 291.889 389.444 291.404C388.959 289.464 388.474 287.65 388.193 285.894C388.028 285.044 387.908 284.186 387.834 283.323C387.799 282.517 387.828 281.709 387.921 280.908C388.067 279.346 388.232 277.901 388.396 276.591C388.726 273.991 388.988 271.906 389.172 270.441C389.269 269.742 389.337 269.19 389.386 268.801C389.386 268.627 389.386 268.481 389.386 268.375C389.386 268.268 389.473 268.142 389.473 268.142Z" fill="#A56349"/>
<path d="M327.914 121.546C333.497 121.556 338.957 119.905 343.599 116.802C343.599 116.802 340.02 125.533 327.933 124.679L327.914 121.546Z" fill="#A56349"/>
<path opacity="0.3" d="M376.562 187.229L379.948 186.773L386.127 214.546L385.787 220.735L387.989 231.163L388.727 248.547C388.727 248.547 380.394 222.413 379.948 216.176C379.462 209.482 376.562 187.19 376.562 187.19" fill="black"/>
<path d="M225.174 460.408C225.174 460.408 226.27 467.296 226.232 468.499L231.082 472.689L243.46 469.925L244.479 459.797L225.174 460.408Z" fill="#F4C3AE"/>
<path d="M243.712 468.402V469.507C243.712 469.507 262.424 476.763 262.667 480.295L225.688 480.547L226.105 468.237C228.855 469.529 231.852 470.213 234.89 470.242C237.929 470.27 240.938 469.642 243.712 468.402Z" fill="#81C784"/>
<g opacity="0.6">
<path d="M225.708 480.547L225.805 477.588L261.212 478.422C261.212 478.422 262.861 479.13 262.686 480.295L225.708 480.547Z" fill="white"/>
</g>
<path d="M243.867 469.604C243.867 469.789 242.955 469.876 242.072 470.458C241.19 471.04 240.724 471.816 240.549 471.739C240.375 471.661 240.646 470.623 241.733 469.934C242.819 469.246 243.906 469.44 243.867 469.604Z" fill="#263238"/>
<path d="M247.757 471.186C247.757 471.36 247.02 471.671 246.408 472.437C245.797 473.203 245.632 474.018 245.438 474.008C245.244 473.999 245.138 472.98 245.914 472.068C246.69 471.157 247.747 471.011 247.757 471.186Z" fill="#263238"/>
<path d="M249.988 475.813C249.823 475.813 249.571 474.949 249.988 473.96C250.405 472.971 251.288 472.563 251.365 472.718C251.443 472.874 250.919 473.397 250.56 474.222C250.201 475.046 250.172 475.793 249.988 475.813Z" fill="#263238"/>
<path d="M265.44 460.408C265.44 460.408 266.537 467.296 266.498 468.499L271.348 472.689L283.736 469.925L284.764 459.797L265.44 460.408Z" fill="#F4C3AE"/>
<path d="M283.989 468.402V469.507C283.989 469.507 302.701 476.763 302.944 480.295L265.955 480.547L266.372 468.237C269.124 469.529 272.122 470.213 275.162 470.242C278.203 470.27 281.213 469.643 283.989 468.402Z" fill="#81C784"/>
<g opacity="0.6">
<path d="M265.975 480.547L266.081 477.588L301.489 478.422C301.489 478.422 303.138 479.13 302.963 480.295L265.975 480.547Z" fill="white"/>
</g>
<path d="M284.135 469.604C284.135 469.789 283.233 469.876 282.34 470.458C281.448 471.04 280.992 471.816 280.827 471.739C280.662 471.661 280.924 470.623 282.001 469.934C283.078 469.246 284.174 469.44 284.135 469.604Z" fill="#263238"/>
<path d="M288.024 471.186C288.024 471.36 287.287 471.671 286.676 472.437C286.064 473.203 285.899 474.018 285.705 474.008C285.511 473.999 285.405 472.98 286.181 472.068C286.957 471.157 288.024 471.011 288.024 471.186Z" fill="#263238"/>
<path d="M290.256 475.813C290.1 475.813 289.839 474.949 290.256 473.96C290.673 472.971 291.556 472.563 291.633 472.718C291.711 472.874 291.187 473.397 290.828 474.222C290.469 475.046 290.44 475.793 290.256 475.813Z" fill="#263238"/>
<path d="M296.551 287.727H215.26L206.859 326.219L223.651 463.076H249.649L255.595 342.536L261.852 463.076H289.722L301.431 327.733L296.551 287.727Z" fill="#263238"/>
<path d="M234.409 461.165C234.263 461.165 233.914 437.039 233.613 407.297C233.313 377.555 233.187 353.391 233.293 353.391C233.4 353.391 233.788 377.497 234.079 407.259C234.37 437.02 234.545 461.155 234.409 461.165Z" fill="#455A64"/>
<path d="M276.035 460.699C276.026 460.599 276.026 460.499 276.035 460.399C276.035 460.175 276.083 459.884 276.122 459.516C276.209 458.711 276.326 457.576 276.491 456.13C276.821 453.22 277.267 448.942 277.771 443.684C278.276 438.427 278.741 432.16 279.255 425.185C279.77 418.211 280.08 410.547 280.313 402.496C280.546 394.444 280.575 386.751 280.526 379.767C280.478 372.783 280.284 366.497 280.07 361.219C279.857 355.942 279.653 351.664 279.479 348.715C279.411 347.27 279.352 346.135 279.304 345.32C279.304 344.951 279.304 344.66 279.304 344.437C279.297 344.337 279.297 344.237 279.304 344.137C279.335 344.234 279.351 344.335 279.352 344.437L279.44 345.31C279.498 346.125 279.595 347.25 279.711 348.706C279.944 351.616 280.206 355.923 280.458 361.2C280.711 366.477 280.914 372.773 281.021 379.767C281.128 386.761 281.021 394.444 280.846 402.505C280.672 410.566 280.216 418.249 279.75 425.224C279.285 432.199 278.712 438.465 278.159 443.723C277.606 448.981 277.112 453.23 276.714 456.159C276.51 457.595 276.365 458.72 276.248 459.526C276.248 459.894 276.151 460.185 276.122 460.408C276.103 460.508 276.074 460.606 276.035 460.699Z" fill="#455A64"/>
<path d="M252.568 164.229L221.526 165.907L218.995 177.606C218.995 177.606 227.56 184.484 228.414 184.765C229.268 185.046 248.785 187.772 248.785 187.772C248.785 187.772 269.787 177.984 269.506 178.072C269.224 178.159 252.568 164.229 252.568 164.229Z" fill="#F4C3AE"/>
<path d="M225.533 110.051C223.767 108.217 220.78 108.567 218.277 109.081C216.802 109.292 215.367 109.72 214.018 110.351C213.346 110.676 212.753 111.142 212.279 111.718C211.805 112.294 211.462 112.967 211.273 113.688C210.836 115.91 212.418 118.112 212.136 120.362C211.988 121.146 211.673 121.888 211.21 122.538C210.748 123.188 210.151 123.73 209.459 124.126C208.07 124.914 206.573 125.492 205.016 125.843C205.78 126.809 206.738 127.604 207.827 128.179C208.916 128.753 210.113 129.094 211.341 129.18C211.195 129.985 210.167 130.218 209.401 130.325C208.634 130.432 207.558 130.888 207.674 131.703C207.787 132.108 208.051 132.455 208.411 132.673C212.713 135.894 218.014 137.495 223.379 137.193C225.882 137.048 228.53 136.378 230.17 134.506C231.809 132.634 232.11 130.267 232.11 127.929C232.064 124.715 231.333 121.549 229.966 118.64C228.6 115.731 226.629 113.147 224.185 111.06" fill="#CECECE"/>
<path d="M224.166 111.215C223.78 109.615 223.766 107.949 224.125 106.343C224.484 104.737 225.207 103.235 226.237 101.952C227.268 100.669 228.579 99.6403 230.07 98.9438C231.561 98.2473 233.192 97.9021 234.837 97.9347C235.985 98.0961 237.153 98.0202 238.271 97.7116C239.198 97.1878 240.028 96.5085 240.725 95.7035C242.995 93.647 246.157 92.9582 249.174 92.4829C253.472 91.8039 257.973 91.4159 262.076 92.8418C266.179 94.2678 269.778 97.9541 269.837 102.3C269.837 104.24 269.225 106.064 269.119 107.965C269.012 109.866 269.643 112.049 271.369 112.815C272.485 113.339 273.94 113.242 274.735 114.183C275.026 114.616 275.175 115.129 275.161 115.651C275.147 116.172 274.971 116.676 274.658 117.093C273.987 117.911 273.146 118.573 272.194 119.034C272.983 119.246 273.681 119.713 274.179 120.362C274.677 121.011 274.947 121.805 274.949 122.623C274.919 123.44 274.709 124.24 274.333 124.966C273.957 125.693 273.426 126.327 272.776 126.823C271.468 127.803 269.962 128.485 268.362 128.821C260.864 130.694 252.899 128.763 245.847 125.611C238.067 122.115 231.02 117.178 225.078 111.06L225.679 110.371" fill="#CECECE"/>
<path d="M222.244 114.823C222.487 114.135 224.514 109.488 225.242 109.537C225.756 109.537 224.553 113.883 224.825 114.329C227.453 118.549 228.288 123.69 228.035 128.657C227.736 133.479 226.896 138.252 225.533 142.887" fill="#CECECE"/>
<path d="M225.533 142.887C223.789 138.405 222.439 133.78 221.498 129.064L225.533 142.887Z" fill="#CECECE"/>
<path d="M239.716 182.573C236.132 182.6 232.68 181.223 230.099 178.738C227.517 176.252 226.011 172.855 225.902 169.273L224.563 124.456C223.816 112.418 230.199 101.951 242.248 101.543H243.363C248.775 101.679 253.938 103.847 257.824 107.616C261.711 111.386 264.035 116.48 264.336 121.885C264.928 132.323 265.442 143.857 265.238 149.435C264.811 160.998 253.209 162.521 253.209 162.521C253.209 162.521 253.209 165.199 253.287 168.594C253.32 170.406 252.995 172.206 252.329 173.891C251.663 175.576 250.67 177.112 249.408 178.412C248.145 179.711 246.638 180.748 244.973 181.462C243.308 182.176 241.518 182.554 239.706 182.573H239.716Z" fill="#F4C3AE"/>
<path d="M253.228 162.657C247.884 162.504 242.695 160.821 238.279 157.807C238.279 157.807 241.742 166.305 253.306 165.567L253.228 162.657Z" fill="#CC937F"/>
<path d="M245.118 143.974C245.372 143.699 245.685 143.484 246.033 143.346C246.381 143.208 246.755 143.151 247.129 143.177C247.502 143.204 247.865 143.314 248.19 143.5C248.514 143.686 248.793 143.943 249.005 144.251C249.217 144.56 249.357 144.912 249.415 145.282C249.472 145.652 249.445 146.03 249.337 146.388C249.228 146.746 249.04 147.075 248.787 147.351C248.533 147.627 248.221 147.842 247.873 147.98C247.228 148.217 246.523 148.238 245.865 148.038C245.359 147.918 244.903 147.639 244.566 147.243C244.36 146.932 244.235 146.575 244.203 146.204C244.171 145.833 244.232 145.46 244.381 145.118C244.605 144.544 244.981 144.041 245.468 143.663" fill="#CC937F"/>
<path d="M261.426 129.646C261.421 130.077 261.247 130.488 260.943 130.793C260.638 131.097 260.227 131.271 259.796 131.276C259.585 131.287 259.374 131.257 259.175 131.186C258.976 131.115 258.794 131.004 258.638 130.861C258.483 130.719 258.357 130.546 258.27 130.354C258.182 130.162 258.134 129.954 258.127 129.743C258.135 129.313 258.309 128.903 258.613 128.599C258.917 128.295 259.327 128.121 259.757 128.113C259.968 128.102 260.179 128.132 260.378 128.203C260.577 128.274 260.759 128.385 260.915 128.528C261.07 128.67 261.196 128.843 261.283 129.035C261.371 129.227 261.419 129.435 261.426 129.646Z" fill="#263238"/>
<path d="M261.784 127.522C261.571 127.725 260.339 126.775 258.564 126.736C256.789 126.697 255.46 127.551 255.275 127.337C255.091 127.124 255.401 126.852 255.983 126.455C256.765 125.939 257.686 125.679 258.622 125.708C259.546 125.726 260.439 126.039 261.173 126.6C261.707 127.027 261.881 127.425 261.784 127.522Z" fill="#263238"/>
<path d="M244.789 129.646C244.781 130.078 244.606 130.489 244.3 130.793C243.994 131.098 243.581 131.271 243.15 131.276C242.939 131.286 242.729 131.255 242.532 131.183C242.334 131.111 242.153 131.001 241.998 130.858C241.844 130.715 241.719 130.543 241.632 130.352C241.545 130.16 241.497 129.953 241.491 129.743C241.496 129.312 241.669 128.901 241.974 128.596C242.278 128.292 242.69 128.118 243.12 128.113C243.331 128.102 243.542 128.132 243.741 128.203C243.94 128.274 244.123 128.385 244.278 128.528C244.434 128.67 244.559 128.843 244.647 129.035C244.734 129.227 244.783 129.435 244.789 129.646Z" fill="#263238"/>
<path d="M244.672 127.531C244.468 127.745 243.236 126.784 241.461 126.746C239.686 126.707 238.357 127.57 238.173 127.347C237.988 127.124 238.289 126.862 238.871 126.464C239.653 125.95 240.574 125.69 241.51 125.717C242.435 125.742 243.33 126.054 244.071 126.61C244.604 127.046 244.779 127.434 244.672 127.531Z" fill="#263238"/>
<path d="M250.386 140.879C251.332 140.601 252.311 140.448 253.296 140.423C253.752 140.423 254.189 140.307 254.266 139.997C254.319 139.53 254.224 139.058 253.995 138.648L252.695 135.127C250.949 130.17 249.697 126.086 249.891 126.018C250.085 125.95 251.676 129.898 253.413 134.884C253.84 136.107 254.237 137.28 254.616 138.396C254.894 138.948 254.962 139.582 254.81 140.181C254.741 140.338 254.637 140.478 254.506 140.589C254.374 140.7 254.22 140.779 254.053 140.821C253.8 140.889 253.539 140.919 253.277 140.908C252.316 141.016 251.345 141.006 250.386 140.879Z" fill="#263238"/>
<path d="M245.128 141.975C245.419 141.975 245.371 143.916 246.991 145.303C248.611 146.69 250.667 146.554 250.677 146.826C250.677 146.942 250.211 147.185 249.348 147.194C248.215 147.179 247.124 146.767 246.263 146.03C245.44 145.325 244.925 144.326 244.827 143.246C244.769 142.441 244.992 141.966 245.128 141.975Z" fill="#263238"/>
<path d="M244.934 120.576C244.74 121.051 242.994 120.78 240.889 120.983C238.784 121.187 237.096 121.711 236.825 121.274C236.708 121.061 237.009 120.615 237.707 120.169C238.623 119.604 239.661 119.271 240.734 119.198C241.802 119.093 242.88 119.246 243.877 119.645C244.585 119.974 244.934 120.363 244.934 120.576Z" fill="#CECECE"/>
<path d="M261.202 122.516C260.882 122.914 259.669 122.516 258.195 122.409C256.72 122.303 255.469 122.613 255.197 122.186C255.071 121.982 255.275 121.585 255.837 121.216C256.576 120.771 257.431 120.562 258.292 120.615C259.158 120.65 259.993 120.956 260.678 121.488C261.182 121.856 261.347 122.273 261.202 122.516Z" fill="#CECECE"/>
<path d="M225.29 133.187C225.096 133.099 217.404 130.645 217.462 138.561C217.52 146.477 225.455 144.779 225.465 144.546C225.474 144.313 225.29 133.187 225.29 133.187Z" fill="#F4C3AE"/>
<path d="M223.03 141.549C223.03 141.549 222.894 141.646 222.661 141.752C222.332 141.887 221.963 141.887 221.633 141.752C220.789 141.461 220.071 140.132 220.023 138.706C220.006 138.04 220.135 137.378 220.401 136.766C220.472 136.518 220.602 136.29 220.782 136.104C220.961 135.918 221.184 135.779 221.429 135.699C221.587 135.654 221.755 135.666 221.905 135.733C222.054 135.801 222.175 135.919 222.244 136.068C222.351 136.291 222.303 136.446 222.341 136.456C222.38 136.466 222.516 136.33 222.448 136C222.395 135.806 222.283 135.633 222.128 135.505C222.021 135.421 221.897 135.36 221.765 135.327C221.633 135.293 221.496 135.288 221.362 135.311C221.038 135.379 220.737 135.529 220.487 135.747C220.237 135.964 220.048 136.241 219.936 136.553C219.604 137.238 219.448 137.995 219.48 138.755C219.538 140.355 220.362 141.84 221.517 142.16C221.729 142.22 221.951 142.231 222.168 142.192C222.385 142.153 222.59 142.066 222.768 141.937C223.011 141.743 223.059 141.568 223.03 141.549Z" fill="#CC937F"/>
<path d="M259.272 109.168C260.542 108.44 256.361 104.192 253.209 102.814C248.417 100.738 241.131 99.5353 236.766 100.874C231.508 102.465 227.172 105.162 224.602 110.012C222.126 114.946 221.011 120.451 221.371 125.96C221.439 127.628 218.267 128.589 219.189 129.995C220.304 131.703 220.042 130.897 221.953 133.264C222.487 133.934 223.321 134.69 223.893 135.331C225.387 137.048 229.122 137.387 229.927 135.884C231.591 133.071 232.504 129.877 232.575 126.61C232.643 124.185 232.692 120.508 232.052 118.17C231.811 117.302 231.703 116.403 231.731 115.503C231.734 114.024 232.166 112.579 232.973 111.341C233.188 111.079 233.425 110.835 233.681 110.613C234.625 109.807 235.764 109.262 236.984 109.032C238.205 108.802 239.464 108.896 240.637 109.304C245.147 110.798 248.785 113.262 253.946 111.05C254.831 110.568 255.589 109.883 256.158 109.052C256.591 108.668 257.152 108.461 257.731 108.472C258.309 108.483 258.863 108.71 259.281 109.11L259.272 109.168Z" fill="#CECECE"/>
<path d="M232.983 110.933C234.26 110.222 235.667 109.775 237.121 109.62C238.574 109.465 240.044 109.605 241.442 110.031C243.799 110.759 245.836 112.272 248.106 113.242C250.657 114.298 253.439 114.666 256.176 114.31C258.913 113.954 261.509 112.887 263.705 111.215C264.345 110.801 264.89 110.257 265.306 109.618C265.722 108.98 266 108.262 266.12 107.509C266.125 106.873 265.987 106.244 265.717 105.668C265.447 105.093 265.051 104.585 264.559 104.182C263.569 103.389 262.436 102.793 261.222 102.426C255.654 100.628 249.74 100.176 243.964 101.107C239.318 101.766 234.574 103.212 231.227 106.481C230.767 106.894 230.4 107.4 230.151 107.965C230.024 108.257 229.976 108.577 230.01 108.893C230.044 109.209 230.159 109.511 230.345 109.769C230.543 110.016 230.83 110.174 231.144 110.211C231.458 110.247 231.774 110.158 232.023 109.963" fill="#CECECE"/>
<path d="M263.889 129.171C263.889 129.306 263.462 129.471 262.919 129.646C262.376 129.821 261.949 129.966 261.862 129.85C261.775 129.733 262.163 129.374 262.754 129.171C263.346 128.967 263.88 129.035 263.889 129.171Z" fill="#CC937F"/>
<path d="M264.568 130.422C264.568 130.558 263.977 130.587 263.298 130.597C262.619 130.606 262.046 130.597 262.027 130.422C262.007 130.247 262.57 130.083 263.298 130.083C264.025 130.083 264.588 130.277 264.568 130.422Z" fill="#CC937F"/>
<path d="M237.009 129.694C237.009 129.84 236.223 129.869 235.272 129.869C234.321 129.869 233.545 129.869 233.536 129.694C233.526 129.52 234.292 129.355 235.272 129.365C236.252 129.374 237.028 129.559 237.009 129.694Z" fill="#CC937F"/>
<path d="M236.912 131.295C236.912 131.441 236.213 131.421 235.399 131.421C234.584 131.421 233.924 131.421 233.895 131.305C233.866 131.188 234.535 130.917 235.399 130.917C236.262 130.917 236.941 131.169 236.912 131.295Z" fill="#CC937F"/>
<path d="M244.217 133.885C244.217 133.885 243.994 134.244 243.421 134.564C242.666 134.967 241.81 135.139 240.957 135.059C240.101 134.969 239.289 134.632 238.62 134.089C238.125 133.662 237.931 133.303 237.979 133.264C238.879 133.911 239.914 134.346 241.006 134.535C242.111 134.557 243.207 134.335 244.217 133.885Z" fill="#CC937F"/>
<path d="M245.021 133.497C245.08 133.623 244.236 134.06 243.081 134.06C242.737 134.102 242.388 134.075 242.055 133.98C241.722 133.885 241.411 133.724 241.141 133.507C241.141 133.371 242.034 133.565 243.081 133.507C244.129 133.449 244.934 133.361 245.021 133.497Z" fill="#CC937F"/>
<path d="M262.202 132.391C261.344 132.936 260.369 133.269 259.357 133.364C258.345 133.458 257.325 133.311 256.381 132.935C256.381 132.789 257.701 133.012 259.292 132.857C260.882 132.702 262.144 132.217 262.202 132.391Z" fill="#CC937F"/>
<path d="M261.338 133.002C260.685 133.73 259.808 134.22 258.846 134.396C257.884 134.572 256.89 134.423 256.022 133.972C256.934 134.015 257.848 133.996 258.758 133.914C259.637 133.667 260.499 133.362 261.338 133.002Z" fill="#CC937F"/>
<path d="M257.652 118.907C257.009 119.165 256.333 119.328 255.643 119.392C254.003 119.635 252.343 119.723 250.686 119.654C249.029 119.59 247.382 119.365 245.768 118.985C245.091 118.879 244.435 118.663 243.828 118.345C243.828 118.19 246.894 119.014 250.725 119.15C254.557 119.286 257.622 118.752 257.652 118.907Z" fill="#CC937F"/>
<path d="M258.854 117.52C254.618 118.335 250.266 118.335 246.03 117.52C246.03 117.375 248.94 117.646 252.442 117.646C255.944 117.646 258.835 117.375 258.854 117.52Z" fill="#CC937F"/>
<path d="M249.833 123.253C249.687 123.253 249.648 122.885 249.629 122.487C249.609 122.089 249.629 121.74 249.774 121.701C249.92 121.662 250.124 122.002 250.133 122.468C250.143 122.933 249.959 123.292 249.833 123.253Z" fill="#CC937F"/>
<path d="M252.268 123.573C252.219 123.7 251.657 123.573 251.424 122.914C251.191 122.254 251.472 121.789 251.598 121.856C251.725 121.924 251.715 122.303 251.889 122.729C252.064 123.156 252.336 123.486 252.268 123.573Z" fill="#CC937F"/>
<path d="M244.866 141.471C244.866 141.617 244.303 141.704 243.809 142.121C243.314 142.538 243.091 143.091 242.955 143.013C242.819 142.936 242.819 142.267 243.489 141.723C244.158 141.18 244.934 141.335 244.866 141.471Z" fill="#CC937F"/>
<path d="M242.791 141.326C242.791 141.461 242.461 141.539 242.238 141.811C242.015 142.082 241.957 142.373 241.821 142.422C241.685 142.47 241.666 142.354 241.636 142.16C241.621 142.037 241.633 141.913 241.672 141.795C241.71 141.678 241.774 141.57 241.86 141.481C241.939 141.385 242.038 141.307 242.15 141.254C242.262 141.2 242.385 141.172 242.509 141.17C242.703 141.17 242.8 141.258 242.791 141.326Z" fill="#CC937F"/>
<path d="M235.282 172.29C235.282 172.29 235.05 172.29 234.739 172.018C234.327 171.639 234.06 171.128 233.983 170.573C233.858 169.772 233.891 168.955 234.08 168.167C234.322 167.285 234.322 166.353 234.08 165.47C233.915 165.044 233.595 164.646 233.401 164.141C233.24 163.653 233.24 163.126 233.401 162.638C233.51 162.274 233.51 161.886 233.401 161.522C233.271 161.201 233.105 160.895 232.906 160.61C232.733 160.384 232.614 160.121 232.56 159.842C232.507 159.562 232.519 159.274 232.595 159C232.76 158.593 233.032 158.544 233.032 158.573C233.032 158.602 232.857 158.719 232.78 159.049C232.752 159.294 232.775 159.542 232.849 159.777C232.922 160.013 233.044 160.231 233.207 160.416C233.443 160.714 233.641 161.04 233.798 161.386C233.934 161.829 233.934 162.302 233.798 162.745C233.667 163.141 233.667 163.57 233.798 163.967C233.953 164.374 234.264 164.762 234.477 165.286C234.764 166.255 234.764 167.286 234.477 168.254C234.28 168.99 234.211 169.755 234.274 170.515C234.318 171.014 234.507 171.489 234.817 171.883C235.118 172.154 235.302 172.251 235.282 172.29Z" fill="#CC937F"/>
<path d="M240.308 173.25C240.308 173.25 240.055 173.25 239.706 173.047C239.248 172.683 238.91 172.189 238.736 171.63C238.112 169.9 237.677 168.108 237.436 166.285C237.387 165.757 237.37 165.225 237.388 164.694C237.42 164.226 237.42 163.756 237.388 163.288C237.388 162.415 236.515 162.114 235.962 161.61C235.69 161.382 235.508 161.066 235.448 160.717C235.432 160.58 235.448 160.441 235.496 160.312C235.543 160.182 235.619 160.065 235.719 159.97C236.078 159.65 236.379 159.844 236.34 159.863C236.301 159.883 236.088 159.863 235.865 160.106C235.801 160.184 235.756 160.274 235.731 160.371C235.706 160.469 235.702 160.57 235.719 160.669C235.802 160.937 235.968 161.172 236.195 161.338C236.447 161.551 236.786 161.716 237.165 161.978C237.363 162.127 237.528 162.315 237.652 162.53C237.775 162.745 237.854 162.983 237.882 163.23C237.921 163.724 237.921 164.22 237.882 164.714C237.873 165.222 237.893 165.731 237.941 166.237C238.186 168.022 238.565 169.786 239.076 171.514C239.195 172.028 239.446 172.503 239.803 172.891C240.084 173.153 240.317 173.212 240.308 173.25Z" fill="#CC937F"/>
<path d="M242.529 96.4602C242.667 96.3642 242.817 96.2859 242.975 96.2274C243.279 96.0786 243.725 95.8943 244.314 95.6744C245.984 95.0776 247.72 94.6835 249.484 94.5007C252.109 94.2146 254.764 94.382 257.332 94.9954C258.866 95.3291 260.343 95.8846 261.717 96.6445C263.246 97.4322 264.491 98.6791 265.275 100.21C266.06 101.741 266.345 103.479 266.092 105.181C265.903 106.757 265.352 108.268 264.481 109.595C263.684 110.773 262.641 111.766 261.426 112.505C260.378 113.169 259.232 113.664 258.03 113.97C256.307 114.425 254.514 114.553 252.744 114.348C252.264 114.294 251.788 114.213 251.318 114.106C251.15 114.08 250.987 114.031 250.833 113.96C250.833 113.96 251.521 114.067 252.773 114.154C254.517 114.272 256.268 114.095 257.953 113.63C259.108 113.307 260.207 112.81 261.212 112.156C262.373 111.422 263.365 110.45 264.122 109.304C264.938 108.029 265.455 106.587 265.636 105.084C265.865 103.479 265.591 101.843 264.851 100.401C264.111 98.9584 262.941 97.7815 261.503 97.0325C260.17 96.2935 258.74 95.7449 257.254 95.4028C254.734 94.7786 252.127 94.5818 249.542 94.8208C247.799 94.9596 246.075 95.2848 244.401 95.7908C243.188 96.2371 242.548 96.5087 242.529 96.4602Z" fill="white"/>
<path d="M269.496 101.582C269.693 102.211 269.716 102.881 269.564 103.522C269.266 105.087 268.556 106.543 267.507 107.742C266.478 108.924 265.286 109.953 263.966 110.798C263.461 111.201 262.898 111.528 262.298 111.768C262.734 111.296 263.226 110.879 263.763 110.526C264.982 109.606 266.109 108.569 267.129 107.432C268.109 106.28 268.812 104.92 269.185 103.454C269.486 102.329 269.408 101.592 269.496 101.582Z" fill="white"/>
<path d="M240.084 102.979C237.896 103.68 235.806 104.658 233.866 105.889C232.333 106.995 230.956 108.14 230.519 109.265C230.284 109.883 230.218 110.553 230.325 111.205C230.325 111.205 230.17 111.06 230.083 110.701C229.965 110.185 229.999 109.646 230.18 109.149C230.616 107.839 232.004 106.617 233.575 105.482C234.975 104.533 236.518 103.812 238.144 103.348C238.763 103.109 239.421 102.985 240.084 102.979Z" fill="white"/>
<path d="M232.469 101.378C232.469 101.437 232.052 101.805 231.334 102.397C230.381 103.13 229.555 104.015 228.889 105.016C228.252 106.014 227.959 107.193 228.055 108.373C228.145 108.863 228.262 109.349 228.404 109.828C228.404 109.828 227.91 109.41 227.706 108.431C227.489 107.152 227.755 105.838 228.453 104.744C229.155 103.705 230.063 102.82 231.121 102.145C231.517 101.805 231.975 101.545 232.469 101.378Z" fill="white"/>
<path d="M216.695 115.648C216.864 115.058 217.169 114.516 217.588 114.067C218.51 112.9 219.718 111.99 221.094 111.426C222.471 110.862 223.969 110.662 225.445 110.846C226.06 110.869 226.659 111.042 227.191 111.351C227.191 111.428 226.503 111.254 225.416 111.205C224.005 111.122 222.594 111.357 221.286 111.893C219.978 112.428 218.807 113.251 217.859 114.3C217.122 115.095 216.802 115.726 216.695 115.648Z" fill="white"/>
<path d="M222.468 119.751C222.21 119.333 222.085 118.846 222.109 118.354C222.053 117.166 222.399 115.994 223.09 115.026C223.782 114.058 224.779 113.351 225.921 113.019C226.377 112.835 226.879 112.798 227.357 112.912C226.926 113.085 226.485 113.234 226.038 113.359C225.016 113.746 224.132 114.428 223.497 115.317C222.862 116.206 222.504 117.263 222.468 118.354C222.492 118.82 222.492 119.286 222.468 119.751Z" fill="white"/>
<path d="M272.62 119.286C272.058 119.469 271.456 119.49 270.883 119.344C269.468 119.124 268.163 118.447 267.17 117.415C266.176 116.383 265.549 115.053 265.383 113.63C265.263 113.055 265.303 112.458 265.499 111.904C265.587 111.904 265.499 112.563 265.732 113.572C265.981 114.885 266.607 116.098 267.534 117.061C268.461 118.024 269.648 118.696 270.951 118.995C271.96 119.237 272.61 119.208 272.62 119.286Z" fill="white"/>
<path d="M272.484 122.836C271.023 123.206 269.486 123.142 268.06 122.652C266.579 122.327 265.228 121.567 264.18 120.469C265.47 121.123 266.802 121.69 268.167 122.167C269.591 122.477 271.033 122.7 272.484 122.836Z" fill="white"/>
<path d="M259.776 164.132C261.008 164.132 274.094 162.386 282.087 167.653C290.081 172.92 311.577 213.702 311.577 213.702C311.577 213.702 318.135 235.402 308.919 239.7C299.704 243.997 275.345 257.103 275.345 257.103L269.409 235.606L286.2 227.845V207.115L259.776 164.132Z" fill="#455A64"/>
<path d="M286.201 208.9L295.232 209.395C297.677 209.53 300.064 210.199 302.224 211.353C304.384 212.508 306.265 214.12 307.736 216.079L313.556 223.897C313.556 223.897 316.67 227.942 315.759 229.718C315.012 231.173 313.537 231.056 312.111 229.776C310.685 228.495 306.135 221.812 306.135 221.812C306.135 221.812 314.517 232.541 312.606 234.519C310.695 236.498 308.551 233.899 308.551 233.899C308.551 233.899 309.831 238.031 307.27 237.604C304.709 237.177 301.634 233.336 301.634 233.336C301.634 233.336 302.013 235.751 299.694 235.47C297.376 235.189 290.731 224.935 290.159 224.935C289.586 224.935 286.608 224.654 286.608 224.654L286.201 208.9Z" fill="#CE947A"/>
<path d="M302.691 218.407C303.958 219.533 305.112 220.781 306.135 222.132C307.285 223.376 308.308 224.731 309.191 226.177C307.924 225.051 306.771 223.803 305.747 222.452C304.6 221.205 303.577 219.851 302.691 218.407Z" fill="#A56349"/>
<path d="M300.034 222.811C300.549 223.322 301.011 223.884 301.412 224.489C302.217 225.566 303.352 227.04 304.593 228.651C305.835 230.261 307.019 231.697 307.863 232.744C308.362 233.274 308.798 233.86 309.162 234.49C308.581 234.049 308.054 233.542 307.591 232.977C306.679 232.007 305.457 230.581 304.196 228.961C302.935 227.341 301.858 225.828 301.121 224.702C300.678 224.121 300.313 223.486 300.034 222.811Z" fill="#A56349"/>
<path d="M296.968 227.38C298.082 228.121 299.033 229.081 299.762 230.203C300.635 231.222 301.295 232.406 301.702 233.685C301.576 233.753 300.684 232.23 299.384 230.503C298.526 229.504 297.72 228.461 296.968 227.38Z" fill="#A56349"/>
<path d="M280.41 185.395C280.322 185.395 280.468 184.309 280.41 182.573C280.319 180.321 279.874 178.098 279.091 175.986C278.292 173.88 277.163 171.915 275.744 170.166C274.648 168.827 273.804 168.109 273.891 168.041C273.978 167.973 274.133 168.167 274.512 168.478C275.049 168.924 275.551 169.411 276.015 169.933C277.547 171.66 278.75 173.652 279.566 175.811C280.385 177.981 280.793 180.283 280.769 182.602C280.762 183.297 280.704 183.991 280.594 184.678C280.573 184.925 280.511 185.168 280.41 185.395Z" fill="#263238"/>
<path d="M223.651 178.314C223.651 178.314 235.476 185.104 244.449 183.164C250.17 181.737 255.44 178.895 259.776 174.899L275.646 211.228L266.246 283.983L237.891 287.679L228.491 218.659L223.651 178.314Z" fill="#FAFAFA"/>
<path d="M222.768 165.49L216.608 167.653L205.22 241.94C205.22 241.94 196.431 272.876 197.197 286.243C197.964 299.611 205.161 341.013 205.161 341.013L257.118 335.542L254.964 254.251C254.964 254.251 258.709 230.853 247.611 216.69C236.514 202.527 222.768 165.49 222.768 165.49Z" fill="#455A64"/>
<path d="M252.569 163.85C253.287 164.879 264.646 208.046 263.424 217.136C262.202 226.225 255.586 245.268 255.586 245.268V335.27L301.431 331.08C301.431 331.08 305.185 298.224 301.431 282.489C297.677 266.755 292.206 248.12 292.206 248.12L288.587 193.185L265.519 163.85H252.569Z" fill="#455A64"/>
<path d="M303.662 310.98C303.569 310.946 303.481 310.9 303.4 310.844L302.662 310.398C302.003 310 301.052 309.428 299.752 308.749C298.21 307.925 296.541 307.364 294.815 307.09C293.742 306.945 292.652 306.988 291.594 307.216C290.417 307.519 289.293 307.997 288.257 308.632C287.161 309.292 286.074 310.097 284.939 310.941L281.389 313.56C278.935 315.355 276.335 317.305 273.541 319.313C272.127 320.407 270.458 321.125 268.691 321.398C266.814 321.45 264.954 321.033 263.278 320.186C259.873 318.643 256.352 317.111 252.675 315.665C250.832 314.947 249.018 314.23 247.204 313.638C245.442 313.011 243.583 312.699 241.713 312.716C239.917 312.819 238.18 313.394 236.679 314.385C235.228 315.34 233.885 316.449 232.672 317.693C230.238 320.06 228.016 322.543 225.261 324.027C224.929 324.216 224.581 324.378 224.223 324.512C223.883 324.678 223.525 324.805 223.156 324.891C222.456 325.123 221.729 325.263 220.993 325.308C219.626 325.388 218.255 325.304 216.909 325.055C212.872 324.289 208.957 322.984 205.268 321.175C203.949 320.574 202.94 320.069 202.261 319.73L201.485 319.342C201.31 319.245 201.223 319.196 201.233 319.187L201.514 319.293L202.3 319.642L205.346 321.001C209.053 322.727 212.965 323.975 216.986 324.716C218.308 324.95 219.654 325.022 220.993 324.929C221.7 324.88 222.398 324.74 223.069 324.512C223.404 324.424 223.729 324.3 224.039 324.144C224.372 324.006 224.696 323.847 225.009 323.668C227.667 322.233 229.859 319.788 232.294 317.373C233.526 316.097 234.892 314.959 236.368 313.977C237.938 312.945 239.751 312.343 241.626 312.231C243.56 312.219 245.481 312.548 247.301 313.201C249.144 313.812 250.958 314.53 252.801 315.238C256.478 316.684 260.028 318.236 263.414 319.778C265.012 320.597 266.789 321.004 268.584 320.962C270.282 320.724 271.892 320.056 273.26 319.022L281.127 313.318L284.687 310.728C285.773 309.904 286.899 309.137 288.063 308.429C289.129 307.775 290.291 307.294 291.507 307.003C292.601 306.774 293.728 306.741 294.834 306.906C296.589 307.2 298.279 307.798 299.83 308.671C300.81 309.199 301.762 309.779 302.682 310.408L303.4 310.893C303.584 310.912 303.671 310.97 303.662 310.98Z" fill="#FAFAFA"/>
<path d="M241.898 241.921C242.15 241.834 250.056 237.507 252.055 237.255C254.053 237.003 269.593 236.285 269.593 236.285L273.745 251.331C273.745 251.331 260.795 257.607 258.797 258.121C256.798 258.635 248.31 261.701 246.894 261.701C245.478 261.701 241.481 260.362 241.481 259.45C241.462 259.209 241.506 258.967 241.608 258.748C241.71 258.529 241.867 258.34 242.063 258.199C243.874 258.264 245.687 258.154 247.476 257.869C248.413 257.535 249.33 257.147 250.221 256.705C250.221 256.705 235.99 258.868 234.991 258.529C233.992 258.189 233.245 256.113 233.245 256.113C233.245 256.113 231.577 254.949 231.412 253.872C231.247 252.795 231.829 252.291 232.741 251.874C233.653 251.457 239.812 248.712 241.646 248.207C243.479 247.703 248.31 246.878 248.31 246.878C248.31 246.878 233.653 248.459 232.789 248.042C231.926 247.625 230.849 246.044 232.372 245.132C234.192 243.964 236.186 243.093 238.28 242.552C239.9 242.251 241.898 241.921 241.898 241.921Z" fill="#F4C3AE"/>
<path d="M252.317 250.875C251.442 251.342 250.522 251.719 249.571 252C247.845 252.611 245.429 253.368 242.713 254.057C239.997 254.745 237.513 255.211 235.709 255.492C234.735 255.689 233.744 255.796 232.75 255.812C233.702 255.514 234.675 255.29 235.661 255.143C237.446 254.774 239.91 254.241 242.616 253.562C245.322 252.883 247.728 252.184 249.484 251.622C250.409 251.304 251.356 251.055 252.317 250.875Z" fill="#CC937F"/>
<path d="M250.948 239.671C249.524 240.248 248.041 240.668 246.525 240.922C245.047 241.339 243.528 241.593 241.995 241.679C243.419 241.101 244.902 240.681 246.418 240.427C247.896 240.011 249.415 239.758 250.948 239.671Z" fill="#CC937F"/>
<path d="M269.904 242.261C269.709 242.304 269.511 242.329 269.312 242.338C268.791 242.462 268.291 242.661 267.828 242.93C267.106 243.39 266.277 243.654 265.422 243.696C264.452 243.638 263.482 243.095 262.706 243.755C262.318 244.122 261.892 244.447 261.435 244.725C260.944 244.928 260.403 244.979 259.883 244.87C258.913 244.676 258.195 244.307 257.526 244.269C257.015 244.21 256.502 244.357 256.1 244.676C255.828 244.919 255.77 245.142 255.731 245.122C255.692 245.103 255.731 244.87 255.954 244.54C256.157 244.326 256.405 244.158 256.68 244.049C256.955 243.94 257.25 243.892 257.545 243.91C258.356 244.024 259.16 244.19 259.951 244.404C260.378 244.487 260.821 244.44 261.222 244.269C261.644 243.998 262.043 243.693 262.415 243.357C262.647 243.171 262.92 243.042 263.21 242.978C263.489 242.93 263.775 242.93 264.054 242.978C264.578 243.056 265.024 243.211 265.451 243.24C266.23 243.213 266.992 243 267.672 242.62C268.177 242.36 268.727 242.202 269.292 242.154C269.7 242.135 269.913 242.232 269.904 242.261Z" fill="#CC937F"/>
<path d="M270.058 245.345C269.646 245.89 269.061 246.28 268.4 246.451C267.7 246.697 266.952 246.773 266.217 246.674C265.828 246.591 265.431 246.558 265.034 246.577C264.845 246.61 264.667 246.686 264.512 246.799C264.357 246.911 264.23 247.058 264.141 247.227C263.871 247.66 263.455 247.98 262.967 248.129C262.523 248.225 262.063 248.225 261.619 248.129C260.945 247.958 260.257 247.854 259.562 247.819C259.118 247.833 258.693 248.009 258.369 248.314C258.156 248.547 258.107 248.731 258.059 248.721C258.01 248.711 258.01 248.508 258.214 248.197C258.371 247.99 258.569 247.817 258.796 247.69C259.023 247.563 259.274 247.485 259.533 247.46C260.257 247.44 260.981 247.512 261.687 247.674C262.068 247.763 262.468 247.735 262.834 247.593C263.199 247.451 263.513 247.202 263.734 246.878C263.878 246.673 264.047 246.487 264.238 246.325C264.454 246.164 264.708 246.064 264.975 246.034C265.416 246.017 265.856 246.06 266.285 246.16C266.957 246.274 267.645 246.241 268.303 246.063C268.905 245.867 269.491 245.627 270.058 245.345Z" fill="#CC937F"/>
<path d="M226.571 251.806C226.219 251.868 225.86 251.884 225.504 251.854C225.083 251.856 224.662 251.837 224.243 251.796C223.758 251.748 223.195 251.719 222.584 251.612C221.15 251.388 219.734 251.064 218.345 250.642C216.646 250.117 214.981 249.489 213.359 248.76C210.437 247.411 207.63 245.825 204.968 244.016C203.939 243.328 203.134 242.755 202.581 242.338C202.279 242.144 202.002 241.913 201.757 241.649C202.102 241.779 202.429 241.955 202.727 242.173L205.162 243.774C207.863 245.484 210.672 247.016 213.572 248.362C215.172 249.097 216.811 249.745 218.481 250.302C219.845 250.734 221.235 251.077 222.642 251.331C225.048 251.69 226.581 251.709 226.571 251.806Z" fill="#263238"/>
<path d="M236.582 264.688C236.034 264.624 235.492 264.513 234.962 264.359C234.328 264.226 233.702 264.054 233.09 263.844C232.362 263.621 231.528 263.389 230.645 263.039C228.546 262.269 226.495 261.372 224.504 260.352C222.08 259.082 219.729 257.676 217.462 256.142C213.369 253.313 209.517 250.15 205.947 246.684C204.579 245.365 203.503 244.259 202.785 243.473C202.394 243.085 202.033 242.667 201.708 242.222C202.144 242.557 202.553 242.927 202.93 243.328C203.687 244.075 204.803 245.142 206.199 246.422C209.818 249.795 213.676 252.901 217.743 255.715C219.994 257.237 222.322 258.642 224.718 259.925C226.681 260.961 228.702 261.884 230.771 262.69C231.644 263.059 232.459 263.321 233.167 263.573C233.875 263.825 234.496 264.019 235.01 264.165C235.546 264.301 236.071 264.476 236.582 264.688Z" fill="#263238"/>
<path d="M290.721 225.595C289.752 226.176 288.74 226.686 287.695 227.118C285.755 228.001 283.145 229.184 280.206 230.436C277.267 231.687 274.589 232.783 272.63 233.52C271.66 233.889 270.845 234.18 270.292 234.364C270.012 234.488 269.714 234.566 269.409 234.597C270.404 234.059 271.435 233.589 272.494 233.19L280.012 229.97L287.549 226.788C288.575 226.311 289.635 225.912 290.721 225.595Z" fill="#263238"/>
<path d="M271.242 184.891C271.242 184.891 271.378 184.998 271.591 185.231L272.503 186.269C273.299 187.151 274.443 188.412 275.996 189.916C277.548 191.42 279.342 193.175 281.311 195.213C283.482 197.404 285.395 199.835 287.015 202.459C288.599 205.14 289.637 208.107 290.071 211.189C290.44 214.012 290.556 216.554 290.653 218.688C290.75 220.822 290.77 222.568 290.779 223.752C290.779 224.305 290.779 224.722 290.779 225.129C290.79 225.293 290.774 225.456 290.731 225.614C290.693 225.455 290.673 225.293 290.673 225.129C290.673 224.761 290.643 224.305 290.585 223.761C290.517 222.491 290.42 220.783 290.304 218.707C290.188 216.632 290.013 214.041 289.615 211.257C289.166 208.249 288.138 205.357 286.589 202.74C284.992 200.147 283.111 197.739 280.982 195.562C279.041 193.505 277.218 191.74 275.743 190.188C274.269 188.636 273.114 187.336 272.358 186.414L271.524 185.318C271.411 185.189 271.317 185.045 271.242 184.891Z" fill="#263238"/>
<path d="M307.989 240.107C307.526 240.423 307.044 240.709 306.543 240.961L302.508 243.153C299.093 244.977 294.359 247.47 289.121 250.186C283.737 252.989 278.867 255.483 275.414 257.219L275.22 257.326L275.162 257.112C274.716 255.376 274.347 253.94 274.075 252.854C273.921 252.343 273.808 251.821 273.736 251.292C273.953 251.78 274.129 252.287 274.26 252.805C274.57 253.882 274.997 255.298 275.501 257.025L275.249 256.909C278.664 255.085 283.504 252.534 288.888 249.74C294.272 246.946 298.89 244.579 302.343 242.833L306.446 240.786C306.94 240.516 307.456 240.288 307.989 240.107Z" fill="#263238"/>
<path d="M256.875 258.761C256.899 259.023 256.899 259.286 256.875 259.547C256.875 260.1 256.778 260.847 256.701 261.778C256.516 263.718 256.381 266.522 256.206 269.995C255.896 276.931 255.808 286.486 255.973 297.156C256.138 307.827 256.468 317.363 256.749 324.318C256.885 327.752 257.002 330.556 257.079 332.544C257.079 333.514 257.137 334.232 257.157 334.785C257.182 335.046 257.182 335.31 257.157 335.571C257.103 335.315 257.07 335.056 257.06 334.795C257.06 334.232 256.953 333.495 256.885 332.564C256.749 330.624 256.575 327.81 256.39 324.338C256.022 317.392 255.624 307.788 255.469 297.176C255.314 286.563 255.469 276.95 255.847 270.014C256.07 266.541 256.255 263.728 256.507 261.798C256.613 260.828 256.701 260.129 256.769 259.576C256.78 259.302 256.815 259.029 256.875 258.761Z" fill="#263238"/>
<path d="M216.608 167.653C216.608 167.653 199.467 174.967 194.181 186.56C188.894 198.152 178.048 234.956 177.796 241.756C177.544 248.556 190.145 269.733 190.145 269.733L210.061 257.122L206.277 247.8L212.321 207.726L216.608 167.653Z" fill="#455A64"/>
<path d="M208.431 478.781C208.113 478.781 207.798 478.718 207.504 478.596C207.21 478.474 206.944 478.296 206.719 478.07C206.495 477.845 206.317 477.578 206.196 477.283C206.075 476.989 206.014 476.674 206.015 476.356C206.015 474.416 206.316 280.704 206.229 277.571C206.044 270.897 201.98 267.87 201.805 267.705C201.304 267.324 200.971 266.762 200.877 266.139C200.782 265.517 200.934 264.882 201.299 264.369C201.665 263.856 202.216 263.505 202.835 263.391C203.454 263.277 204.094 263.408 204.618 263.757C204.871 263.941 210.827 268.249 211.079 277.435C211.166 280.636 210.875 468.372 210.866 476.356C210.863 477 210.605 477.617 210.149 478.072C209.693 478.526 209.075 478.781 208.431 478.781Z" fill="#263238"/>
<path d="M194.666 291.976C194.023 291.971 193.409 291.712 192.956 291.256C192.504 290.8 192.25 290.184 192.25 289.541C192.25 282.344 192.25 271.411 192.25 270.771C192.228 270.455 192.268 270.138 192.369 269.838C192.47 269.538 192.629 269.261 192.837 269.023C193.045 268.785 193.299 268.591 193.583 268.451C193.867 268.311 194.175 268.229 194.491 268.21C195.138 268.175 195.772 268.395 196.259 268.823C196.745 269.251 197.043 269.853 197.091 270.499C197.091 270.606 197.091 270.945 197.091 289.551C197.091 290.194 196.835 290.811 196.38 291.266C195.926 291.721 195.309 291.976 194.666 291.976Z" fill="#263238"/>
<path d="M198.371 257.52L193.676 261.633C192.502 262.661 191.028 271.76 191.028 271.76C191.028 271.76 196.169 277.26 198.371 277.484C199.799 277.562 201.206 277.117 202.329 276.232C202.329 276.232 204.531 277.484 205.86 276.387C207.189 275.291 204.017 268.161 204.017 268.161C204.017 268.161 202.834 264.717 206.18 264.931L207.616 267.511L211.215 273.671C211.215 273.671 213.417 273.37 213.786 272.274C214.154 271.178 212.815 267.511 212.815 267.511C213.228 266.877 213.5 266.162 213.614 265.415C213.728 264.667 213.681 263.903 213.475 263.175C212.67 261.041 211.351 257.151 207.461 256.278C203.571 255.405 198.371 257.52 198.371 257.52Z" fill="#F4C3AE"/>
<path d="M202.154 275.349C202.086 275.398 201.495 274.622 200.408 273.487C198.987 272.025 197.409 270.723 195.703 269.607C195.192 269.254 194.757 268.802 194.423 268.278C194.133 267.748 194.027 267.137 194.122 266.541C194.303 265.589 194.739 264.704 195.383 263.98C195.897 263.359 196.353 262.894 196.586 262.545C196.819 262.195 196.994 262.001 197.023 262.021C196.715 262.824 196.257 263.561 195.674 264.194C195.111 264.889 194.737 265.717 194.588 266.599C194.515 267.091 194.607 267.592 194.85 268.025C195.152 268.49 195.545 268.889 196.004 269.199C197.735 270.345 199.305 271.719 200.67 273.283C201.268 273.891 201.769 274.588 202.154 275.349Z" fill="#CC937F"/>
<path d="M208.663 263.796C208.77 263.893 208.188 264.621 207.945 265.678C207.703 266.735 207.848 267.618 207.713 267.686C207.577 267.754 207.15 266.774 207.451 265.561C207.751 264.349 208.576 263.689 208.663 263.796Z" fill="#CC937F"/>
<path d="M182.433 238.245C182.892 238.207 183.352 238.207 183.811 238.245C184.257 238.245 184.781 238.245 185.431 238.245L187.565 238.516C188.36 238.623 189.194 238.875 190.116 239.079C190.572 239.195 191.018 239.379 191.493 239.544C191.987 239.696 192.47 239.881 192.939 240.097C195.045 241.03 197.005 242.261 198.759 243.754C200.497 245.245 202.094 246.891 203.532 248.673C204.871 250.293 205.996 251.806 206.956 253.057C207.917 254.309 208.702 255.337 209.255 255.968C209.565 256.311 209.844 256.681 210.09 257.073C209.734 256.784 209.409 256.459 209.12 256.103C208.518 255.444 207.684 254.464 206.694 253.193C205.705 251.922 204.531 250.477 203.183 248.886C201.744 247.139 200.161 245.516 198.449 244.036C196.739 242.571 194.832 241.353 192.784 240.417C192.33 240.203 191.863 240.015 191.387 239.855C190.921 239.69 190.485 239.496 190.038 239.37C189.136 239.156 188.321 238.894 187.545 238.759L185.44 238.419C184.819 238.351 184.286 238.332 183.84 238.293C183.37 238.328 182.899 238.311 182.433 238.245Z" fill="#263238"/>
<path d="M208.663 203.895C208.628 204.468 208.554 205.039 208.44 205.602C208.265 206.688 207.994 208.26 207.645 210.2C206.888 214.158 205.879 219.474 204.734 225.343C203.59 231.212 202.726 236.625 202.164 240.534C201.892 242.416 201.669 243.978 201.504 245.151C201.452 245.723 201.358 246.291 201.223 246.849C201.206 246.275 201.235 245.701 201.31 245.132C201.397 244.026 201.572 242.445 201.805 240.485C202.28 236.605 203.124 231.173 204.24 225.246C205.355 219.319 206.481 214.003 207.276 210.132L208.246 205.563C208.339 204.996 208.479 204.438 208.663 203.895Z" fill="#263238"/>
<path d="M213.388 480.547H204.289L205.977 473.31H211.361L213.388 480.547Z" fill="#455A64"/>
</svg>
